<?xml version="1.0" encoding="UTF-8"?>
<svg id="Layer_2" data-name="Layer 2" xmlns="http://www.w3.org/2000/svg" viewBox="0 0 120.75 126">
  <defs>
    <style>
      .cls-1 {
        fill: #fff;
        stroke-width: 0px;
      }
    </style>
  </defs>
  <g id="Layer_2-2" data-name="Layer 2">
    <path class="cls-1" d="M8.7,0l-.66,1.72L.16,22.72l-.16.41v87.12h28.88v15.75h19.44l.82-.74,15.01-15.01h23.54l.82-.74,32.24-32.24V0H8.7ZM12.3,5.25h103.2v69.81l-29.94,29.94h-23.62l-15.75,15.75h-12.06v-15.75H5.25V24.12L12.3,5.25ZM21,10.5v78.75h21v19.44l4.51-4.43,15.01-15.01h31.42l.82-.74,15.75-15.75.74-.82V10.5H21ZM26.25,15.75h78.75v53.98l-14.27,14.27h-31.42l-.82.74-11.24,11.24v-11.98h-21V15.75ZM47.25,31.5v36.75h15.75V31.5h-15.75ZM73.5,31.5v36.75h15.75V31.5h-15.75ZM52.5,36.75h5.25v26.25h-5.25v-26.25ZM78.75,36.75h5.25v26.25h-5.25v-26.25Z"/>
  </g>
</svg>