<?xml version="1.0" encoding="UTF-8"?>
<svg id="Layer_2" data-name="Layer 2" xmlns="http://www.w3.org/2000/svg" viewBox="0 0 169.71 126">
  <defs>
    <style>
      .cls-1 {
        fill: #fff;
        stroke-width: 0px;
      }
    </style>
  </defs>
  <g id="Layer_2-2" data-name="Layer 2">
    <path class="cls-1" d="M164.98,21.66c-1.57-8.66-9.04-14.97-17.72-16.93C134.27,1.97,110.25,0,84.26,0S33.87,1.97,20.87,4.72C12.21,6.69,4.72,12.6,3.15,21.66,1.57,31.5,0,45.28,0,63s1.57,31.5,3.54,41.34c1.58,8.66,9.06,14.97,17.72,16.93,13.78,2.75,37.41,4.72,63.4,4.72s49.62-1.97,63.4-4.72c8.66-1.97,16.13-7.88,17.72-16.93,1.57-9.84,3.54-24.02,3.94-41.34-.8-17.72-2.77-31.5-4.74-41.34ZM63,90.56v-55.12l48.03,27.56-48.03,27.56Z"/>
  </g>
</svg>