<?xml version="1.0" encoding="UTF-8"?>
<svg id="Layer_2" data-name="Layer 2" xmlns="http://www.w3.org/2000/svg" viewBox="0 0 127.8 128">
  <defs>
    <style>
      .cls-1 {
        fill: #e45c2a;
        stroke-width: 0px;
      }
    </style>
  </defs>
  <g id="Layer_2-2" data-name="Layer 2">
    <g id="_4" data-name="4">
      <g id="icon">
        <path class="cls-1" d="M63.9,0C28.6,0,0,28.7,0,64s28.6,64,63.9,64,63.9-28.7,63.9-64C127.7,28.7,99.1,0,63.9,0ZM63.9,122.7c-32.4,0-58.6-26.3-58.6-58.7S31.5,5.3,63.9,5.3s58.6,26.3,58.6,58.7c-.1,32.4-26.3,58.7-58.6,58.7ZM63.6,28.8h0l-30.7,30.7,3.8,3.8,24.5-24.5v65.2h5.3V39.4l24,24,3.8-3.8-30.7-30.8h0Z"/>
      </g>
    </g>
  </g>
</svg>