<?xml version="1.0" encoding="UTF-8"?>
<svg id="Layer_2" data-name="Layer 2" xmlns="http://www.w3.org/2000/svg" xmlns:xlink="http://www.w3.org/1999/xlink" viewBox="0 0 1000 1000">
  <defs>
    <style>
      .cls-1 {
        fill: url(#linear-gradient-38);
      }

      .cls-1, .cls-2, .cls-3, .cls-4, .cls-5, .cls-6, .cls-7, .cls-8, .cls-9, .cls-10, .cls-11, .cls-12, .cls-13, .cls-14, .cls-15, .cls-16, .cls-17, .cls-18, .cls-19, .cls-20, .cls-21, .cls-22, .cls-23, .cls-24, .cls-25, .cls-26, .cls-27, .cls-28, .cls-29, .cls-30, .cls-31, .cls-32, .cls-33, .cls-34, .cls-35, .cls-36, .cls-37, .cls-38, .cls-39, .cls-40, .cls-41, .cls-42, .cls-43, .cls-44, .cls-45, .cls-46, .cls-47, .cls-48, .cls-49, .cls-50 {
        stroke-width: 0px;
      }

      .cls-2 {
        fill: url(#linear-gradient-12);
      }

      .cls-3 {
        fill: url(#linear-gradient-17);
      }

      .cls-4 {
        fill: url(#linear-gradient-19);
      }

      .cls-5 {
        fill: url(#linear-gradient-33);
      }

      .cls-6 {
        fill: url(#linear-gradient);
      }

      .cls-7 {
        fill: #323130;
      }

      .cls-8 {
        fill: url(#linear-gradient-21);
      }

      .cls-9 {
        fill: url(#linear-gradient-6);
      }

      .cls-10 {
        fill: url(#linear-gradient-42);
      }

      .cls-11 {
        fill: url(#linear-gradient-15);
      }

      .cls-12 {
        fill: url(#linear-gradient-11);
      }

      .cls-13 {
        fill: url(#linear-gradient-5);
      }

      .cls-14 {
        fill: url(#linear-gradient-31);
      }

      .cls-15 {
        fill: url(#linear-gradient-34);
      }

      .cls-16 {
        fill: url(#linear-gradient-41);
      }

      .cls-17 {
        fill: url(#linear-gradient-40);
      }

      .cls-18 {
        fill: url(#linear-gradient-13);
      }

      .cls-19 {
        fill: url(#linear-gradient-23);
      }

      .cls-20 {
        fill: url(#linear-gradient-25);
      }

      .cls-21 {
        fill: url(#linear-gradient-43);
      }

      .cls-22 {
        fill: url(#linear-gradient-16);
      }

      .cls-23 {
        fill: url(#linear-gradient-22);
      }

      .cls-24 {
        fill: url(#linear-gradient-35);
      }

      .cls-25 {
        fill: url(#linear-gradient-32);
      }

      .cls-26 {
        fill: url(#linear-gradient-20);
      }

      .cls-27 {
        fill: url(#linear-gradient-14);
      }

      .cls-28 {
        fill: url(#linear-gradient-2);
      }

      .cls-29 {
        fill: url(#linear-gradient-45);
      }

      .cls-30 {
        fill: url(#linear-gradient-7);
      }

      .cls-31 {
        fill: url(#linear-gradient-39);
      }

      .cls-32 {
        fill: url(#linear-gradient-3);
      }

      .cls-33 {
        fill: url(#linear-gradient-9);
      }

      .cls-34 {
        fill: url(#linear-gradient-27);
      }

      .cls-35 {
        fill: url(#linear-gradient-36);
      }

      .cls-36 {
        fill: url(#linear-gradient-48);
      }

      .cls-37 {
        fill: url(#linear-gradient-49);
      }

      .cls-38 {
        fill: url(#linear-gradient-8);
      }

      .cls-39 {
        fill: url(#linear-gradient-47);
      }

      .cls-40 {
        fill: url(#linear-gradient-24);
      }

      .cls-41 {
        fill: url(#linear-gradient-26);
      }

      .cls-42 {
        fill: url(#linear-gradient-18);
      }

      .cls-43 {
        fill: url(#linear-gradient-30);
      }

      .cls-44 {
        fill: url(#linear-gradient-44);
      }

      .cls-45 {
        fill: url(#linear-gradient-29);
      }

      .cls-46 {
        fill: url(#linear-gradient-46);
      }

      .cls-47 {
        fill: url(#linear-gradient-28);
      }

      .cls-48 {
        fill: url(#linear-gradient-10);
      }

      .cls-49 {
        fill: url(#linear-gradient-4);
      }

      .cls-50 {
        fill: url(#linear-gradient-37);
      }
    </style>
    <linearGradient id="linear-gradient" x1="393.42" y1="522.35" x2="767.77" y2="522.35" gradientUnits="userSpaceOnUse">
      <stop offset="0" stop-color="#b1a365"/>
      <stop offset=".33" stop-color="#b2a467"/>
      <stop offset=".49" stop-color="#b5a86e"/>
      <stop offset=".62" stop-color="#bbaf7b"/>
      <stop offset=".72" stop-color="#c4ba8e"/>
      <stop offset=".82" stop-color="#cfc7a6"/>
      <stop offset=".9" stop-color="#ddd8c4"/>
      <stop offset=".98" stop-color="#edebe7"/>
      <stop offset="1" stop-color="#f1f0f0"/>
    </linearGradient>
    <linearGradient id="linear-gradient-2" x1="465.88" y1="253.73" x2="697.82" y2="253.73" xlink:href="#linear-gradient"/>
    <linearGradient id="linear-gradient-3" x1="585.1" y1="672.73" x2="742.32" y2="672.73" xlink:href="#linear-gradient"/>
    <linearGradient id="linear-gradient-4" x1="270.6" y1="598.23" x2="415.43" y2="598.23" xlink:href="#linear-gradient"/>
    <linearGradient id="linear-gradient-5" x1="157.86" y1="519.02" x2="438.31" y2="519.02" xlink:href="#linear-gradient"/>
    <linearGradient id="linear-gradient-6" x1="521.86" y1="664.73" x2="652.53" y2="664.73" xlink:href="#linear-gradient"/>
    <linearGradient id="linear-gradient-7" x1="501.63" y1="234.86" x2="686.07" y2="234.86" xlink:href="#linear-gradient"/>
    <linearGradient id="linear-gradient-8" x1="631.16" y1="676.11" x2="717.36" y2="676.11" xlink:href="#linear-gradient"/>
    <linearGradient id="linear-gradient-9" x1="361.26" y1="609.57" x2="449.89" y2="609.57" xlink:href="#linear-gradient"/>
    <linearGradient id="linear-gradient-10" x1="299.36" y1="598.17" x2="377.04" y2="598.17" xlink:href="#linear-gradient"/>
    <linearGradient id="linear-gradient-11" x1="649.54" y1="586.1" x2="786.6" y2="586.1" xlink:href="#linear-gradient"/>
    <linearGradient id="linear-gradient-12" x1="250.05" y1="591.72" x2="291.82" y2="591.72" xlink:href="#linear-gradient"/>
    <linearGradient id="linear-gradient-13" x1="699.79" y1="273.14" x2="714.54" y2="273.14" xlink:href="#linear-gradient"/>
    <linearGradient id="linear-gradient-14" x1="523.15" y1="232.41" x2="697.01" y2="232.41" xlink:href="#linear-gradient"/>
    <linearGradient id="linear-gradient-15" x1="497.32" y1="276.68" x2="671.07" y2="276.68" xlink:href="#linear-gradient"/>
    <linearGradient id="linear-gradient-16" x1="420.04" y1="324.91" x2="717.01" y2="324.91" xlink:href="#linear-gradient"/>
    <linearGradient id="linear-gradient-17" x1="473.25" y1="655.3" x2="492.4" y2="655.3" xlink:href="#linear-gradient"/>
    <linearGradient id="linear-gradient-18" x1="465.88" y1="253.73" x2="697.82" y2="253.73" xlink:href="#linear-gradient"/>
    <linearGradient id="linear-gradient-19" x1="585.1" y1="672.73" x2="742.32" y2="672.73" xlink:href="#linear-gradient"/>
    <linearGradient id="linear-gradient-20" x1="270.6" y1="598.23" x2="415.43" y2="598.23" xlink:href="#linear-gradient"/>
    <linearGradient id="linear-gradient-21" x1="157.86" y1="519.02" x2="438.31" y2="519.02" xlink:href="#linear-gradient"/>
    <linearGradient id="linear-gradient-22" x1="521.86" y1="664.73" x2="652.53" y2="664.73" xlink:href="#linear-gradient"/>
    <linearGradient id="linear-gradient-23" x1="501.63" y1="234.86" x2="686.07" y2="234.86" xlink:href="#linear-gradient"/>
    <linearGradient id="linear-gradient-24" x1="631.16" y1="676.11" x2="717.36" y2="676.11" xlink:href="#linear-gradient"/>
    <linearGradient id="linear-gradient-25" x1="361.26" y1="609.57" x2="449.89" y2="609.57" xlink:href="#linear-gradient"/>
    <linearGradient id="linear-gradient-26" x1="299.36" y1="598.17" x2="377.04" y2="598.17" xlink:href="#linear-gradient"/>
    <linearGradient id="linear-gradient-27" x1="649.54" y1="586.1" x2="786.6" y2="586.1" xlink:href="#linear-gradient"/>
    <linearGradient id="linear-gradient-28" x1="250.05" y1="591.72" x2="291.82" y2="591.72" xlink:href="#linear-gradient"/>
    <linearGradient id="linear-gradient-29" x1="699.79" y1="273.14" x2="714.54" y2="273.14" xlink:href="#linear-gradient"/>
    <linearGradient id="linear-gradient-30" x1="523.15" y1="232.41" x2="697.01" y2="232.41" xlink:href="#linear-gradient"/>
    <linearGradient id="linear-gradient-31" x1="497.32" y1="276.68" x2="671.07" y2="276.68" xlink:href="#linear-gradient"/>
    <linearGradient id="linear-gradient-32" x1="420.04" y1="324.91" x2="717.01" y2="324.91" xlink:href="#linear-gradient"/>
    <linearGradient id="linear-gradient-33" x1="473.25" y1="655.3" x2="492.4" y2="655.3" xlink:href="#linear-gradient"/>
    <linearGradient id="linear-gradient-34" x1="465.88" y1="253.73" x2="697.82" y2="253.73" xlink:href="#linear-gradient"/>
    <linearGradient id="linear-gradient-35" x1="585.1" y1="672.73" x2="742.32" y2="672.73" xlink:href="#linear-gradient"/>
    <linearGradient id="linear-gradient-36" x1="270.6" y1="598.23" x2="415.43" y2="598.23" xlink:href="#linear-gradient"/>
    <linearGradient id="linear-gradient-37" x1="157.86" y1="519.02" x2="438.31" y2="519.02" xlink:href="#linear-gradient"/>
    <linearGradient id="linear-gradient-38" x1="521.86" y1="664.73" x2="652.53" y2="664.73" xlink:href="#linear-gradient"/>
    <linearGradient id="linear-gradient-39" x1="501.63" y1="234.86" x2="686.07" y2="234.86" xlink:href="#linear-gradient"/>
    <linearGradient id="linear-gradient-40" x1="631.16" y1="676.11" x2="717.36" y2="676.11" xlink:href="#linear-gradient"/>
    <linearGradient id="linear-gradient-41" x1="361.26" y1="609.57" x2="449.89" y2="609.57" xlink:href="#linear-gradient"/>
    <linearGradient id="linear-gradient-42" x1="299.36" y1="598.17" x2="377.04" y2="598.17" xlink:href="#linear-gradient"/>
    <linearGradient id="linear-gradient-43" x1="649.54" y1="586.1" x2="786.6" y2="586.1" xlink:href="#linear-gradient"/>
    <linearGradient id="linear-gradient-44" x1="250.05" y1="591.72" x2="291.82" y2="591.72" xlink:href="#linear-gradient"/>
    <linearGradient id="linear-gradient-45" x1="699.79" y1="273.14" x2="714.54" y2="273.14" xlink:href="#linear-gradient"/>
    <linearGradient id="linear-gradient-46" x1="523.15" y1="232.41" x2="697.01" y2="232.41" xlink:href="#linear-gradient"/>
    <linearGradient id="linear-gradient-47" x1="497.32" y1="276.68" x2="671.07" y2="276.68" xlink:href="#linear-gradient"/>
    <linearGradient id="linear-gradient-48" x1="420.04" y1="324.91" x2="717.01" y2="324.91" xlink:href="#linear-gradient"/>
    <linearGradient id="linear-gradient-49" x1="473.25" y1="655.3" x2="492.4" y2="655.3" xlink:href="#linear-gradient"/>
  </defs>
  <g id="Layer_1-2" data-name="Layer 1">
    <g>
      <circle class="cls-7" cx="500" cy="500" r="500"/>
      <g>
        <g>
          <path class="cls-6" d="M481.58,745.49c-.44,1.77-.88,3.54-1.33,5.32,2.14,5.76-.39,13.12,6.53,17.24,1.2,12.23,7.64,22.94,11.08,34.52-.97,1.61-.24,4.31-3.25,4.62-21.94-39.51-24.93-83.48-32.65-126.3-2.56-14.2-4.08-28.58-6.07-42.87.73-1.77.53-3.41-.8-4.88-.68-26.01-5.68-51.3-13.64-76.16-8.05-25.1-15.62-50.32-17.81-76.66.05-1.65.1-3.31.15-4.96,1.45-10.36,3.08-20.65,11.13-28.7,1.76-1.25,3.52-2.5,5.28-3.74,2.93-.6,4.44-2.32,4.56-5.16,2.69-2.42,3.45-5.6,3.85-8.92,4.62-11.5,6.12-23.51,6.42-35.71,1.35-1.44,1.56-3.07.93-4.85,4.09-8.05,1.77-14.01-4.63-20.67-13.42-13.97-14.94-32.16-4.7-48.21,4.13-6.47-1.64-7.63-4.51-9.72-15.4-11.24-29.83-23.39-40.35-39.05-4.92-7.33-12.28-14.94-5.8-24.52,6.61-9.77,17.34-9,27.75-8.04,11.46,1.05,21.83,6.8,33.48,7.09-5.33,2.98-11.21,2.03-16.92,2-8.23-.04-16.49-.82-24.69-.36-11.22.62-13.24,4.3-7.85,13.49,6.49,11.09,15.85,20,25.59,28.47,32.85,28.59,71.69,48.76,111.45,66.34,29.27,12.94,60.03,23.72,91.58,31.52,31.51,7.78,62.74,18.16,96.12,10.51,5.14.57,9.73-1.4,14.29-3.05,15.76-5.7,18.69-15.29,8.2-28.15-7.04-8.63-14.76-16.8-24.96-22.35,1.57-.86,3.13-1.72,4.7-2.58.55.43,1.17.62,1.88.55.36,1.56,1.33,2.26,3.03,1.95,9.59,6.77,18.1,14.61,24.04,24.51,7.58,12.63,4.62,22-8.46,29.35-9.38,5.26-19.95,6.52-30.33,8.44-1.78.18-3.56.36-5.34.54-3.23.14-6.46.28-9.69.42-3.44-1.22-7.76-2.65-10.02.32-2.63,3.44,2.17,5.88,3.7,8.75.7,1.31,2,2.32,3.03,3.46,2.54,11.55-6.59,15.91-14.54,20.63-4.27,2.54-9.82,4.44-9.62,9.72.43,11.48-6.55,18.85-13.92,26.36-3.44,3.51-5.34,7.86-6.27,12.6-1.36,6.91-4.89,12.41-11.64,15.74-5.83.09-11.66.18-17.49.27-3.27-.31-6.54-.62-9.82-.93-2.31-.38-4.62-.76-6.93-1.13q-13.22-3.29-10.45,8.96c5.63,25.11,2.59,49.96-3.85,74.38-14.34,54.36-34.46,106.87-57.49,158.41-1.55,3.47-2.47,7.55-6.81,9.65-4.6-4.36-2.37-9.64-1.62-14.22,5.56-34.06,1-67.89-1.81-101.79-.36-4.3-1.67-6.54-6.43-6.58-4.51-.04-9.02-.43-13.52-.66-2.06-.27-2.62.77-2.41,2.49-3.95,34.1-13.08,67.27-20.21,100.8-.55,2.61-.44,6.92-5.76,5.27,1.73-30.2,7.79-59.9,12.05-89.79,1.99-13.95,5.55-27.11-1.44-40.78-2.96-5.78-1.15-15.83-5.33-18.49-5.95-3.78-12.28,5.52-19.65,6.34-7.19.8-9.13,4.72-8.2,11.56,1.47,10.87,2.01,21.88,2.5,32.84,1.22,27.55,8.46,54.42,9.69,82.05.31,7.1-1.72,16.48,6,22.51ZM541.48,363.45c-29.64-14.17-59.67-27.61-88.67-45.77-1.07,13.98-2.8,25.82.22,37.86,3.19,12.75,16.8,17.15,23.95,27.15-9.68,1.61-9.86,1.61-9.94,7.87-.31,23.96-8.92,45.6-22.87,64.85-7.27,10.03-5.95,17.54-.17,26.7,32.14,50.96,109.2,55.91,149.7,34.95,4.7-2.43,5.95-5.23,5.35-10.37-.96-8.13-5.82-11.1-13.35-12.99-52.29-13.16-79.55-48.95-95.79-96.02,6.83,4.09,7.25,3.92,11.88,14.44,25.68,58.33,76.31,78.76,137.99,82.63,3.83.24,8.57.42,9.47-3.6,2.94-13.18,15.55-22.37,18.57-33.6,4.34-16.13,12.5-25.35,27.36-31.26,4.58-1.23,5.57-3.73,2.96-7.52-.52-2.26-1.04-4.52-1.56-6.77,4.15-5.27,1.79-6.9-4.07-6.56-9.44-2.87-19.39-2.19-29.08-4.16-39.59-8.05-77.02-22.19-114.86-35.24-1.94-1.91-3.87-3.86-7.1-2.59ZM438.57,497.6c6.3,32.16,17.73,62.86,24.18,95.99,4.22-3.14,6.73-5.11,9.36-6.93,18-12.47,35.5-25.51,50.59-41.19,4.53-4.71,7.72-8.71-3.05-10.11-31.04-4.03-58.6-15.18-81.08-37.75ZM601.44,534.48c0,1.44-.12-.52.02-2.47.67-9.28-.7-13.02-11.88-7.34-13.24,6.72-27.82,11.33-43.24,11.56-7.89.12-9.18,2.64-5.57,9.18,8.17,14.8,16.24,29.64,26.71,43.14,8.76,11.29,12.53,11.5,22.87,1.75,2.25-2.12,2.77-4.71,3.46-7.33,3.92-14.82,6.95-29.78,7.63-48.49ZM501.7,583.88c3.05,10.9,6.08,21.81,9.22,32.69.3,1.05,1.12,2.5,2.04,2.78,8.11,2.53,16.44,6.2,24.81,1.78,7.5-3.96,22.1-27.55,20.46-31.73-.28-.71-.88-1.3-1.32-1.96-6.96-10.54-14.05-21-20.8-31.66-2.48-3.92-4.8-5.21-8.21-1.27-7.57,8.75-15.69,16.99-24.77,24.36-1.63,1.32-2.53,3.02-1.44,5.02ZM588.24,600.03c-7.79,4.83-14.18,8.41-20.75.18-3.31-4.15-5.38.66-6.86,3.12-4.72,7.81-8.91,15.96-15.58,22.51-2.72,2.67-2.64,5.27-1.54,8.55,5.1,15.15,5.14,30.83,5.14,46.52,0,4.32-1.45,9.01,3.19,15.51,7.24-19.63,13.69-37.12,20.15-54.61-9.34,4.53-9.16,14.34-16.87,19.69.72-13.55-7.4-27.77,3.42-40.7,5.07,1.92-4.61,17.15,9.47,7.49,2.88-1.98,2.64,1.5,3,3.12.4,1.78-.16,4.19,3.01,4.04,2.48-.12,3.41-1.92,4.12-3.8,3.73-9.84,8.06-19.53,10.1-31.61Z"/>
          <path class="cls-28" d="M521.97,300.67c-15.84-11.54-33.38-20.98-47.25-34.97-5.18-5.23-9.9-10.44-8.62-18.31,8.34-20.41,17.05-40.69,24.91-61.27,7.4-19.39,20.27-30.92,42.98-30.22,2.38,1.6,4.97,1.72,7.68,1.01,4.07.36,8.14.71,12.22,1.07,2.29,1.73,4.86,1.92,7.59,1.29,3.24.38,6.48.75,9.72,1.13,1.48,1.44,3.23,1.62,5.15.99,4.86.52,9.72,1.04,14.58,1.56,1.51,1.41,3.28,1.56,5.2.99,2.41.4,4.82.79,7.23,1.19,1.41,1.52,3.16,1.81,5.14,1.28,20.2,5.01,40.4,10.03,59.55,18.16-.25.16-.49.32-.74.48.3.34.6.69.91,1.03-5.93-.21-11.85-.42-17.78-.63-38.95-8.29-78.24-14.61-118-18.23-13.04-1.19-22.16,3.58-27.85,14.94-10.28,20.5-19.15,41.55-28.02,62.62-3.2,7.59.66,11.83,5.38,16.38,17.83,17.18,39.39,29.46,60.91,41.77,38.05,21.77,79.3,35.32,122.84,42.8,10.64,1.83,21.66,1.32,32.14,4.41-17.02,2.2-33.74,2.07-50.86-1.24-27.07-5.24-52.09-15.94-78.13-23.85-9.26-5.97-19-11.07-29.51-14.78-5.23-4.11-11.01-7.29-17.35-9.58Z"/>
          <path class="cls-32" d="M664.81,616.65c.41-1.49.81-2.97,1.22-4.46,1.44-1.44,1.68-3.12,1.09-4.97.44-2.28.88-4.55,1.32-6.83,2.45-7.97,2.67-15.96.16-23.97.78-4.58,2.21-7.38,7.86-4.01,13.04,7.78,27.7,11.8,42.23,16.25,17.76,5.43,26.06,18.76,23.02,36.57-2.91,17.08-8.6,33.61-15.77,49.35-4.57,10.03-3.68,22.19-13.03,29.38-1.23-12.07,5.82-23.26,8.98-35.27,3.7-14.04,8.86-27.75,12.06-41.88,3.77-16.6-3.59-27.13-20.64-32.07-5.91-1.71-11.87-3.26-17.74-5.1-15.75-4.93-15.49-4.95-17.73,11.27-5.66,40.85-24.66,76.93-45.55,112.16-12.32,20.77-25.84,40.9-38.82,61.31-2.79.04-5.58.09-8.37.13,9.66-22.85,23.74-43.47,36.15-64.94,16.37-28.32,33.37-56.39,42.19-87.99,1.56-1.36,1.85-3.05,1.37-4.93Z"/>
          <path class="cls-49" d="M410.53,708.33c-14.65-29.08-29.3-58.17-43.95-87.25-.29-2.59-.82-5.08-3.09-6.86-3.24-8.63-6.47-17.25-9.71-25.88-6.88-26.96-15.7-53.66-12.2-82.03.7-5.71-2.99-5.26-7.09-4.29-7.98,1.9-15.94,4.02-24.02,5.4-29.41,5.01-29.43,4.91-14.86,30.43,8.69,29.7,15.52,59.64,11.48,90.92-2.67-16.8-4.93-33.67-8.09-50.38-4.33-22.85-10.95-45.01-26.07-63.91-4.99-6.24-1.21-8.27,4.51-9.27,14.56-2.53,29.16-4.82,43.75-7.21,6.07,1.47,11.55,1.51,14.15-5.34,6.16.07,10.58-5.95,17.98-4.43-12.07,54.35,12.85,101.18,33.53,148.9,9.24,21.33,21.09,41.67,26.75,64.34-.61,1.5.15,2.15,1.62,2.35.07,1.55.14,3.09.22,4.64-1.63-.04-3.26-.09-4.9-.14Z"/>
          <path class="cls-13" d="M301.17,484.03c-4.82.6-9.65,1.2-14.47,1.8-1.92-.6-3.69-.44-5.2.95-4.04.46-8.09.92-12.13,1.37-1.92-.6-3.69-.46-5.21.94-4.04.47-8.08.94-12.12,1.41-1.92-.6-3.69-.44-5.21.96-11.96-1.2-20.74,5.05-27.9,12.55-15.29,16.02-27.2,34.21-34.34,54.96-5.34,2.99-6.57,7.66-5.93,13.09-4.7,11.21-9.4,22.42-14.09,33.63-2.24.53-4.47,1.06-6.71,1.58,9.67-27.33,18.81-54.82,33.08-80.5,8.24-14.84,20.04-26.71,32.58-38,5.87-5.28,14.33-5.66,21.99-6.95,15.01-2.54,30.09-4.68,45.12-7.1,28.22-4.53,55.28-11.86,80-26.43,20.3-11.96,42.62-18.59,66.94-17.43,2.96,5.31-3.66,4.27-4.96,6.77-15.92,2.86-30.77,8.39-44.73,16.15-5.59,1.23-10.57,3.55-14.65,7.45-16.59,8.23-33.37,15.99-51.89,19.57-1.97-.49-3.73-.21-5.18,1.23-3.22.37-6.45.73-9.67,1.1-1.93-.6-3.72-.43-5.3.87Z"/>
          <path class="cls-9" d="M582.86,743.82c-18.28,23.79-35.57,48.28-56.26,70.32-1.58.08-3.16.17-4.74.25.58-6.75,6.34-10.39,10.09-15.25,30.58-39.69,59.65-80.38,84.07-123.79,13.48-23.97,21.95-49.73,22.73-77.3,1.95-10.32,2.13-20.64-.05-30.95-.4-18.62-6.99-35.51-16.03-51.71,4.07-1.42,6.8,2.49,10.53,2.41,1.4,1.69,2.79,3.38,4.19,5.07,2.58,4.82,5.16,9.65,7.73,14.47,16.14,49.89,4.26,96.25-19.65,141.1-2.4,4.51-4.77,9.04-7.16,13.56-4.76,1.56-6.44,5.11-6.8,9.5-1.34,1.73-2.68,3.45-4.01,5.18-1.97,1.87-4.17,3.62-3.53,6.72l-.21.38c-2.93,1.38-5.01,3.28-4.54,6.73l-.32.57c-3.12,1.14-5,3.09-4.68,6.48l-.29.51c-3.08,1.2-4.99,3.15-4.69,6.54l-.28.47c-4.31,1.48-5.26,5.07-6.08,8.74Z"/>
          <path class="cls-30" d="M669.07,206.21c-22.2-5.47-44.97-7.77-67.6-10.88-22.9-3.15-45.79-6.34-68.7-9.42-4.77-.64-8.4.26-10.66,5.37-3.96,8.96-9.15,17.43-13.27,26.34-3.29,7.12,3.89,9.86,7.98,12.31,21.57,12.88,43.56,25.06,66.67,35.44,18.54,8.33,37.7,14.76,57.24,20.46,4.04,1.18,9.2,1.04,11.38,5.9-1.34,3.1-4.35,2.51-6.27,1.87-26.24-8.79-53.06-16.42-78.39-27.19-20.43-8.69-39.72-20.2-57.78-33.17-8-5.75-10.01-12.63-6.08-21.62,19.3-44.1,11.4-36.65,54.99-33.39,29.57,2.21,58.81,7.16,87.67,14.03,8.93,2.13,16.5,8.97,26.59,6.96,4.41,2.05,8.83,4.1,13.24,6.15-1.15,1.14-2.31,2.28-3.46,3.41-4.51-.85-9.03-1.7-13.54-2.55Z"/>
          <path class="cls-38" d="M699.19,687.84c-2.33-12,2.27-22.14,4.86-32.67,2.43-9.9,4.75-19.83,7.01-29.77,1.87-8.24-2.87-11.15-10.6-12.24-8.86-1.25-6.43,5.46-7.18,9.19-8.61,42.95-27.52,81.68-52.93,117.76-2.57,3.64-6.11,6.66-8.55,9.27-1.75-5.44.41-10.94,3.48-16.8,12.49-23.83,24.69-47.8,36.39-71.98,7.78-16.07,13.46-32.88,13.98-50.82.18-6.35,2.49-7.92,9.26-6.46,23.43,5.04,25.09,7.58,20.27,37.18-.75,4.61-2.39,9.12-3.93,13.58-3.92,11.28-8.02,22.51-12.04,33.75Z"/>
          <path class="cls-33" d="M444.98,750.99c-22.01-52.75-44.06-105.48-66-158.26-8.98-21.59-15.59-43.76-17.35-67.07-1.61-21.26,1.86-41.35,14.24-59.56,4.08-.78,5.26,1.74,5.99,4.76-.39.78-.78,1.56-1.16,2.34-1.51.11-2.28.73-1.75,2.26-11.08,39.19-3.84,77.12,10.02,114.16,16.02,42.81,33.28,85.2,49.9,127.81,1.85,4.74,3.01,9.72,4.49,14.59-.58,1.54.2,2.14,1.71,2.24.3,1.61.6,3.23.9,4.84-.81,1.57.15,2.07,1.54,2.32.18.79.36,1.58.53,2.36-.45,1.55.35,2.29,1.85,2.57,0,2.27-.02,4.54-.03,6.81-1.63-.73-3.26-1.46-4.89-2.19Z"/>
          <path class="cls-48" d="M325.99,581.44v22.54c-9.86-23.03-7.15-49.32-23.69-70.02-5.33-8.01-3.62-12.63,6.9-13.3,3.26-.21,6.66-.49,9.69-1.53,9.31-3.19,11.82.37,12.97,9,2.66,20.05,5.22,40.25,13.92,59.06,2.02,9.71,6.01,18.76,10.43,27.65.89,2.21,1.78,4.42,2.68,6.63,6.17,18.89,16.3,36.61,18.15,56.91-20.79-26.23-31.07-57.02-42-87.51-.71-2.24-1.41-4.48-2.12-6.71-.16-.89-.32-1.78-.48-2.67-2.81-16.21-5.77-32.4-8.33-48.65-.81-5.13-3.29-6.76-8.33-5.71-3.05.64-6.51,2-4.32,5.27,10.09,15.02,7.34,33.34,14.53,49.04Z"/>
          <path class="cls-12" d="M662.94,531.41c23.75,14.23,48.48,26.79,73.75,38.35,8.97,4.1,16.44,10.13,24.15,15.83,20.34,15.05,24.14,36.75,25.75,59.24-1.63.04-3.27.09-4.9.13-2.13-22.59-10.71-42.07-29.97-56.43-.04-1.38-.49-2.3-2.21-1.74-20.33-9.11-40.71-18.11-60.98-27.36-12.99-5.93-24.07-14.64-35.52-22.78-1.08-3.59-8.53-8.67,2.45-9.42h.01c1.58,2.87,3.64,4.96,7.47,4.18Z"/>
          <path class="cls-2" d="M291.82,616.73c-.29,12.49-.58,24.98-.86,37.47-.29,1.65-.59,3.31-.88,4.96-2.61,5.36,1.23,13.14-6.82,16.46-.15-3.99-.3-7.97-.44-11.96,4.35-42.86-2.51-84.05-20.13-123.71-4.63-10.41-8.44-21.15-12.63-31.74,1.48-.13,2.96-.27,4.43-.4,23.42,24.68,29.35,55.66,34.65,86.87.98,5.75,1.69,11.53,2.53,17.3.05,1.58.11,3.17.16,4.75Z"/>
          <path class="cls-18" d="M710.28,348.16c-7.92-9.95-9.26-21.54-8.88-33.43.95-30.12,2.14-60.24,3.08-90.36.15-5,1.31-10.17-1.2-15.02.42-3.62-1.33-6.5-3.48-9.25.69-.56.83-1.22.41-1.99,11.97,3.11,10.79,13.04,11.02,21.17.91,32.13.98,64.29,1.52,96.43.09,5.44.93,10.87,1.42,16.3-.91,2.35-.7,4.64.39,6.89-1.66,2.99,2.63,8.45-4.27,9.25Z"/>
          <path class="cls-27" d="M693.92,222.63c5.91,14.3,2.59,28.18-3.6,42.19-.68-7.16-1.83-14.31-1.93-21.47-.12-9.53-4-14.75-14.33-17.18-42.42-9.98-85.09-18.69-128.19-25.52-6.02-.95-10.46-.59-12.23,6.08-1.65,6.23-5.95,12.15,2.38,17.53,11.19,7.23,22.87,13.42,35.18,18.71,17.24,7.42,34.33,15.16,51.47,22.81,2.53,1.13,5.34,2.21,4.35,7.39-19.03-8.17-37.7-15.77-55.95-24.19-11.92-5.5-24.3-10.04-35.55-17-13.25-8.21-16.75-26.72-6.09-37.47,2.11-2.13,4.62-3.21,7.74-2.74,49.45,7.49,99.26,13.21,147.49,26.75,3.12.88,6,2.52,8.99,3.81,0,0,.27.31.27.31Z"/>
          <path class="cls-11" d="M671.07,314.27c-25.77,10.69-148.23-44.24-173.75-76.48,7.84-.57,13.58,3.1,19.23,6.74,40.22,25.91,83.1,46.92,128.65,62.92,7.91,2.78,16.29,4.33,25.86,6.81Z"/>
          <path class="cls-22" d="M623.33,354.49c9.58,3.12,19.06,6.61,29.23,7.72,1.37,1.4,3.01,1.98,5.01,1.49,5.02,2.13,10.06,4.19,15.65,4.51.56,1.08,1.12,2.16,1.68,3.24-13.94.49-26.75-5.08-40.28-6.8-.83-1.54-2.11-1.87-3.73-1.23-9.14-2.75-18.28-5.5-27.42-8.25-3.46-2.67-7.43-3.94-11.86-4.01-4.51-2.08-11.02-7.44-13.61-1.95-3.36,7.11,5.54,7.3,10.56,8.94,4.4,3.05,9.39,4.53,14.77,4.93,7.29,3.73,15.1,6.04,23.18,7.57,6.91,5.76,15.44,6.62,24.05,7.22,21.67,6.3,43.63,11.08,66.44,11.35-7.36,6.81-16.9,4.13-24.5,2.83-53.67-9.17-105.36-24.59-154.58-47.19-40.7-18.69-79.2-40.3-109.85-72.67-3.01-3.18-6.6-6.06-7.76-10.45-.86-3.26.35-5.44,4.21-5.41,2.49.02,6.57-1.42,4.03,3.87-1.42,2.95,2.13,3.7,3.7,5.27,21.98,22.02,48.68,38.51,74,56.58,5.45,3.89,12.42,5.87,18.68,8.73,2.8,1.28,6.43,1.84,7.96-.5,1.68-2.56-.85-4.87-3.56-6.42-7.06-4.03-13.99-8.28-21.03-12.35-17.68-10.22-33.84-22.18-46.85-38.05,22.28,8.27,38.6,25.96,60.13,35.36,1.81,2.26,4.11,3.8,7.07,4.37,10.54,11.51,25.12,15.6,39.78,19.54,15.25,8.08,31.34,14.25,48.08,18.91,1.55,2.53,3.39,4.43,6.83,2.85ZM553.78,343.96c2.42,2.47,5.4,3.81,8.96,3.98,5.48,2.5,13.48,9.69,16.54,3.79,4.65-8.96-7.77-7.92-12.79-11.27-.62-.41-1.58-.36-2.38-.53-2.57-2.32-5.6-3.68-9.15-3.95-2.15-2.15-4.71-3.47-7.89-3.49-3.91-1.84-7.83-3.67-11.74-5.52-2.68-1.26-5.61-2.27-7.15,1.08-1.1,2.4.78,4.32,2.94,5.56,4.82,2.78,9.51,5.84,15.19,6.93,2.06,1.98,4.49,3.25,7.47,3.43Z"/>
          <path class="cls-3" d="M478.51,700.58c-1.85-24.28-8.12-48.32-3.73-73.36,6.5.88,4.3,7.08,8.66,8.73,4.2-7.75-2.74-15.81-.36-25.94,12.03,15.67,10.02,30.64,7.09,45.76-2.87,14.83-5.64,29.68-8.45,44.52-1.07.1-2.14.2-3.21.29Z"/>
        </g>
        <g>
          <path class="cls-6" d="M481.58,745.49c-.44,1.77-.88,3.54-1.33,5.32,2.14,5.76-.39,13.12,6.53,17.24,1.2,12.23,7.64,22.94,11.08,34.52-.97,1.61-.24,4.31-3.25,4.62-21.94-39.51-24.93-83.48-32.65-126.3-2.56-14.2-4.08-28.58-6.07-42.87.73-1.77.53-3.41-.8-4.88-.68-26.01-5.68-51.3-13.64-76.16-8.05-25.1-15.62-50.32-17.81-76.66.05-1.65.1-3.31.15-4.96,1.45-10.36,3.08-20.65,11.13-28.7,1.76-1.25,3.52-2.5,5.28-3.74,2.93-.6,4.44-2.32,4.56-5.16,2.69-2.42,3.45-5.6,3.85-8.92,4.62-11.5,6.12-23.51,6.42-35.71,1.35-1.44,1.56-3.07.93-4.85,4.09-8.05,1.77-14.01-4.63-20.67-13.42-13.97-14.94-32.16-4.7-48.21,4.13-6.47-1.64-7.63-4.51-9.72-15.4-11.24-29.83-23.39-40.35-39.05-4.92-7.33-12.28-14.94-5.8-24.52,6.61-9.77,17.34-9,27.75-8.04,11.46,1.05,21.83,6.8,33.48,7.09-5.33,2.98-11.21,2.03-16.92,2-8.23-.04-16.49-.82-24.69-.36-11.22.62-13.24,4.3-7.85,13.49,6.49,11.09,15.85,20,25.59,28.47,32.85,28.59,71.69,48.76,111.45,66.34,29.27,12.94,60.03,23.72,91.58,31.52,31.51,7.78,62.74,18.16,96.12,10.51,5.14.57,9.73-1.4,14.29-3.05,15.76-5.7,18.69-15.29,8.2-28.15-7.04-8.63-14.76-16.8-24.96-22.35,1.57-.86,3.13-1.72,4.7-2.58.55.43,1.17.62,1.88.55.36,1.56,1.33,2.26,3.03,1.95,9.59,6.77,18.1,14.61,24.04,24.51,7.58,12.63,4.62,22-8.46,29.35-9.38,5.26-19.95,6.52-30.33,8.44-1.78.18-3.56.36-5.34.54-3.23.14-6.46.28-9.69.42-3.44-1.22-7.76-2.65-10.02.32-2.63,3.44,2.17,5.88,3.7,8.75.7,1.31,2,2.32,3.03,3.46,2.54,11.55-6.59,15.91-14.54,20.63-4.27,2.54-9.82,4.44-9.62,9.72.43,11.48-6.55,18.85-13.92,26.36-3.44,3.51-5.34,7.86-6.27,12.6-1.36,6.91-4.89,12.41-11.64,15.74-5.83.09-11.66.18-17.49.27-3.27-.31-6.54-.62-9.82-.93-2.31-.38-4.62-.76-6.93-1.13q-13.22-3.29-10.45,8.96c5.63,25.11,2.59,49.96-3.85,74.38-14.34,54.36-34.46,106.87-57.49,158.41-1.55,3.47-2.47,7.55-6.81,9.65-4.6-4.36-2.37-9.64-1.62-14.22,5.56-34.06,1-67.89-1.81-101.79-.36-4.3-1.67-6.54-6.43-6.58-4.51-.04-9.02-.43-13.52-.66-2.06-.27-2.62.77-2.41,2.49-3.95,34.1-13.08,67.27-20.21,100.8-.55,2.61-.44,6.92-5.76,5.27,1.73-30.2,7.79-59.9,12.05-89.79,1.99-13.95,5.55-27.11-1.44-40.78-2.96-5.78-1.15-15.83-5.33-18.49-5.95-3.78-12.28,5.52-19.65,6.34-7.19.8-9.13,4.72-8.2,11.56,1.47,10.87,2.01,21.88,2.5,32.84,1.22,27.55,8.46,54.42,9.69,82.05.31,7.1-1.72,16.48,6,22.51ZM541.48,363.45c-29.64-14.17-59.67-27.61-88.67-45.77-1.07,13.98-2.8,25.82.22,37.86,3.19,12.75,16.8,17.15,23.95,27.15-9.68,1.61-9.86,1.61-9.94,7.87-.31,23.96-8.92,45.6-22.87,64.85-7.27,10.03-5.95,17.54-.17,26.7,32.14,50.96,109.2,55.91,149.7,34.95,4.7-2.43,5.95-5.23,5.35-10.37-.96-8.13-5.82-11.1-13.35-12.99-52.29-13.16-79.55-48.95-95.79-96.02,6.83,4.09,7.25,3.92,11.88,14.44,25.68,58.33,76.31,78.76,137.99,82.63,3.83.24,8.57.42,9.47-3.6,2.94-13.18,15.55-22.37,18.57-33.6,4.34-16.13,12.5-25.35,27.36-31.26,4.58-1.23,5.57-3.73,2.96-7.52-.52-2.26-1.04-4.52-1.56-6.77,4.15-5.27,1.79-6.9-4.07-6.56-9.44-2.87-19.39-2.19-29.08-4.16-39.59-8.05-77.02-22.19-114.86-35.24-1.94-1.91-3.87-3.86-7.1-2.59ZM438.57,497.6c6.3,32.16,17.73,62.86,24.18,95.99,4.22-3.14,6.73-5.11,9.36-6.93,18-12.47,35.5-25.51,50.59-41.19,4.53-4.71,7.72-8.71-3.05-10.11-31.04-4.03-58.6-15.18-81.08-37.75ZM601.44,534.48c0,1.44-.12-.52.02-2.47.67-9.28-.7-13.02-11.88-7.34-13.24,6.72-27.82,11.33-43.24,11.56-7.89.12-9.18,2.64-5.57,9.18,8.17,14.8,16.24,29.64,26.71,43.14,8.76,11.29,12.53,11.5,22.87,1.75,2.25-2.12,2.77-4.71,3.46-7.33,3.92-14.82,6.95-29.78,7.63-48.49ZM501.7,583.88c3.05,10.9,6.08,21.81,9.22,32.69.3,1.05,1.12,2.5,2.04,2.78,8.11,2.53,16.44,6.2,24.81,1.78,7.5-3.96,22.1-27.55,20.46-31.73-.28-.71-.88-1.3-1.32-1.96-6.96-10.54-14.05-21-20.8-31.66-2.48-3.92-4.8-5.21-8.21-1.27-7.57,8.75-15.69,16.99-24.77,24.36-1.63,1.32-2.53,3.02-1.44,5.02ZM588.24,600.03c-7.79,4.83-14.18,8.41-20.75.18-3.31-4.15-5.38.66-6.86,3.12-4.72,7.81-8.91,15.96-15.58,22.51-2.72,2.67-2.64,5.27-1.54,8.55,5.1,15.15,5.14,30.83,5.14,46.52,0,4.32-1.45,9.01,3.19,15.51,7.24-19.63,13.69-37.12,20.15-54.61-9.34,4.53-9.16,14.34-16.87,19.69.72-13.55-7.4-27.77,3.42-40.7,5.07,1.92-4.61,17.15,9.47,7.49,2.88-1.98,2.64,1.5,3,3.12.4,1.78-.16,4.19,3.01,4.04,2.48-.12,3.41-1.92,4.12-3.8,3.73-9.84,8.06-19.53,10.1-31.61Z"/>
          <path class="cls-42" d="M521.97,300.67c-15.84-11.54-33.38-20.98-47.25-34.97-5.18-5.23-9.9-10.44-8.62-18.31,8.34-20.41,17.05-40.69,24.91-61.27,7.4-19.39,20.27-30.92,42.98-30.22,2.38,1.6,4.97,1.72,7.68,1.01,4.07.36,8.14.71,12.22,1.07,2.29,1.73,4.86,1.92,7.59,1.29,3.24.38,6.48.75,9.72,1.13,1.48,1.44,3.23,1.62,5.15.99,4.86.52,9.72,1.04,14.58,1.56,1.51,1.41,3.28,1.56,5.2.99,2.41.4,4.82.79,7.23,1.19,1.41,1.52,3.16,1.81,5.14,1.28,20.2,5.01,40.4,10.03,59.55,18.16-.25.16-.49.32-.74.48.3.34.6.69.91,1.03-5.93-.21-11.85-.42-17.78-.63-38.95-8.29-78.24-14.61-118-18.23-13.04-1.19-22.16,3.58-27.85,14.94-10.28,20.5-19.15,41.55-28.02,62.62-3.2,7.59.66,11.83,5.38,16.38,17.83,17.18,39.39,29.46,60.91,41.77,38.05,21.77,79.3,35.32,122.84,42.8,10.64,1.83,21.66,1.32,32.14,4.41-17.02,2.2-33.74,2.07-50.86-1.24-27.07-5.24-52.09-15.94-78.13-23.85-9.26-5.97-19-11.07-29.51-14.78-5.23-4.11-11.01-7.29-17.35-9.58Z"/>
          <path class="cls-4" d="M664.81,616.65c.41-1.49.81-2.97,1.22-4.46,1.44-1.44,1.68-3.12,1.09-4.97.44-2.28.88-4.55,1.32-6.83,2.45-7.97,2.67-15.96.16-23.97.78-4.58,2.21-7.38,7.86-4.01,13.04,7.78,27.7,11.8,42.23,16.25,17.76,5.43,26.06,18.76,23.02,36.57-2.91,17.08-8.6,33.61-15.77,49.35-4.57,10.03-3.68,22.19-13.03,29.38-1.23-12.07,5.82-23.26,8.98-35.27,3.7-14.04,8.86-27.75,12.06-41.88,3.77-16.6-3.59-27.13-20.64-32.07-5.91-1.71-11.87-3.26-17.74-5.1-15.75-4.93-15.49-4.95-17.73,11.27-5.66,40.85-24.66,76.93-45.55,112.16-12.32,20.77-25.84,40.9-38.82,61.31-2.79.04-5.58.09-8.37.13,9.66-22.85,23.74-43.47,36.15-64.94,16.37-28.32,33.37-56.39,42.19-87.99,1.56-1.36,1.85-3.05,1.37-4.93Z"/>
          <path class="cls-26" d="M410.53,708.33c-14.65-29.08-29.3-58.17-43.95-87.25-.29-2.59-.82-5.08-3.09-6.86-3.24-8.63-6.47-17.25-9.71-25.88-6.88-26.96-15.7-53.66-12.2-82.03.7-5.71-2.99-5.26-7.09-4.29-7.98,1.9-15.94,4.02-24.02,5.4-29.41,5.01-29.43,4.91-14.86,30.43,8.69,29.7,15.52,59.64,11.48,90.92-2.67-16.8-4.93-33.67-8.09-50.38-4.33-22.85-10.95-45.01-26.07-63.91-4.99-6.24-1.21-8.27,4.51-9.27,14.56-2.53,29.16-4.82,43.75-7.21,6.07,1.47,11.55,1.51,14.15-5.34,6.16.07,10.58-5.95,17.98-4.43-12.07,54.35,12.85,101.18,33.53,148.9,9.24,21.33,21.09,41.67,26.75,64.34-.61,1.5.15,2.15,1.62,2.35.07,1.55.14,3.09.22,4.64-1.63-.04-3.26-.09-4.9-.14Z"/>
          <path class="cls-8" d="M301.17,484.03c-4.82.6-9.65,1.2-14.47,1.8-1.92-.6-3.69-.44-5.2.95-4.04.46-8.09.92-12.13,1.37-1.92-.6-3.69-.46-5.21.94-4.04.47-8.08.94-12.12,1.41-1.92-.6-3.69-.44-5.21.96-11.96-1.2-20.74,5.05-27.9,12.55-15.29,16.02-27.2,34.21-34.34,54.96-5.34,2.99-6.57,7.66-5.93,13.09-4.7,11.21-9.4,22.42-14.09,33.63-2.24.53-4.47,1.06-6.71,1.58,9.67-27.33,18.81-54.82,33.08-80.5,8.24-14.84,20.04-26.71,32.58-38,5.87-5.28,14.33-5.66,21.99-6.95,15.01-2.54,30.09-4.68,45.12-7.1,28.22-4.53,55.28-11.86,80-26.43,20.3-11.96,42.62-18.59,66.94-17.43,2.96,5.31-3.66,4.27-4.96,6.77-15.92,2.86-30.77,8.39-44.73,16.15-5.59,1.23-10.57,3.55-14.65,7.45-16.59,8.23-33.37,15.99-51.89,19.57-1.97-.49-3.73-.21-5.18,1.23-3.22.37-6.45.73-9.67,1.1-1.93-.6-3.72-.43-5.3.87Z"/>
          <path class="cls-23" d="M582.86,743.82c-18.28,23.79-35.57,48.28-56.26,70.32-1.58.08-3.16.17-4.74.25.58-6.75,6.34-10.39,10.09-15.25,30.58-39.69,59.65-80.38,84.07-123.79,13.48-23.97,21.95-49.73,22.73-77.3,1.95-10.32,2.13-20.64-.05-30.95-.4-18.62-6.99-35.51-16.03-51.71,4.07-1.42,6.8,2.49,10.53,2.41,1.4,1.69,2.79,3.38,4.19,5.07,2.58,4.82,5.16,9.65,7.73,14.47,16.14,49.89,4.26,96.25-19.65,141.1-2.4,4.51-4.77,9.04-7.16,13.56-4.76,1.56-6.44,5.11-6.8,9.5-1.34,1.73-2.68,3.45-4.01,5.18-1.97,1.87-4.17,3.62-3.53,6.72l-.21.38c-2.93,1.38-5.01,3.28-4.54,6.73l-.32.57c-3.12,1.14-5,3.09-4.68,6.48l-.29.51c-3.08,1.2-4.99,3.15-4.69,6.54l-.28.47c-4.31,1.48-5.26,5.07-6.08,8.74Z"/>
          <path class="cls-19" d="M669.07,206.21c-22.2-5.47-44.97-7.77-67.6-10.88-22.9-3.15-45.79-6.34-68.7-9.42-4.77-.64-8.4.26-10.66,5.37-3.96,8.96-9.15,17.43-13.27,26.34-3.29,7.12,3.89,9.86,7.98,12.31,21.57,12.88,43.56,25.06,66.67,35.44,18.54,8.33,37.7,14.76,57.24,20.46,4.04,1.18,9.2,1.04,11.38,5.9-1.34,3.1-4.35,2.51-6.27,1.87-26.24-8.79-53.06-16.42-78.39-27.19-20.43-8.69-39.72-20.2-57.78-33.17-8-5.75-10.01-12.63-6.08-21.62,19.3-44.1,11.4-36.65,54.99-33.39,29.57,2.21,58.81,7.16,87.67,14.03,8.93,2.13,16.5,8.97,26.59,6.96,4.41,2.05,8.83,4.1,13.24,6.15-1.15,1.14-2.31,2.28-3.46,3.41-4.51-.85-9.03-1.7-13.54-2.55Z"/>
          <path class="cls-40" d="M699.19,687.84c-2.33-12,2.27-22.14,4.86-32.67,2.43-9.9,4.75-19.83,7.01-29.77,1.87-8.24-2.87-11.15-10.6-12.24-8.86-1.25-6.43,5.46-7.18,9.19-8.61,42.95-27.52,81.68-52.93,117.76-2.57,3.64-6.11,6.66-8.55,9.27-1.75-5.44.41-10.94,3.48-16.8,12.49-23.83,24.69-47.8,36.39-71.98,7.78-16.07,13.46-32.88,13.98-50.82.18-6.35,2.49-7.92,9.26-6.46,23.43,5.04,25.09,7.58,20.27,37.18-.75,4.61-2.39,9.12-3.93,13.58-3.92,11.28-8.02,22.51-12.04,33.75Z"/>
          <path class="cls-20" d="M444.98,750.99c-22.01-52.75-44.06-105.48-66-158.26-8.98-21.59-15.59-43.76-17.35-67.07-1.61-21.26,1.86-41.35,14.24-59.56,4.08-.78,5.26,1.74,5.99,4.76-.39.78-.78,1.56-1.16,2.34-1.51.11-2.28.73-1.75,2.26-11.08,39.19-3.84,77.12,10.02,114.16,16.02,42.81,33.28,85.2,49.9,127.81,1.85,4.74,3.01,9.72,4.49,14.59-.58,1.54.2,2.14,1.71,2.24.3,1.61.6,3.23.9,4.84-.81,1.57.15,2.07,1.54,2.32.18.79.36,1.58.53,2.36-.45,1.55.35,2.29,1.85,2.57,0,2.27-.02,4.54-.03,6.81-1.63-.73-3.26-1.46-4.89-2.19Z"/>
          <path class="cls-41" d="M325.99,581.44v22.54c-9.86-23.03-7.15-49.32-23.69-70.02-5.33-8.01-3.62-12.63,6.9-13.3,3.26-.21,6.66-.49,9.69-1.53,9.31-3.19,11.82.37,12.97,9,2.66,20.05,5.22,40.25,13.92,59.06,2.02,9.71,6.01,18.76,10.43,27.65.89,2.21,1.78,4.42,2.68,6.63,6.17,18.89,16.3,36.61,18.15,56.91-20.79-26.23-31.07-57.02-42-87.51-.71-2.24-1.41-4.48-2.12-6.71-.16-.89-.32-1.78-.48-2.67-2.81-16.21-5.77-32.4-8.33-48.65-.81-5.13-3.29-6.76-8.33-5.71-3.05.64-6.51,2-4.32,5.27,10.09,15.02,7.34,33.34,14.53,49.04Z"/>
          <path class="cls-34" d="M662.94,531.41c23.75,14.23,48.48,26.79,73.75,38.35,8.97,4.1,16.44,10.13,24.15,15.83,20.34,15.05,24.14,36.75,25.75,59.24-1.63.04-3.27.09-4.9.13-2.13-22.59-10.71-42.07-29.97-56.43-.04-1.38-.49-2.3-2.21-1.74-20.33-9.11-40.71-18.11-60.98-27.36-12.99-5.93-24.07-14.64-35.52-22.78-1.08-3.59-8.53-8.67,2.45-9.42h.01c1.58,2.87,3.64,4.96,7.47,4.18Z"/>
          <path class="cls-47" d="M291.82,616.73c-.29,12.49-.58,24.98-.86,37.47-.29,1.65-.59,3.31-.88,4.96-2.61,5.36,1.23,13.14-6.82,16.46-.15-3.99-.3-7.97-.44-11.96,4.35-42.86-2.51-84.05-20.13-123.71-4.63-10.41-8.44-21.15-12.63-31.74,1.48-.13,2.96-.27,4.43-.4,23.42,24.68,29.35,55.66,34.65,86.87.98,5.75,1.69,11.53,2.53,17.3.05,1.58.11,3.17.16,4.75Z"/>
          <path class="cls-45" d="M710.28,348.16c-7.92-9.95-9.26-21.54-8.88-33.43.95-30.12,2.14-60.24,3.08-90.36.15-5,1.31-10.17-1.2-15.02.42-3.62-1.33-6.5-3.48-9.25.69-.56.83-1.22.41-1.99,11.97,3.11,10.79,13.04,11.02,21.17.91,32.13.98,64.29,1.52,96.43.09,5.44.93,10.87,1.42,16.3-.91,2.35-.7,4.64.39,6.89-1.66,2.99,2.63,8.45-4.27,9.25Z"/>
          <path class="cls-43" d="M693.92,222.63c5.91,14.3,2.59,28.18-3.6,42.19-.68-7.16-1.83-14.31-1.93-21.47-.12-9.53-4-14.75-14.33-17.18-42.42-9.98-85.09-18.69-128.19-25.52-6.02-.95-10.46-.59-12.23,6.08-1.65,6.23-5.95,12.15,2.38,17.53,11.19,7.23,22.87,13.42,35.18,18.71,17.24,7.42,34.33,15.16,51.47,22.81,2.53,1.13,5.34,2.21,4.35,7.39-19.03-8.17-37.7-15.77-55.95-24.19-11.92-5.5-24.3-10.04-35.55-17-13.25-8.21-16.75-26.72-6.09-37.47,2.11-2.13,4.62-3.21,7.74-2.74,49.45,7.49,99.26,13.21,147.49,26.75,3.12.88,6,2.52,8.99,3.81,0,0,.27.31.27.31Z"/>
          <path class="cls-14" d="M671.07,314.27c-25.77,10.69-148.23-44.24-173.75-76.48,7.84-.57,13.58,3.1,19.23,6.74,40.22,25.91,83.1,46.92,128.65,62.92,7.91,2.78,16.29,4.33,25.86,6.81Z"/>
          <path class="cls-25" d="M623.33,354.49c9.58,3.12,19.06,6.61,29.23,7.72,1.37,1.4,3.01,1.98,5.01,1.49,5.02,2.13,10.06,4.19,15.65,4.51.56,1.08,1.12,2.16,1.68,3.24-13.94.49-26.75-5.08-40.28-6.8-.83-1.54-2.11-1.87-3.73-1.23-9.14-2.75-18.28-5.5-27.42-8.25-3.46-2.67-7.43-3.94-11.86-4.01-4.51-2.08-11.02-7.44-13.61-1.95-3.36,7.11,5.54,7.3,10.56,8.94,4.4,3.05,9.39,4.53,14.77,4.93,7.29,3.73,15.1,6.04,23.18,7.57,6.91,5.76,15.44,6.62,24.05,7.22,21.67,6.3,43.63,11.08,66.44,11.35-7.36,6.81-16.9,4.13-24.5,2.83-53.67-9.17-105.36-24.59-154.58-47.19-40.7-18.69-79.2-40.3-109.85-72.67-3.01-3.18-6.6-6.06-7.76-10.45-.86-3.26.35-5.44,4.21-5.41,2.49.02,6.57-1.42,4.03,3.87-1.42,2.95,2.13,3.7,3.7,5.27,21.98,22.02,48.68,38.51,74,56.58,5.45,3.89,12.42,5.87,18.68,8.73,2.8,1.28,6.43,1.84,7.96-.5,1.68-2.56-.85-4.87-3.56-6.42-7.06-4.03-13.99-8.28-21.03-12.35-17.68-10.22-33.84-22.18-46.85-38.05,22.28,8.27,38.6,25.96,60.13,35.36,1.81,2.26,4.11,3.8,7.07,4.37,10.54,11.51,25.12,15.6,39.78,19.54,15.25,8.08,31.34,14.25,48.08,18.91,1.55,2.53,3.39,4.43,6.83,2.85ZM553.78,343.96c2.42,2.47,5.4,3.81,8.96,3.98,5.48,2.5,13.48,9.69,16.54,3.79,4.65-8.96-7.77-7.92-12.79-11.27-.62-.41-1.58-.36-2.38-.53-2.57-2.32-5.6-3.68-9.15-3.95-2.15-2.15-4.71-3.47-7.89-3.49-3.91-1.84-7.83-3.67-11.74-5.52-2.68-1.26-5.61-2.27-7.15,1.08-1.1,2.4.78,4.32,2.94,5.56,4.82,2.78,9.51,5.84,15.19,6.93,2.06,1.98,4.49,3.25,7.47,3.43Z"/>
          <path class="cls-5" d="M478.51,700.58c-1.85-24.28-8.12-48.32-3.73-73.36,6.5.88,4.3,7.08,8.66,8.73,4.2-7.75-2.74-15.81-.36-25.94,12.03,15.67,10.02,30.64,7.09,45.76-2.87,14.83-5.64,29.68-8.45,44.52-1.07.1-2.14.2-3.21.29Z"/>
        </g>
        <g>
          <path class="cls-6" d="M481.58,745.49c-.44,1.77-.88,3.54-1.33,5.32,2.14,5.76-.39,13.12,6.53,17.24,1.2,12.23,7.64,22.94,11.08,34.52-.97,1.61-.24,4.31-3.25,4.62-21.94-39.51-24.93-83.48-32.65-126.3-2.56-14.2-4.08-28.58-6.07-42.87.73-1.77.53-3.41-.8-4.88-.68-26.01-5.68-51.3-13.64-76.16-8.05-25.1-15.62-50.32-17.81-76.66.05-1.65.1-3.31.15-4.96,1.45-10.36,3.08-20.65,11.13-28.7,1.76-1.25,3.52-2.5,5.28-3.74,2.93-.6,4.44-2.32,4.56-5.16,2.69-2.42,3.45-5.6,3.85-8.92,4.62-11.5,6.12-23.51,6.42-35.71,1.35-1.44,1.56-3.07.93-4.85,4.09-8.05,1.77-14.01-4.63-20.67-13.42-13.97-14.94-32.16-4.7-48.21,4.13-6.47-1.64-7.63-4.51-9.72-15.4-11.24-29.83-23.39-40.35-39.05-4.92-7.33-12.28-14.94-5.8-24.52,6.61-9.77,17.34-9,27.75-8.04,11.46,1.05,21.83,6.8,33.48,7.09-5.33,2.98-11.21,2.03-16.92,2-8.23-.04-16.49-.82-24.69-.36-11.22.62-13.24,4.3-7.85,13.49,6.49,11.09,15.85,20,25.59,28.47,32.85,28.59,71.69,48.76,111.45,66.34,29.27,12.94,60.03,23.72,91.58,31.52,31.51,7.78,62.74,18.16,96.12,10.51,5.14.57,9.73-1.4,14.29-3.05,15.76-5.7,18.69-15.29,8.2-28.15-7.04-8.63-14.76-16.8-24.96-22.35,1.57-.86,3.13-1.72,4.7-2.58.55.43,1.17.62,1.88.55.36,1.56,1.33,2.26,3.03,1.95,9.59,6.77,18.1,14.61,24.04,24.51,7.58,12.63,4.62,22-8.46,29.35-9.38,5.26-19.95,6.52-30.33,8.44-1.78.18-3.56.36-5.34.54-3.23.14-6.46.28-9.69.42-3.44-1.22-7.76-2.65-10.02.32-2.63,3.44,2.17,5.88,3.7,8.75.7,1.31,2,2.32,3.03,3.46,2.54,11.55-6.59,15.91-14.54,20.63-4.27,2.54-9.82,4.44-9.62,9.72.43,11.48-6.55,18.85-13.92,26.36-3.44,3.51-5.34,7.86-6.27,12.6-1.36,6.91-4.89,12.41-11.64,15.74-5.83.09-11.66.18-17.49.27-3.27-.31-6.54-.62-9.82-.93-2.31-.38-4.62-.76-6.93-1.13q-13.22-3.29-10.45,8.96c5.63,25.11,2.59,49.96-3.85,74.38-14.34,54.36-34.46,106.87-57.49,158.41-1.55,3.47-2.47,7.55-6.81,9.65-4.6-4.36-2.37-9.64-1.62-14.22,5.56-34.06,1-67.89-1.81-101.79-.36-4.3-1.67-6.54-6.43-6.58-4.51-.04-9.02-.43-13.52-.66-2.06-.27-2.62.77-2.41,2.49-3.95,34.1-13.08,67.27-20.21,100.8-.55,2.61-.44,6.92-5.76,5.27,1.73-30.2,7.79-59.9,12.05-89.79,1.99-13.95,5.55-27.11-1.44-40.78-2.96-5.78-1.15-15.83-5.33-18.49-5.95-3.78-12.28,5.52-19.65,6.34-7.19.8-9.13,4.72-8.2,11.56,1.47,10.87,2.01,21.88,2.5,32.84,1.22,27.55,8.46,54.42,9.69,82.05.31,7.1-1.72,16.48,6,22.51ZM541.48,363.45c-29.64-14.17-59.67-27.61-88.67-45.77-1.07,13.98-2.8,25.82.22,37.86,3.19,12.75,16.8,17.15,23.95,27.15-9.68,1.61-9.86,1.61-9.94,7.87-.31,23.96-8.92,45.6-22.87,64.85-7.27,10.03-5.95,17.54-.17,26.7,32.14,50.96,109.2,55.91,149.7,34.95,4.7-2.43,5.95-5.23,5.35-10.37-.96-8.13-5.82-11.1-13.35-12.99-52.29-13.16-79.55-48.95-95.79-96.02,6.83,4.09,7.25,3.92,11.88,14.44,25.68,58.33,76.31,78.76,137.99,82.63,3.83.24,8.57.42,9.47-3.6,2.94-13.18,15.55-22.37,18.57-33.6,4.34-16.13,12.5-25.35,27.36-31.26,4.58-1.23,5.57-3.73,2.96-7.52-.52-2.26-1.04-4.52-1.56-6.77,4.15-5.27,1.79-6.9-4.07-6.56-9.44-2.87-19.39-2.19-29.08-4.16-39.59-8.05-77.02-22.19-114.86-35.24-1.94-1.91-3.87-3.86-7.1-2.59ZM438.57,497.6c6.3,32.16,17.73,62.86,24.18,95.99,4.22-3.14,6.73-5.11,9.36-6.93,18-12.47,35.5-25.51,50.59-41.19,4.53-4.71,7.72-8.71-3.05-10.11-31.04-4.03-58.6-15.18-81.08-37.75ZM601.44,534.48c0,1.44-.12-.52.02-2.47.67-9.28-.7-13.02-11.88-7.34-13.24,6.72-27.82,11.33-43.24,11.56-7.89.12-9.18,2.64-5.57,9.18,8.17,14.8,16.24,29.64,26.71,43.14,8.76,11.29,12.53,11.5,22.87,1.75,2.25-2.12,2.77-4.71,3.46-7.33,3.92-14.82,6.95-29.78,7.63-48.49ZM501.7,583.88c3.05,10.9,6.08,21.81,9.22,32.69.3,1.05,1.12,2.5,2.04,2.78,8.11,2.53,16.44,6.2,24.81,1.78,7.5-3.96,22.1-27.55,20.46-31.73-.28-.71-.88-1.3-1.32-1.96-6.96-10.54-14.05-21-20.8-31.66-2.48-3.92-4.8-5.21-8.21-1.27-7.57,8.75-15.69,16.99-24.77,24.36-1.63,1.32-2.53,3.02-1.44,5.02ZM588.24,600.03c-7.79,4.83-14.18,8.41-20.75.18-3.31-4.15-5.38.66-6.86,3.12-4.72,7.81-8.91,15.96-15.58,22.51-2.72,2.67-2.64,5.27-1.54,8.55,5.1,15.15,5.14,30.83,5.14,46.52,0,4.32-1.45,9.01,3.19,15.51,7.24-19.63,13.69-37.12,20.15-54.61-9.34,4.53-9.16,14.34-16.87,19.69.72-13.55-7.4-27.77,3.42-40.7,5.07,1.92-4.61,17.15,9.47,7.49,2.88-1.98,2.64,1.5,3,3.12.4,1.78-.16,4.19,3.01,4.04,2.48-.12,3.41-1.92,4.12-3.8,3.73-9.84,8.06-19.53,10.1-31.61Z"/>
          <path class="cls-15" d="M521.97,300.67c-15.84-11.54-33.38-20.98-47.25-34.97-5.18-5.23-9.9-10.44-8.62-18.31,8.34-20.41,17.05-40.69,24.91-61.27,7.4-19.39,20.27-30.92,42.98-30.22,2.38,1.6,4.97,1.72,7.68,1.01,4.07.36,8.14.71,12.22,1.07,2.29,1.73,4.86,1.92,7.59,1.29,3.24.38,6.48.75,9.72,1.13,1.48,1.44,3.23,1.62,5.15.99,4.86.52,9.72,1.04,14.58,1.56,1.51,1.41,3.28,1.56,5.2.99,2.41.4,4.82.79,7.23,1.19,1.41,1.52,3.16,1.81,5.14,1.28,20.2,5.01,40.4,10.03,59.55,18.16-.25.16-.49.32-.74.48.3.34.6.69.91,1.03-5.93-.21-11.85-.42-17.78-.63-38.95-8.29-78.24-14.61-118-18.23-13.04-1.19-22.16,3.58-27.85,14.94-10.28,20.5-19.15,41.55-28.02,62.62-3.2,7.59.66,11.83,5.38,16.38,17.83,17.18,39.39,29.46,60.91,41.77,38.05,21.77,79.3,35.32,122.84,42.8,10.64,1.83,21.66,1.32,32.14,4.41-17.02,2.2-33.74,2.07-50.86-1.24-27.07-5.24-52.09-15.94-78.13-23.85-9.26-5.97-19-11.07-29.51-14.78-5.23-4.11-11.01-7.29-17.35-9.58Z"/>
          <path class="cls-24" d="M664.81,616.65c.41-1.49.81-2.97,1.22-4.46,1.44-1.44,1.68-3.12,1.09-4.97.44-2.28.88-4.55,1.32-6.83,2.45-7.97,2.67-15.96.16-23.97.78-4.58,2.21-7.38,7.86-4.01,13.04,7.78,27.7,11.8,42.23,16.25,17.76,5.43,26.06,18.76,23.02,36.57-2.91,17.08-8.6,33.61-15.77,49.35-4.57,10.03-3.68,22.19-13.03,29.38-1.23-12.07,5.82-23.26,8.98-35.27,3.7-14.04,8.86-27.75,12.06-41.88,3.77-16.6-3.59-27.13-20.64-32.07-5.91-1.71-11.87-3.26-17.74-5.1-15.75-4.93-15.49-4.95-17.73,11.27-5.66,40.85-24.66,76.93-45.55,112.16-12.32,20.77-25.84,40.9-38.82,61.31-2.79.04-5.58.09-8.37.13,9.66-22.85,23.74-43.47,36.15-64.94,16.37-28.32,33.37-56.39,42.19-87.99,1.56-1.36,1.85-3.05,1.37-4.93Z"/>
          <path class="cls-35" d="M410.53,708.33c-14.65-29.08-29.3-58.17-43.95-87.25-.29-2.59-.82-5.08-3.09-6.86-3.24-8.63-6.47-17.25-9.71-25.88-6.88-26.96-15.7-53.66-12.2-82.03.7-5.71-2.99-5.26-7.09-4.29-7.98,1.9-15.94,4.02-24.02,5.4-29.41,5.01-29.43,4.91-14.86,30.43,8.69,29.7,15.52,59.64,11.48,90.92-2.67-16.8-4.93-33.67-8.09-50.38-4.33-22.85-10.95-45.01-26.07-63.91-4.99-6.24-1.21-8.27,4.51-9.27,14.56-2.53,29.16-4.82,43.75-7.21,6.07,1.47,11.55,1.51,14.15-5.34,6.16.07,10.58-5.95,17.98-4.43-12.07,54.35,12.85,101.18,33.53,148.9,9.24,21.33,21.09,41.67,26.75,64.34-.61,1.5.15,2.15,1.62,2.35.07,1.55.14,3.09.22,4.64-1.63-.04-3.26-.09-4.9-.14Z"/>
          <path class="cls-50" d="M301.17,484.03c-4.82.6-9.65,1.2-14.47,1.8-1.92-.6-3.69-.44-5.2.95-4.04.46-8.09.92-12.13,1.37-1.92-.6-3.69-.46-5.21.94-4.04.47-8.08.94-12.12,1.41-1.92-.6-3.69-.44-5.21.96-11.96-1.2-20.74,5.05-27.9,12.55-15.29,16.02-27.2,34.21-34.34,54.96-5.34,2.99-6.57,7.66-5.93,13.09-4.7,11.21-9.4,22.42-14.09,33.63-2.24.53-4.47,1.06-6.71,1.58,9.67-27.33,18.81-54.82,33.08-80.5,8.24-14.84,20.04-26.71,32.58-38,5.87-5.28,14.33-5.66,21.99-6.95,15.01-2.54,30.09-4.68,45.12-7.1,28.22-4.53,55.28-11.86,80-26.43,20.3-11.96,42.62-18.59,66.94-17.43,2.96,5.31-3.66,4.27-4.96,6.77-15.92,2.86-30.77,8.39-44.73,16.15-5.59,1.23-10.57,3.55-14.65,7.45-16.59,8.23-33.37,15.99-51.89,19.57-1.97-.49-3.73-.21-5.18,1.23-3.22.37-6.45.73-9.67,1.1-1.93-.6-3.72-.43-5.3.87Z"/>
          <path class="cls-1" d="M582.86,743.82c-18.28,23.79-35.57,48.28-56.26,70.32-1.58.08-3.16.17-4.74.25.58-6.75,6.34-10.39,10.09-15.25,30.58-39.69,59.65-80.38,84.07-123.79,13.48-23.97,21.95-49.73,22.73-77.3,1.95-10.32,2.13-20.64-.05-30.95-.4-18.62-6.99-35.51-16.03-51.71,4.07-1.42,6.8,2.49,10.53,2.41,1.4,1.69,2.79,3.38,4.19,5.07,2.58,4.82,5.16,9.65,7.73,14.47,16.14,49.89,4.26,96.25-19.65,141.1-2.4,4.51-4.77,9.04-7.16,13.56-4.76,1.56-6.44,5.11-6.8,9.5-1.34,1.73-2.68,3.45-4.01,5.18-1.97,1.87-4.17,3.62-3.53,6.72l-.21.38c-2.93,1.38-5.01,3.28-4.54,6.73l-.32.57c-3.12,1.14-5,3.09-4.68,6.48l-.29.51c-3.08,1.2-4.99,3.15-4.69,6.54l-.28.47c-4.31,1.48-5.26,5.07-6.08,8.74Z"/>
          <path class="cls-31" d="M669.07,206.21c-22.2-5.47-44.97-7.77-67.6-10.88-22.9-3.15-45.79-6.34-68.7-9.42-4.77-.64-8.4.26-10.66,5.37-3.96,8.96-9.15,17.43-13.27,26.34-3.29,7.12,3.89,9.86,7.98,12.31,21.57,12.88,43.56,25.06,66.67,35.44,18.54,8.33,37.7,14.76,57.24,20.46,4.04,1.18,9.2,1.04,11.38,5.9-1.34,3.1-4.35,2.51-6.27,1.87-26.24-8.79-53.06-16.42-78.39-27.19-20.43-8.69-39.72-20.2-57.78-33.17-8-5.75-10.01-12.63-6.08-21.62,19.3-44.1,11.4-36.65,54.99-33.39,29.57,2.21,58.81,7.16,87.67,14.03,8.93,2.13,16.5,8.97,26.59,6.96,4.41,2.05,8.83,4.1,13.24,6.15-1.15,1.14-2.31,2.28-3.46,3.41-4.51-.85-9.03-1.7-13.54-2.55Z"/>
          <path class="cls-17" d="M699.19,687.84c-2.33-12,2.27-22.14,4.86-32.67,2.43-9.9,4.75-19.83,7.01-29.77,1.87-8.24-2.87-11.15-10.6-12.24-8.86-1.25-6.43,5.46-7.18,9.19-8.61,42.95-27.52,81.68-52.93,117.76-2.57,3.64-6.11,6.66-8.55,9.27-1.75-5.44.41-10.94,3.48-16.8,12.49-23.83,24.69-47.8,36.39-71.98,7.78-16.07,13.46-32.88,13.98-50.82.18-6.35,2.49-7.92,9.26-6.46,23.43,5.04,25.09,7.58,20.27,37.18-.75,4.61-2.39,9.12-3.93,13.58-3.92,11.28-8.02,22.51-12.04,33.75Z"/>
          <path class="cls-16" d="M444.98,750.99c-22.01-52.75-44.06-105.48-66-158.26-8.98-21.59-15.59-43.76-17.35-67.07-1.61-21.26,1.86-41.35,14.24-59.56,4.08-.78,5.26,1.74,5.99,4.76-.39.78-.78,1.56-1.16,2.34-1.51.11-2.28.73-1.75,2.26-11.08,39.19-3.84,77.12,10.02,114.16,16.02,42.81,33.28,85.2,49.9,127.81,1.85,4.74,3.01,9.72,4.49,14.59-.58,1.54.2,2.14,1.71,2.24.3,1.61.6,3.23.9,4.84-.81,1.57.15,2.07,1.54,2.32.18.79.36,1.58.53,2.36-.45,1.55.35,2.29,1.85,2.57,0,2.27-.02,4.54-.03,6.81-1.63-.73-3.26-1.46-4.89-2.19Z"/>
          <path class="cls-10" d="M325.99,581.44v22.54c-9.86-23.03-7.15-49.32-23.69-70.02-5.33-8.01-3.62-12.63,6.9-13.3,3.26-.21,6.66-.49,9.69-1.53,9.31-3.19,11.82.37,12.97,9,2.66,20.05,5.22,40.25,13.92,59.06,2.02,9.71,6.01,18.76,10.43,27.65.89,2.21,1.78,4.42,2.68,6.63,6.17,18.89,16.3,36.61,18.15,56.91-20.79-26.23-31.07-57.02-42-87.51-.71-2.24-1.41-4.48-2.12-6.71-.16-.89-.32-1.78-.48-2.67-2.81-16.21-5.77-32.4-8.33-48.65-.81-5.13-3.29-6.76-8.33-5.71-3.05.64-6.51,2-4.32,5.27,10.09,15.02,7.34,33.34,14.53,49.04Z"/>
          <path class="cls-21" d="M662.94,531.41c23.75,14.23,48.48,26.79,73.75,38.35,8.97,4.1,16.44,10.13,24.15,15.83,20.34,15.05,24.14,36.75,25.75,59.24-1.63.04-3.27.09-4.9.13-2.13-22.59-10.71-42.07-29.97-56.43-.04-1.38-.49-2.3-2.21-1.74-20.33-9.11-40.71-18.11-60.98-27.36-12.99-5.93-24.07-14.64-35.52-22.78-1.08-3.59-8.53-8.67,2.45-9.42h.01c1.58,2.87,3.64,4.96,7.47,4.18Z"/>
          <path class="cls-44" d="M291.82,616.73c-.29,12.49-.58,24.98-.86,37.47-.29,1.65-.59,3.31-.88,4.96-2.61,5.36,1.23,13.14-6.82,16.46-.15-3.99-.3-7.97-.44-11.96,4.35-42.86-2.51-84.05-20.13-123.71-4.63-10.41-8.44-21.15-12.63-31.74,1.48-.13,2.96-.27,4.43-.4,23.42,24.68,29.35,55.66,34.65,86.87.98,5.75,1.69,11.53,2.53,17.3.05,1.58.11,3.17.16,4.75Z"/>
          <path class="cls-29" d="M710.28,348.16c-7.92-9.95-9.26-21.54-8.88-33.43.95-30.12,2.14-60.24,3.08-90.36.15-5,1.31-10.17-1.2-15.02.42-3.62-1.33-6.5-3.48-9.25.69-.56.83-1.22.41-1.99,11.97,3.11,10.79,13.04,11.02,21.17.91,32.13.98,64.29,1.52,96.43.09,5.44.93,10.87,1.42,16.3-.91,2.35-.7,4.64.39,6.89-1.66,2.99,2.63,8.45-4.27,9.25Z"/>
          <path class="cls-46" d="M693.92,222.63c5.91,14.3,2.59,28.18-3.6,42.19-.68-7.16-1.83-14.31-1.93-21.47-.12-9.53-4-14.75-14.33-17.18-42.42-9.98-85.09-18.69-128.19-25.52-6.02-.95-10.46-.59-12.23,6.08-1.65,6.23-5.95,12.15,2.38,17.53,11.19,7.23,22.87,13.42,35.18,18.71,17.24,7.42,34.33,15.16,51.47,22.81,2.53,1.13,5.34,2.21,4.35,7.39-19.03-8.17-37.7-15.77-55.95-24.19-11.92-5.5-24.3-10.04-35.55-17-13.25-8.21-16.75-26.72-6.09-37.47,2.11-2.13,4.62-3.21,7.74-2.74,49.45,7.49,99.26,13.21,147.49,26.75,3.12.88,6,2.52,8.99,3.81,0,0,.27.31.27.31Z"/>
          <path class="cls-39" d="M671.07,314.27c-25.77,10.69-148.23-44.24-173.75-76.48,7.84-.57,13.58,3.1,19.23,6.74,40.22,25.91,83.1,46.92,128.65,62.92,7.91,2.78,16.29,4.33,25.86,6.81Z"/>
          <path class="cls-36" d="M623.33,354.49c9.58,3.12,19.06,6.61,29.23,7.72,1.37,1.4,3.01,1.98,5.01,1.49,5.02,2.13,10.06,4.19,15.65,4.51.56,1.08,1.12,2.16,1.68,3.24-13.94.49-26.75-5.08-40.28-6.8-.83-1.54-2.11-1.87-3.73-1.23-9.14-2.75-18.28-5.5-27.42-8.25-3.46-2.67-7.43-3.94-11.86-4.01-4.51-2.08-11.02-7.44-13.61-1.95-3.36,7.11,5.54,7.3,10.56,8.94,4.4,3.05,9.39,4.53,14.77,4.93,7.29,3.73,15.1,6.04,23.18,7.57,6.91,5.76,15.44,6.62,24.05,7.22,21.67,6.3,43.63,11.08,66.44,11.35-7.36,6.81-16.9,4.13-24.5,2.83-53.67-9.17-105.36-24.59-154.58-47.19-40.7-18.69-79.2-40.3-109.85-72.67-3.01-3.18-6.6-6.06-7.76-10.45-.86-3.26.35-5.44,4.21-5.41,2.49.02,6.57-1.42,4.03,3.87-1.42,2.95,2.13,3.7,3.7,5.27,21.98,22.02,48.68,38.51,74,56.58,5.45,3.89,12.42,5.87,18.68,8.73,2.8,1.28,6.43,1.84,7.96-.5,1.68-2.56-.85-4.87-3.56-6.42-7.06-4.03-13.99-8.28-21.03-12.35-17.68-10.22-33.84-22.18-46.85-38.05,22.28,8.27,38.6,25.96,60.13,35.36,1.81,2.26,4.11,3.8,7.07,4.37,10.54,11.51,25.12,15.6,39.78,19.54,15.25,8.08,31.34,14.25,48.08,18.91,1.55,2.53,3.39,4.43,6.83,2.85ZM553.78,343.96c2.42,2.47,5.4,3.81,8.96,3.98,5.48,2.5,13.48,9.69,16.54,3.79,4.65-8.96-7.77-7.92-12.79-11.27-.62-.41-1.58-.36-2.38-.53-2.57-2.32-5.6-3.68-9.15-3.95-2.15-2.15-4.71-3.47-7.89-3.49-3.91-1.84-7.83-3.67-11.74-5.52-2.68-1.26-5.61-2.27-7.15,1.08-1.1,2.4.78,4.32,2.94,5.56,4.82,2.78,9.51,5.84,15.19,6.93,2.06,1.98,4.49,3.25,7.47,3.43Z"/>
          <path class="cls-37" d="M478.51,700.58c-1.85-24.28-8.12-48.32-3.73-73.36,6.5.88,4.3,7.08,8.66,8.73,4.2-7.75-2.74-15.81-.36-25.94,12.03,15.67,10.02,30.64,7.09,45.76-2.87,14.83-5.64,29.68-8.45,44.52-1.07.1-2.14.2-3.21.29Z"/>
        </g>
      </g>
    </g>
  </g>
</svg>