<?xml version="1.0" encoding="UTF-8"?>
<svg id="Layer_2" data-name="Layer 2" xmlns="http://www.w3.org/2000/svg" xmlns:xlink="http://www.w3.org/1999/xlink" viewBox="0 0 1000 1000">
  <defs>
    <style>
      .cls-1 {
        fill: url(#linear-gradient-12);
      }

      .cls-1, .cls-2, .cls-3, .cls-4, .cls-5, .cls-6, .cls-7, .cls-8, .cls-9, .cls-10, .cls-11, .cls-12, .cls-13, .cls-14, .cls-15, .cls-16, .cls-17, .cls-18, .cls-19, .cls-20, .cls-21, .cls-22, .cls-23, .cls-24, .cls-25, .cls-26, .cls-27, .cls-28, .cls-29, .cls-30, .cls-31, .cls-32 {
        stroke-width: 0px;
      }

      .cls-2 {
        fill: url(#linear-gradient-17);
      }

      .cls-3 {
        fill: url(#linear-gradient-19);
      }

      .cls-4 {
        fill: url(#linear-gradient);
      }

      .cls-5 {
        fill: url(#linear-gradient-21);
      }

      .cls-6 {
        fill: url(#linear-gradient-6);
      }

      .cls-7 {
        fill: url(#linear-gradient-15);
      }

      .cls-8 {
        fill: url(#linear-gradient-11);
      }

      .cls-9 {
        fill: url(#linear-gradient-5);
      }

      .cls-10 {
        fill: none;
      }

      .cls-11 {
        fill: url(#linear-gradient-13);
      }

      .cls-12 {
        fill: url(#linear-gradient-23);
      }

      .cls-13 {
        fill: url(#linear-gradient-25);
      }

      .cls-14 {
        fill: url(#linear-gradient-16);
      }

      .cls-15 {
        fill: url(#linear-gradient-22);
      }

      .cls-16 {
        fill: #010101;
      }

      .cls-17 {
        fill: url(#linear-gradient-20);
      }

      .cls-18 {
        fill: url(#linear-gradient-14);
      }

      .cls-19 {
        fill: url(#linear-gradient-2);
      }

      .cls-20 {
        fill: url(#linear-gradient-7);
      }

      .cls-21 {
        fill: url(#linear-gradient-3);
      }

      .cls-22 {
        fill: url(#linear-gradient-9);
      }

      .cls-23 {
        fill: url(#linear-gradient-27);
      }

      .cls-24 {
        fill: url(#linear-gradient-8);
      }

      .cls-25 {
        fill: url(#linear-gradient-24);
      }

      .cls-26 {
        fill: url(#linear-gradient-26);
      }

      .cls-27 {
        fill: url(#linear-gradient-18);
      }

      .cls-28 {
        fill: #fff;
      }

      .cls-29 {
        fill: url(#linear-gradient-29);
      }

      .cls-30 {
        fill: url(#linear-gradient-28);
      }

      .cls-31 {
        fill: url(#linear-gradient-10);
      }

      .cls-32 {
        fill: url(#linear-gradient-4);
      }
    </style>
    <linearGradient id="linear-gradient" x1="21108.08" y1="10039.09" x2="21108.08" y2="9039.09" gradientTransform="translate(21461.03 10039.09) rotate(-180)" gradientUnits="userSpaceOnUse">
      <stop offset=".48" stop-color="#fdb515"/>
      <stop offset=".5" stop-color="#f99618"/>
      <stop offset=".53" stop-color="#f6761b"/>
      <stop offset=".57" stop-color="#f35b1e"/>
      <stop offset=".61" stop-color="#f14520"/>
      <stop offset=".65" stop-color="#ef3422"/>
      <stop offset=".71" stop-color="#ed2824"/>
      <stop offset=".78" stop-color="#ed2124"/>
      <stop offset="1" stop-color="#ed2025"/>
    </linearGradient>
    <linearGradient id="linear-gradient-2" x1="20857.34" y1="10039.09" x2="20857.34" y2="9039.09" xlink:href="#linear-gradient"/>
    <linearGradient id="linear-gradient-3" x1="21084.2" y1="10039.09" x2="21084.2" y2="9039.09" xlink:href="#linear-gradient"/>
    <linearGradient id="linear-gradient-4" x1="21134.57" y1="9730.85" x2="21134.57" y2="9550.64" xlink:href="#linear-gradient"/>
    <linearGradient id="linear-gradient-5" x1="21095.31" y1="10039.09" x2="21095.31" y2="9039.09" xlink:href="#linear-gradient"/>
    <linearGradient id="linear-gradient-6" x1="21024.24" y1="10039.09" x2="21024.24" y2="9039.09" xlink:href="#linear-gradient"/>
    <linearGradient id="linear-gradient-7" x1="21086.03" y1="10039.09" x2="21086.03" y2="9039.09" xlink:href="#linear-gradient"/>
    <linearGradient id="linear-gradient-8" x1="21106.1" y1="10039.09" x2="21106.1" y2="9039.09" xlink:href="#linear-gradient"/>
    <linearGradient id="linear-gradient-9" x1="21102.25" y1="9712.52" x2="21102.25" y2="9591.73" xlink:href="#linear-gradient"/>
    <linearGradient id="linear-gradient-10" x1="21101.17" y1="9678.06" x2="21101.17" y2="9625.46" xlink:href="#linear-gradient"/>
    <linearGradient id="linear-gradient-11" x1="20963.31" y1="10039.09" x2="20963.31" y2="9039.09" xlink:href="#linear-gradient"/>
    <linearGradient id="linear-gradient-12" x1="21350.79" y1="10039.09" x2="21350.79" y2="9039.09" xlink:href="#linear-gradient"/>
    <linearGradient id="linear-gradient-13" x1="21197.28" y1="10039.09" x2="21197.28" y2="9039.09" xlink:href="#linear-gradient"/>
    <linearGradient id="linear-gradient-14" x1="21216.1" y1="9582.13" x2="21216.1" y2="9369.77" xlink:href="#linear-gradient"/>
    <linearGradient id="linear-gradient-15" x1="21215.12" y1="10039.09" x2="21215.12" y2="9039.09" xlink:href="#linear-gradient"/>
    <linearGradient id="linear-gradient-16" x1="20954.04" y1="10039.09" x2="20954.04" y2="9039.09" xlink:href="#linear-gradient"/>
    <linearGradient id="linear-gradient-17" x1="21215.08" y1="10039.09" x2="21215.08" y2="9039.09" xlink:href="#linear-gradient"/>
    <linearGradient id="linear-gradient-18" x1="21213.7" y1="10039.09" x2="21213.7" y2="9619.24" xlink:href="#linear-gradient"/>
    <linearGradient id="linear-gradient-19" x1="21203.16" y1="10039.09" x2="21203.16" y2="9039.09" xlink:href="#linear-gradient"/>
    <linearGradient id="linear-gradient-20" x1="21182.73" y1="10039.09" x2="21182.73" y2="9039.09" xlink:href="#linear-gradient"/>
    <linearGradient id="linear-gradient-21" x1="21234.88" y1="10039.09" x2="21234.88" y2="9039.09" xlink:href="#linear-gradient"/>
    <linearGradient id="linear-gradient-22" x1="21304.28" y1="10039.09" x2="21304.28" y2="9039.09" xlink:href="#linear-gradient"/>
    <linearGradient id="linear-gradient-23" x1="21138.65" y1="10039.09" x2="21138.65" y2="9533.52" xlink:href="#linear-gradient"/>
    <linearGradient id="linear-gradient-24" x1="21169.45" y1="9637.29" x2="21169.45" y2="9591.5" xlink:href="#linear-gradient"/>
    <linearGradient id="linear-gradient-25" x1="21137.06" y1="10039.09" x2="21137.06" y2="9039.09" xlink:href="#linear-gradient"/>
    <linearGradient id="linear-gradient-26" x1="21169.33" y1="10039.09" x2="21169.33" y2="9039.09" xlink:href="#linear-gradient"/>
    <linearGradient id="linear-gradient-27" x1="21214.78" y1="10039.09" x2="21214.78" y2="9039.09" xlink:href="#linear-gradient"/>
    <linearGradient id="linear-gradient-28" x1="21215.24" y1="10039.09" x2="21215.24" y2="9100.03" xlink:href="#linear-gradient"/>
    <linearGradient id="linear-gradient-29" x1="21202.91" y1="10039.09" x2="21202.91" y2="9077.89" xlink:href="#linear-gradient"/>
  </defs>
  <g id="Layer_1-2" data-name="Layer 1">
    <g>
      <path class="cls-10" d="M13.98,617.88h0c52.99,219.25,250.48,382.12,486.02,382.12h0c-235.54,0-433.03-162.86-486.02-382.12Z"/>
      <path class="cls-10" d="M500,0h0C232.78,0,14.52,209.63.7,473.42h0C14.52,209.63,232.78,0,500,0Z"/>
      <path class="cls-4" d="M353.01,345.88s-.09-.08-.13-.12c.02.06.02.14.04.2.03-.03.06-.05.1-.08Z"/>
      <path class="cls-19" d="M603.47,538.61c.14.02.29.03.44.04-.04-.06-.04-.18-.07-.26-.12.09-.26.11-.37.22Z"/>
      <path class="cls-21" d="M376.54,638.77c.18.12.36.23.56.32-.13-.14-.26-.27-.39-.41-.06.03-.11.06-.17.09Z"/>
      <path class="cls-32" d="M326.47,398.37s0-.01,0-.02c0,0,0,0-.01,0,0,0,0,0,.01.01Z"/>
      <path class="cls-9" d="M337.4,422.16s.08.01.12.03c.37-.43.75-.85.92-1.41.14-1.23.04-2.76,1.45-3.17,1.54-.45,3.34-.81,4.67.51.49.49.42,1.55.61,2.36-.05.88.46,1.43,1.13,1.88l-.04-.05c.16.24.41.38.58.6.19-.03.37-.02.56-.05,3.45.31,6.85.09,10.18-.96.16.01.33-.01.49,0,.27-.33.58-.64.7-1.07.14-1.23.05-2.76,1.48-3.15,1.54-.42,3.35-.81,4.66.55.49.51.42,1.56.6,2.36,0,.59.42.92.78,1.29,0,0,.02,0,.03,0,3.83,1.08,7.7,1.09,11.6.39.08.04.15.04.23.08.44-.43.85-.87.96-1.51.89-3.33.9-3.34,3.35-3.36,2.53-.02,2.57.02,3.39,3.24.03.6.44.97.83,1.34.1-.01.19-.05.29-.06,4.29,1.7,8.31.7,12.25-1.22.11,0,.17.09.27.1,0-.31.03-.6.25-.84.07-.4.13-.81.2-1.21-.19-.18-.48-.25-.6-.52.43-2.15,2.21-2.64,3.93-3.2,0,0,0,0,0-.01-.66,0-1.22-.22-1.65-.74-.31-7.82-1.58-15.64-.88-23.45-5.14,0-10.28,0-15.42-.01-.8.1-1.6.2-2.4.3-.38.18-.75.49-1.14.52-8.44.61-16.88.59-25.32.12-.03.02-.02.04-.05.06-1.25.55-2.57.72-3.92.8-8.1-.25-16.22.76-24.3-.54h-.05c.26.13.51.29.71.63,1.65,9.74,1.77,19.47.32,29.2,2.53,1.02,5.25,1.16,8.22.18Z"/>
      <path class="cls-6" d="M436.59,341.1s.1.09.15.14c.08-.2.17-.4.25-.59,0,0-.4.45-.4.45h0Z"/>
      <path class="cls-20" d="M375.15,387.18c-.05-.13-.21-.19-.24-.33-.03.02-.05.05-.08.07.1.09.21.18.31.27Z"/>
      <path class="cls-24" d="M355.1,384.38c-.14-.14-.19-.33-.32-.47-.03.17.05.34-.01.52.11-.01.22-.03.33-.04Z"/>
      <path class="cls-22" d="M358.78,386.97s0,0,0,0c0,0,0,0,0,.02,0,0,0,0,.01-.01Z"/>
      <polygon class="cls-31" points="359.86 387.33 359.85 387.33 359.85 387.34 359.86 387.33"/>
      <path class="cls-8" d="M.7,473.42c69.13.58,138.27.65,207.4,1.14,1.06,0,2.13-.11,3.17.03,5.35.7,9.5-1.19,12.5-5.68.11-1.36.36-2.68,1.37-3.71.1-1.16.2-2.32.3-3.49,0-2.07-.14-4.15.02-6.2.18-2.25.92-2.88,3.14-2.98,1-.05,2-.05,3-.04.02-1.05.06-2.11.15-3.16-1.69-.31-3.44-.45-5.13-.78-.79-.46-.98-1.21-.97-2.05.04-3.04.03-6.09.76-9.07-.1-.34-.25-.67-.29-1.02-.01-.11.25-.26.38-.39.22-.89.85-1.21,1.69-1.2,1.16.02,2.31.07,3.47.11,1.3-.43,2.61-.87,3.91-1.3.81-.53,1.62-1.06,2.43-1.59,2.49-1.82,5.27-.77,7.94-.81,5.38-.07,10.77-.13,16.15-.2.83-1.79,2.8-1.58,4.18-2.42,1.35-1.93,2.94-3.62,4.98-4.84l.26-.27c.16-.52.5-.87,1-1.06.45-.43.89-.86,1.34-1.28l.19-.2c.18-.52.51-.88,1.02-1.09,1.89-3.32,4.9-3.04,7.96-2.44.97.19.88,1.2.99,1.98.74.73,1.21,1.61,1.31,2.66.67.1,1.06.48,1.21,1.14.75,0,1.5-.01,2.26-.02.1-2.02.21-4.05.31-6.07,0-.87.01-1.74.03-2.61-.04-8.01-.07-16.02-.1-24.02-3.12-.11-6.25.1-9.37,0-1.4-.05-2.43.55-3.26,1.62-.13.17-.26.34-.4.49q-6.34,6.79-15.12,7.33c-.21.96-.53,1.83-1.62,2.12-.53.8-1.36.88-2.2.9-3.79.07-7.58.27-11.36.14-2.25-.08-4.67-.13-6.18-2.4-.65-.97-1.72-1.08-2.81-1.07-1.47.02-2.95-.01-4.42-.02-17.27-.06-34.53-.12-51.8-.16-2.53,0-5.06.15-7.37-1.19-3.93,1.72-7.82,2.11-11.65-.29-.78-.46-1.19-1.17-1.22-2.06-.05-1.48-.08-2.96-.09-4.43-1.55-.16-3.09-.67-4.61-1.63-.78-.46-1.19-1.17-1.22-2.06-.06-1.9-.11-3.8-.1-5.7.08-15.21.17-30.42.27-45.62,0-1.43-.33-3.02,1.33-3.9l.1-.11h0c.11-.18.17-.47.32-.52,3.75-1.39,7.48-1.67,11.16.27.34-.02.68,0,1.01.07,1.47-1.72,3.48-1.17,5.31-1.17,9.45-.01,18.91.04,28.36.07,8.83.03,17.65.06,26.48.08,2.08,0,4.23.28,6.01-1.24.4-.81,1.05-1.24,1.94-1.33,5.18-.52,10.36-.37,15.54-.09,1.68.09,2.67.94,3.06,2.56.41.08.82.27,1.22.24,6.32-.48,10.63,2.62,13.81,7.76,1.09.59,1.94,1.68,3.32,1.66,4.81-.07,9.66.71,14.43-.54.42-.81,1.11-1.33,2-1.32,10.37.03,20.74.08,31.11.2.49,0,.98.67,1.47,1.03,5.14,1.7,10.42.74,15.64.81,3.13.04,6.27-.51,9.41-.8,0-.15,0-.29,0-.44-.69-.1-1.21-.52-1.46-1.25-.89-2.27-1.17-4.56-1.17-6.86-1.01.03-2.02.05-3.02.03-.83-.01-1.44-.47-1.73-1.3-1.94-4.92-.99-9.96-.56-14.95.11-1.34,1.21-2.21,2.58-2.44.83-.14,1.68-.17,2.52-.17,10.78.02,21.55.03,32.32.09,1.25,0,2.52.15,3.74.41.88.18,1.34.95,1.47,1.85.49,2.13.76,4.01.83,5.88,1.21.02,2.44.16,3.62.4.88.18,1.34.95,1.47,1.85,1.1,4.76,1.13,8.24.12,13.17,0,0,0,0,0,.01.27.34.22.64-.14.88-.07.42-.15.85-.23,1.27-.2.99-.9,1.38-1.8,1.38-1.47,0-2.94-.07-4.42-.12-.32.33-.63.65-.95.98.03,0,.06,0,.09.01,6.78.63,13.57.6,20.37.31.36-.24.73-.49,1.09-.73.45-.79,1.17-1.16,2.05-1.15,10.39.1,20.79-.39,31.18.38.84-.17,1.24.31,1.5,1.01,1.8.66,3.68.62,5.56.62,3.13,0,6.26,0,9.38.03,6.44.09,12.89.31,19.16-1.59h.02c1.03-1.18,2.33-1.48,3.81-1.25.27-.24.57-.33.93-.26h0c.73-1.03,1.76-1.17,2.9-.96.29-.23.63-.31.99-.25.72-.99,1.71-1.18,2.83-.96,13.01-4.36,26.29-7.63,39.8-9.93,1.86-.32,3.78-.36,5.67-.36,16.44.03,32.89.09,49.33.17,1.04,0,2.08.26,3.11.4.88-.03,1.76-.06,2.64-.09,1.94-.29,3.95-.97,5.56.88,1.37,1.16,1.04,2.6.67,4.05,0,.42,0,.84,0,1.27.02.62.05,1.25.07,1.87,1.82-.3,3.67-.79,5.18.94,1.37,1.16,1.04,2.6.67,4.05,0,.42,0,.85,0,1.27.24,6.4.61,12.8-.08,19.2.26,14.91.4,29.81-.18,44.71.17,1.9-.95,2.78-2.59,2.81-2.49.04-4.99-.19-7.49-.31-2.1.12-4.2.35-6.3.35-12.48,0-24.97-.27-37.45-.04-10.04.19-19.81-1.17-29.46-3.78-9.58-2.58-19.27-4.79-28.53-8.48-1.12.14-2.13-.05-2.87-1.01l-.52.08-.41-.32s0,0,0,0c0,0,0,0,0,0-1.15.13-2.2-.03-2.97-1.02l-.47.09-.35-.32c-5.03-1.72-10.25-1.47-15.45-1.48-4.39,0-8.78.17-13.15-.11-2.75-.18-4.3,1.04-5.57,3.15.3,2.03.4,4.05-.14,6.06.49,2.13.45,4.26-.03,6.39.49,2.98.48,5.96-.03,8.94.16.83.25,1.66.3,2.49,1.55-.74,3.17-.58,4.69.5.33.24.21,1.12.3,1.71.28.3.38.65.3,1.05.8.92,1.6,1.84,2.4,2.76,3.65,1.81,7,1.21,10.11-1.28.63-.43,1.1-.96,1.1-1.78.84-3.21.88-3.24,3.43-3.2q2.43.05,3.31,3.42c.16.69.59,1.19,1.07,1.67l.02.03c3.11,2.62,6.49,2.91,10.11,1.2h0c.58-.26.92-.76,1.26-1.26,0,0,0,0-.01,0l.04-.06s-.02.03-.03.05c.66-.43,1.17-.97,1.12-1.84.86-3.15.92-3.2,3.47-3.14q2.4.06,3.27,3.46c.19.65.62,1.15,1.07,1.63l.04.05c3.12,2.58,6.49,2.89,10.1,1.16,0,0,0,0,0,0,.57-.27.93-.75,1.25-1.28.1-1.05.63-1.88,1.33-2.62.15-.59.1-1.46.47-1.72,1.45-.99,3.15-.86,4.69-.3,1.35.5,1.26,1.95,1.39,3.16.21.63.63,1.12,1.05,1.62l.05.07c3.12,2.58,6.5,2.83,10.09,1.11,0,0,0,0,.01,0,.59-.25.95-.73,1.24-1.27.11-1.05.62-1.9,1.33-2.65.16-.58.13-1.46.51-1.7,1.46-.94,3.16-.86,4.69-.25,1.33.52,1.22,1.98,1.35,3.19.23.61.66,1.08,1.05,1.58,0,0,.07.09.07.09h0c3.15,2.6,6.54,2.81,10.12,1,.86-1.26,1.72-2.51,2.59-3.77-.11-.42,0-.79.29-1.11,1.11-2.27,3.08-1.33,4.61-.99,1.64.36,1.53,2.07,1.59,3.47.81.89,1.62,1.79,2.43,2.68,2.95,1.47,5.87,1.14,8.77-.16,0,0,.01,0,.02,0,.62-.22.98-.7,1.23-1.28.12-1.07.58-1.96,1.34-2.71.17-.58.17-1.46.55-1.67,1.48-.84,3.17-.83,4.67-.15,1.24.57,1.22,2,1.34,3.22.29.54.7,1,1.01,1.53l.13.16c3.18,2.54,6.56,2.7,10.11.87.86-1.26,1.72-2.53,2.57-3.79.12-.75-.07-1.76.94-1.96,1.51-.31,3.1-.78,4.41.59,1.11.66,1.15,1.74,1.12,2.86.4.51.81,1.02,1.21,1.52.49.26.87.63,1.16,1.1l.1.06c2.96,1.43,5.86,1.06,8.75-.22.01,0,.02,0,.04,0,.73-.22,1.07-.79,1.32-1.45-.04-.42.12-.75.47-.99.22-.56.72-.99.78-1.63.19-.56.22-1.46.59-1.63,1.49-.72,3.17-.82,4.63,0,1.13.63,1.23,2,1.34,3.23,3.06,3.79,6.76,4.72,11.16,2.54.01,0,.03,0,.04,0,.75-.2,1.1-.78,1.33-1.47-.04-.41.11-.73.45-.96.25-.57.78-1.01.79-1.69.2-.56.25-1.45.61-1.62,1.51-.66,3.18-.8,4.62.06,1.1.66,1.24,2.01,1.33,3.24,3.07,3.75,6.76,4.7,11.14,2.49.02,0,.03,0,.05,0,.79-.19,1.14-.78,1.34-1.51-.05-.4.09-.7.43-.91.32-.56.81-1.05.81-1.76.21-.55.29-1.44.66-1.58,1.51-.6,3.19-.8,4.6.12,1.04.68,1.22,2.02,1.32,3.25,3.14,3.74,6.83,4.85,11.25,2.31.14-.65.52-1.05,1.19-1.14.15-1.09.5-2.1,1.36-2.86.19-.55.27-1.5.57-1.57,1.64-.4,3.41-1.18,4.8.6.93.7,1.14,1.69,1.11,2.78l.02.05c.53.67,1.06,1.35,1.59,2.02,3.92,2.44,7.53,1.77,10.92-1.11-.03-.4.12-.72.45-.94.37-.56.87-1.06.81-1.81.21-.54.33-1.47.65-1.54,1.64-.35,3.41-1.15,4.8.63.91.71,1.15,1.69,1.11,2.78l.02.05c.46.42.89.88,1.39,1.27,3.9,3.02,5.31,3.12,9.57.67.54-.31,1.03-.7,1.54-1.05-.03-.39.12-.7.45-.92.61-.76.35-1.88,1.07-2.59,2.11-1.54,2.9-1.55,5.19-.08.86.7,1.16,1.63,1.09,2.7.32.19.45.47.41.83.5.36,1.01.71,1.5,1.09,3.02,2.34,6.06,2.33,9.11.07.5-.36,1-.71,1.51-1.07-.03-.38.12-.68.44-.89.65-.76.4-1.89,1.08-2.63,2.18-1.51,2.97-1.51,5.19-.01.83.7,1.16,1.6,1.08,2.67.32.2.46.49.41.86.5.36,1.01.71,1.5,1.08,3.03,2.3,6.06,2.33,9.11.03.49-.37,1.01-.71,1.51-1.07-.04-.37.11-.66.42-.86-.07-1.07.26-1.98,1.1-2.68,2.26-1.48,3.05-1.47,5.19.07.69.74.43,1.87,1.07,2.63.32.21.46.51.42.9.51.36.99.75,1.52,1.07,4.22,2.49,5.66,2.41,9.58-.57.5-.38.93-.83,1.4-1.25l.03-.07c-.04-1.09.23-2.05,1.12-2.75,2.89-1.65,4.18-1.43,5.43.89-.08.77.43,1.29.81,1.85.32.22.47.53.43.93.51.36,1,.75,1.53,1.06,4.26,2.48,5.66,2.38,9.58-.63.49-.38.93-.83,1.39-1.25.35-1.63.43-3.48,2.64-3.77,3.71-.48,4.67,0,6.49,3.17-.02.82.44,1.37,1.01,1.85h0c1.5,1.99,3.36,2.73,5.95,2.72,17.17-.06,34.33.09,51.5.15,47.37.17,94.75.33,142.13.5-2.88-19.78-6.92-39.19-12.05-58.15-1.08-3.97-2.2-7.93-3.37-11.86-6.44-21.64-14.3-42.67-23.48-62.97-1.67-3.69-3.38-7.36-5.14-11-.88-1.82-1.77-3.64-2.67-5.45-1.8-3.62-3.64-7.21-5.52-10.78-1.88-3.57-3.81-7.11-5.77-10.63-1.97-3.52-3.97-7.01-6.02-10.47-1.02-1.73-2.06-3.46-3.1-5.17-5.22-8.59-10.69-17.01-16.4-25.25-8-11.54-16.47-22.72-25.38-33.53-12.74-15.43-26.38-30.09-40.85-43.89-2.89-2.76-5.82-5.48-8.78-8.17-5.92-5.38-11.97-10.62-18.14-15.72-1.54-1.27-3.09-2.54-4.65-3.79C727.66,41.33,618.66,0,500,0,232.78,0,14.52,209.63.7,473.42Z"/>
      <path class="cls-1" d="M72.91,618.47c.93.77,1.84,1.57,2.76,2.37,1.13.44,2.27.85,3.46,1.1,4.63,1.93,9.02,4.37,13.9,5.76,9.18,2.61,18.16,2.75,27-1.25,1.53-.69,3.07-1.37,4.81-1.24.33.14.37.3.63.44,5.39-4.67,9.44-10.38,13.08-16.48,3.81-6.36,7.76-12.63,11.89-18.78,4.42-6.59,6.58-13.68,5.71-21.63-.09-.83.04-1.69.07-2.53-.26-.32-.28-.66-.07-1.02-1.46-3.89-2.95-7.77-4.78-11.49-.19-.19-.37-.38-.56-.57-11.15-11.58-24.46-17.64-40.74-16.15-.83.08-1.67,0-2.51-.02-5.37,1.35-10.34,3.61-15.01,6.58-1.63,1.71-3.26,3.42-4.89,5.14-1.05,2.31-2.23,4.53-4.13,6.28-.32,1.62-1.14,2.91-2.45,3.89-.84,2.41-2.18,4.51-3.98,6.31-.32,1.6-1.14,2.88-2.43,3.87-.86,2.42-2.21,4.52-4.02,6.32-.35,1.58-1.15,2.87-2.42,3.86-.45,1.93-1.37,3.6-2.68,5.07.03,1.43-.26,2.75-1.25,3.84-.05.41-.11.83-.16,1.24.04,4.62.07,9.24.11,13.87,1.24,3.36,2.49,6.71,3.73,10.07,1.48,1.86,3.08,3.62,4.94,5.17Z"/>
      <path class="cls-11" d="M263.6,566.76c.1.07.2.14.3.22l-.24-.23s-.04,0-.06.01Z"/>
      <path class="cls-18" d="M244.94,563.14h-.02s.02.02.02.03c0,0,0-.02,0-.03Z"/>
      <path class="cls-7" d="M245.67,432.25h-.02c0,.09.02.17.02.25.12-.15.32-.15.47-.25-.16,0-.32,0-.48,0Z"/>
      <path class="cls-14" d="M953.57,480.69c-2.12,0-4.24,0-6.35.03-1.13.02-2.01.54-2.56,1.57.37.85.39,1.7.04,2.56.38.85.37,1.71.03,2.56.52,2.13.47,4.26-.03,6.38.36.84.4,1.69.06,2.55.64,1.79.81,3.58-.03,5.37.28.35.27.7-.04,1.02,0,.43-.01.85-.01,1.28.36.85.37,1.7-.01,2.55.5,2.98.53,5.96-.02,8.95.54,4.99.22,9.99-.02,14.98-.06,1.25-.25,2.5-1.25,3.43-.04.96-.34,1.75-1.35,2.08-.52,1.22-1.35,2.07-2.69,2.33l-.28.38h-.47c-.72.01-1.21.51-1.76.87-2.99,1.43-6.19,1.2-9.36,1.19-34.09-.11-68.17-.19-102.26-.33-48.06-.2-96.11-.41-144.17-.66-19.05-.1-38.1-.36-57.15-.43-5.49-.02-10.98.4-16.48.62-.63.06-1.27.12-1.9.19,0,0,0,0,0,0h0c-1.75,1.21-3.73,1.18-5.72,1.04-2.64.7-5.28,1.45-7.93,2.1-12.11,2.98-23.76,7.42-35.58,11.28-19.65,6.41-39.25,13-58.88,19.47-2.19.72-4.32,1.8-6.73,1.6-.69,2.27-.46,4.61-.47,6.92-.06,11.61-.08,23.22-.12,34.82,0,1.27.06,2.54-.03,3.8-.31,4.44-2.05,6.21-6.65,6.79-.61.08-1.25-.04-1.88-.07-2.26,1.13-4.51,1.35-6.93.3-1.06-.46-2.34-.4-3.52-.57l-.46.29-.55-.02c-.25.7-.8,1.01-1.49,1.15-.27.29-.52.83-.81.85-4.85.41-9.6,1.81-14.52,1.51-10.07,1.26-20.14,2.55-30.22,3.77-9.87,1.2-19.74,2.37-29.61,3.49-2.09.24-4.21.17-6.31.24-.84.4-1.69.56-2.55.08h0c-1.61-.34-3.21-.69-4.82-1.03-.69.79-1.61,1.05-2.61,1.13-.28.66-.67,1.15-1.48.99-.58.53-1.21.64-1.91.26,0,0,0,0,0,0h0c-2.62,1.4-5.44,1.18-8.26,1.06-.68.39-1.39.49-2.14.19-3.04,1.34-6.26,1.28-9.46,1.05-.44-.03-.84-.66-1.26-1.04,0,0,0,0,0,0-1.28-.53-1.44-1.56-1.24-2.76l-.21-.3.23-.29s0-.02,0-.03v.03c-.56-1.17-.64-2.39-.62-3.62-.94,0-1.88-.05-2.83-.12-.44-.03-.84-.66-1.26-1.04,0,0,0,0,0,0-1.28-.53-1.44-1.56-1.24-2.76l-.21-.3.23-.29s0-.02,0-.04v.03c-.96-2.01-.53-4.15-.53-6.24,0-3.09.02-6.18.02-9.27-.03-4.39-.02-8.78.03-13.17.02-5.48.03-10.97.04-16.45-1.18,0-2.37,0-3.55,0-1.66.2-3.33.39-4.99.59.3,7.62-1.27,14.79-5.17,21.38-.31.52-.84.92-1.26,1.37-3.57,5.92-8.3,10.24-15.42,11.24-1.93,1.11-4.06,1.01-6.17,1-18.99-.06-37.98-.12-56.97-.18-2.33,0-4.65-.06-6.8-1.14,0,0,0,0,0,0,0,0,0,0,0,0-1.16.21-2.19.03-2.88-1.05h-.53s-.39-.35-.39-.35c-.45-.37-.93-.67-1.46-.91h0c-2.25-.59-3.76-2.08-4.9-4.03-2.13-1.57-3.33-3.8-4.39-6.09-.58-.59-1.08-1.28-1.53-2.04-2.44-1.8-3.68-4.48-4.86-7.12-.47-1.04-.91-2.09-1.35-3.15-1.02,1.13-2.06,2.25-3,3.44-4.55,5.72-7.86,11.98-9.39,19.28-2.24,10.64-3.44,21.42-4.8,32.18-.88,6.97-1.68,13.94-2.76,20.88-.42,2.7-1.34,5.36-2.31,7.93-1.53,4.03-4.43,6.6-8.66,7.73-2.07.55-4.13.9-6.25,1-10.39.51-20.75.23-31.09-.94-5.05-.57-10.1-1.11-15.16-1.58-1.74-.16-3.26-.71-4.75-1.59-12.8-7.47-26.75-11.59-41.2-14.25-1.66-.3-3.28-.81-4.91-1.22-6.45-.51-12.95-.71-19.24-2.51-4.22-.02-7.03-2.46-9.49-5.53-6.11-7.63-12.85-14.66-19.96-21.34-3.23-3.03-6.49-6.02-9.74-9.03-.36-.49-.75-.96-1.38-1.15,0,0,0,0,0,.01-1.54-.51-2.78-1.42-3.63-2.83l-.02-.02c-.72-.39-1.5-.7-2.16-1.18-2.79-2.07-5.63-4.05-8.52-5.95,52.99,219.25,250.48,382.12,486.02,382.12,118.65,0,227.66-41.33,313.39-110.38,1.56-1.26,3.11-2.52,4.65-3.79,6.17-5.09,12.22-10.34,18.14-15.72,2.96-2.69,5.89-5.42,8.78-8.17,14.47-13.8,28.12-28.45,40.85-43.89,8.92-10.8,17.39-21.99,25.38-33.53,5.71-8.24,11.18-16.66,16.4-25.25,1.04-1.72,2.08-3.44,3.1-5.17,2.05-3.46,4.05-6.95,6.02-10.47,1.97-3.52,3.89-7.06,5.77-10.63,1.88-3.57,3.72-7.16,5.52-10.78.9-1.81,1.79-3.62,2.67-5.45,1.76-3.64,3.47-7.31,5.14-11,9.18-20.3,17.04-41.33,23.48-62.97,1.17-3.93,2.29-7.89,3.37-11.86,11.29-41.73,17.32-85.63,17.32-130.93,0-6.42-.12-12.8-.36-19.16-15.36-.05-30.71-.1-46.07-.15Z"/>
      <path class="cls-2" d="M246.16,433.59c-.18-.14-.35-.29-.43-.51l.05.51c.13,0,.25,0,.38,0Z"/>
      <path class="cls-27" d="M247.34,561.81s0-.02,0-.03c0,0,0,0,0,0,0,.02,0,.04-.02.05,0,0,.01,0,.02-.01Z"/>
      <path class="cls-3" d="M257.62,569.27c.15,2.09.62,4.05,1.31,5.91-.02-.6-.04-1.2-.07-1.79-.07-.74-.14-1.47-.21-2.21h0c-.9-1.26-1.06-2.7-.96-4.19,0,0,0,0,0,0h0c-.32-.33-.39-.71-.27-1.14-.13-.37-.38-.66-.63-.94.04.87.08,1.75.12,2.62.24.58.65,1.15.7,1.75Z"/>
      <path class="cls-17" d="M259,583.37c-.16-.65-.58-1.08-1.12-1.42,0,0,0,0,0,0-2.41-2.51-3.78-5.46-3.76-9h0s0-.02.01-.02c-1.3-1.5-1.34-3.28-1.09-5.12-.03-.85-.06-1.71-.09-2.56-.04-.42-.08-.84-.12-1.26-2.66.08-5.31.73-7.98.42,0,0,0,0,0-.01,0,0,0,0,0,.01-2.42,2.14-4.84,4.27-7.26,6.41-.05.02-.1.03-.14.05.04.03.08,0,.13.04.68,3.31-.75,5.35-3.83,6.38-.11.08-.15.2-.25.28.23.11.4.07.66.25.94,2.08.28,4.17.11,6.28-.33,4.03.32,7.85,1.74,11.23,3.59,3.05,8.22,4.92,13.48,5.07,17.12.47,34.26.5,51.39.17,11.78-.23,19.27-7.59,21.17-19.78.36-2.31.13-4.68.74-6.97.08-.25.23-.4.33-.63-.69-1.56-1.39-3.12-2.09-4.69-2.21-1.79-4.66-3.25-7.5-4.12-14.6-.12-29.19-.27-43.79-.33-1.41,0-2.83.47-4.24.74-.21.96-.81,1.64-1.59,2.17-.43,1.29-.85,2.58-1.28,3.87.07,1.6.15,3.2.22,4.8.24.58.65,1.15.7,1.75.16,2.24.68,4.33,1.47,6.31,2.13,1.15,4.27,2.28,6.35,3.53.37.22.55,1.15.45,1.69-.11.63-.82.97-1.46.84-.8-.15-1.58-.35-2.34-.58.23.32.45.65.69.97l.18.17c.52.2.92.56,1.2,1.04,2.41,1.31,4.85,2.58,7.2,4,.37.22.55,1.15.45,1.69-.11.63-.82.97-1.46.84-3.8-.72-7.21-2.26-9.99-5.04-.25-.65-.63-1.17-1.35-1.36-.16-.65-.58-1.08-1.12-1.42,0,0,0,0,0,0-1.46-1.52-2.53-3.2-3.14-5.08-.1-.09-.2-.18-.3-.27-.25-.65-.63-1.17-1.35-1.36Z"/>
      <path class="cls-5" d="M226.44,461.47c-.2.06-.41.1-.62.15.22.01.43.1.65.12,0-.09-.02-.18-.03-.28Z"/>
      <path class="cls-15" d="M156.65,356.96c.07.06.12.12.19.18,0-.21,0-.42,0-.63-.13.14-.08.31-.18.45Z"/>
      <path class="cls-12" d="M322.31,343.09s.02.03.02.03c.03,0,.06,0,.1,0-.03-.02-.07-.04-.11-.06,0,.01,0,.02-.01.03Z"/>
      <path class="cls-25" d="M291.58,424.7s0,0-.01,0h.01Z"/>
      <path class="cls-13" d="M323.65,343.12c.04.06.11.05.15.1.16-.07.32-.09.49-.15-.19,0-.37,0-.56,0-.03.02-.05.03-.08.05Z"/>
      <path class="cls-26" d="M291.8,424.57s0-.02,0-.05c-.04.03-.08.06-.12.09-.01.03-.02.02-.02.05-.02.02-.05.02-.08.04.01.02.03.02.04.04.02.04.03.13.16-.17Z"/>
      <path class="cls-23" d="M245.83,434.84h0c-.01.1,0,.2-.02.29.29-.14.58-.19.87-.29-.28,0-.57,0-.85,0,0,0,0,0,0,0Z"/>
      <path class="cls-30" d="M245.74,436.03s.05,0,.08,0c-.02-.04-.06-.07-.07-.12,0,.04,0,.08,0,.12Z"/>
      <path class="cls-29" d="M258.32,433.51c-.17.06-.33.06-.5.12.2,0,.4,0,.6,0-.04-.07-.09-.12-.1-.12Z"/>
      <path class="cls-28" d="M298.85,395.86h0c-.19.09-.26.23-.4.35.24.2.47.38.71.38-.1-.27-.19-.29-.3-.73Z"/>
      <path class="cls-28" d="M302.56,501.61c-.08-.04-.18-.06-.25-.11,0,.15,0,.3.01.45.12-.1.14-.23.24-.34Z"/>
      <path class="cls-28" d="M315.04,495.59v.02s0-.01.02-.02h-.02Z"/>
      <path class="cls-28" d="M316.32,493.04v.04s.02-.02.02-.04h-.02Z"/>
      <path class="cls-28" d="M316.31,496.66v.21s.09,0,.14,0c-.04-.07-.12-.14-.14-.21Z"/>
      <path class="cls-28" d="M316.31,495.6v.6c.02-.19.08-.39.2-.6-.07,0-.13,0-.2,0Z"/>
      <path class="cls-28" d="M308.73,482.5c-.09.11-.22.19-.33.29.11,0,.22-.01.33,0,0-.09,0-.19,0-.28Z"/>
      <path class="cls-28" d="M286.62,519.9c.11.02.22-.01.33.04v-.09h0c-.13-.01-.25-.01-.38-.02.01.03.04.03.05.06,0,0,0,0,0,0Z"/>
      <path class="cls-28" d="M292.17,472.57l-.03.04s.04,0,.05,0c0,0-.01-.02-.02-.03Z"/>
      <path class="cls-28" d="M285.63,518.5s.39-.06.4-.06l-.07-.26c-.11.11-.22.21-.33.32-.03.04-.05.08-.07.12.04.03.05.08.09.11,0-.07,0-.15-.01-.22Z"/>
      <path class="cls-28" d="M297.48,499.13c-.08.02-.14-.02-.23.01,0,.08,0,.16,0,.24.07-.09.15-.17.22-.25Z"/>
      <path class="cls-28" d="M297.72,432.69s0-.02,0-.05c-.04.03-.08.06-.12.09,0,.03-.01.02-.02.05-.02.02-.05.02-.08.04.01.02.03.02.04.04.02.04.03.13.16-.17Z"/>
      <path class="cls-28" d="M297.5,432.82s0,0-.01,0h.01Z"/>
      <path class="cls-28" d="M409.14,392.3c-.28-.06-.55-.05-.8.03l.57-.04s.12,0,.23,0Z"/>
      <path class="cls-28" d="M401.62,414.35c.43.53.99.74,1.65.74,0,0,0,0,0,.01-1.72.56-3.5,1.04-3.93,3.2.12.27.4.34.6.52-.07.4-.13.81-.2,1.21-.22.24-.26.53-.25.84-.1-.02-.16-.1-.27-.1-3.94,1.93-7.96,2.92-12.25,1.22-.1.01-.19.04-.29.06-.39-.38-.8-.74-.83-1.34-.82-3.22-.86-3.26-3.39-3.24-2.45.02-2.46.03-3.35,3.36-.11.64-.52,1.08-.96,1.51-.08-.04-.15-.03-.23-.08-3.9.7-7.77.69-11.6-.39,0,0-.02,0-.03,0-.36-.37-.78-.7-.78-1.29-.18-.8-.11-1.85-.6-2.36-1.31-1.36-3.11-.97-4.66-.55-1.43.39-1.34,1.92-1.48,3.15-.12.44-.43.74-.7,1.07-.17-.01-.33.01-.49,0-3.33,1.05-6.73,1.27-10.18.96-.19.04-.37.02-.56.05-.18-.22-.43-.36-.58-.6l.04.05c-.67-.45-1.18-.99-1.13-1.88-.19-.8-.12-1.86-.61-2.36-1.32-1.32-3.13-.96-4.67-.51-1.41.41-1.31,1.94-1.45,3.17-.17.56-.55.98-.92,1.41-.04-.02-.08,0-.12-.03-2.97.98-5.69.84-8.22-.18-.14.92-.27,1.85-.44,2.77-.36.55-.93.55-1.5.58.04.04.1.06.13.1l.59-.09c1.53.13,2.73.6,2.59,2.49,0,.01-.01.02-.01.03.16-.08.21-.27.41-.31,3.65,3.05,7.71,4.27,12.37,2.73.04.02.08.01.12.03.37-.43.75-.85.92-1.41.14-1.23.04-2.76,1.45-3.17,1.54-.45,3.34-.81,4.67.51.49.49.42,1.55.61,2.36-.05.88.46,1.43,1.13,1.88l-.04-.05c.16.24.41.38.58.6.19-.04.37-.02.56-.05,3.45.31,6.85.09,10.18-.96.16.01.33-.01.49,0,.27-.33.58-.64.7-1.07.14-1.23.05-2.76,1.48-3.15,1.54-.42,3.35-.81,4.66.55.49.51.42,1.56.6,2.36,0,.59.42.92.78,1.29,0,0,.02,0,.03,0,3.83,1.08,7.7,1.09,11.6.39.08.04.15.04.23.08.44-.43.85-.87.96-1.51.89-3.33.9-3.34,3.35-3.36,2.53-.02,2.57.02,3.39,3.24.03.6.44.97.83,1.34.1-.01.19-.05.29-.06,4.29,1.7,8.32.7,12.25-1.22.11,0,.17.09.27.1,0-.31.03-.6.25-.84.07-.4.13-.81.2-1.21-.19-.18-.48-.25-.6-.52.43-2.15,2.21-2.64,3.93-3.2,0,0,0,0,0-.01-.66,0-1.22-.22-1.65-.74-.39-9.96-2.37-19.93.2-29.86.19-.17.39-.22.59-.28h-.03c-.44-.48-.88-.95-1.32-1.43-2.08,0-4.16,0-6.24,0-.7,7.81.57,15.63.88,23.45Z"/>
      <path class="cls-28" d="M328.85,544.22c0-.19,0-.38-.01-.56-.1.11-.19.22-.3.32.1.1.22.13.31.24Z"/>
      <path class="cls-28" d="M386.9,375.59s-.05.03-.09.03c0,.04,0,.07,0,.11.04-.04.04-.1.08-.14Z"/>
      <path class="cls-28" d="M268.12,448.16h0c0-.1,0-.21,0-.31-.07.09-.06.19-.15.28.04.02.1.01.14.04,0,0,0,0,0,0Z"/>
      <path class="cls-28" d="M409.53,375.65c-.18.09-.37.07-.55.09.18,0,.37.02.55.02v-.12Z"/>
      <path class="cls-28" d="M409.51,392.32s-.19,0-.37-.02c.12.03.24.02.37.06v-.04Z"/>
      <path class="cls-28" d="M383.99,364.42h0c.06-.07.12-.13.19-.2-.08.03-.15.1-.24.13.01.03.04.04.05.07,0,0,0,0,0,0Z"/>
      <path class="cls-28" d="M330.86,358.79s-.08.04-.12.08c.07,0,.15,0,.22,0-.03-.04-.07-.05-.11-.09Z"/>
      <path class="cls-28" d="M330.2,351.2c-.19,0-.37,0-.56,0-.03.02-.05.03-.08.05.04.06.11.05.15.1.16-.07.32-.09.49-.15Z"/>
      <path class="cls-28" d="M412.76,577.72s-.09,0-.13,0c0,.04.03.06.04.09.03-.04.07-.06.09-.1Z"/>
      <path class="cls-28" d="M320.47,395.93h0c-.08.09-.13.17-.24.26.1,0,.2.03.3.04-.02-.1-.03-.21-.05-.29Z"/>
      <path class="cls-28" d="M358.93,354s-.09-.08-.13-.12c.02.06.02.14.04.2.03-.02.06-.05.1-.07Z"/>
      <path class="cls-28" d="M365.2,337.15s-.03.06-.05.09h.14s-.08-.06-.1-.09Z"/>
      <path class="cls-28" d="M328.35,351.25s-.07-.04-.11-.06c0,.01,0,.02-.01.03.01.01.02.03.02.03.03,0,.06,0,.1,0Z"/>
      <path class="cls-28" d="M344.43,458.61h0s0,0,.02,0c0,0,0,0,0-.01,0,0,0,0,0,.01Z"/>
      <path class="cls-28" d="M162.36,553.73c-.05.05-.1.1-.15.15.04.05.1.05.14.1.02-.08-.01-.16.02-.25Z"/>
      <path class="cls-28" d="M174.81,653.76s0,0,0,0c.02.01.04.03.07.04-.02-.02-.04-.02-.06-.04Z"/>
      <path class="cls-28" d="M204.42,510.79s.03-.08.05-.12c-.07,0-.06-.06-.14-.07t0,0h0c.02.06.06.12.09.19Z"/>
      <path class="cls-28" d="M264.24,441.64c-.17.06-.33.06-.5.12.2,0,.4,0,.6,0-.04-.07-.09-.12-.1-.12Z"/>
      <path class="cls-28" d="M209.26,506.52c-.03.08-.06.16-.11.24.1,0,.2-.02.3-.01-.06-.07-.13-.16-.19-.23Z"/>
      <path class="cls-28" d="M194.26,492.69c-.06,0-.13,0-.2,0,.02.04.08.08.1.12.03-.05.07-.07.1-.11Z"/>
      <path class="cls-28" d="M13.69,540.55c-.07.04-.14.05-.21.09,0,.09.07.13.08.21.04-.1.09-.2.13-.3Z"/>
      <path class="cls-28" d="M154.58,547.33s-.02,0-.03,0c.01.01.01.03.03.04,0-.02,0-.03,0-.05Z"/>
      <path class="cls-28" d="M4.56,545.72h-.01s0,.01,0,.02c0,0,0-.01,0-.02Z"/>
      <path class="cls-28" d="M45.76,627.67c-.26,0-.51,0-.77,0,.13.17.26.33.38.51.08-.16.26-.34.38-.51Z"/>
      <polygon class="cls-28" points="44.99 627.67 44.99 627.66 44.99 627.67 44.99 627.67"/>
      <path class="cls-28" d="M156.15,565.21c-.21.36-.19.7.07,1.02-.03.84-.16,1.7-.07,2.53.87,7.96-1.29,15.04-5.71,21.63-4.13,6.15-8.08,12.42-11.89,18.78-3.65,6.09-7.7,11.81-13.08,16.48-.26-.14-.3-.3-.63-.44-1.74-.13-3.28.55-4.81,1.24-8.84,4-17.82,3.86-27,1.25-4.88-1.39-9.28-3.82-13.9-5.76-1.19-.25-2.33-.66-3.46-1.1-.92-.79-1.83-1.59-2.76-2.37-1.86-1.54-3.46-3.31-4.94-5.17.02.06.04.11.06.17,3.4,4.54,6.36,9.45,10.8,13.13.93.77,1.84,1.57,2.76,2.37,1.13.44,2.27.85,3.46,1.1,4.63,1.93,9.02,4.37,13.9,5.76,9.18,2.61,18.16,2.75,27-1.25,1.53-.69,3.07-1.37,4.81-1.24.33.14.37.3.63.44,5.39-4.67,9.43-10.38,13.08-16.48,3.81-6.36,7.76-12.63,11.89-18.78,4.42-6.59,6.58-13.68,5.71-21.63-.09-.83.04-1.69.07-2.53-.26-.32-.28-.66-.07-1.02-1.83-4.88-3.69-9.74-6.25-14.3l.03-.04c-.95-.47-1.37-1.28-1.55-2.26-.98-1-1.96-2.01-2.94-3.01,1.84,3.72,3.32,7.6,4.78,11.49Z"/>
      <polygon class="cls-28" points="209.45 506.75 209.45 506.75 209.45 506.76 209.45 506.75"/>
      <path class="cls-28" d="M232.36,469.59c-.2.06-.41.1-.62.15.22.01.43.1.65.12,0-.09-.02-.18-.03-.28Z"/>
      <path class="cls-28" d="M322.78,573.82c-.6,2.29-.38,4.66-.74,6.97-1.9,12.19-9.39,19.55-21.17,19.78-17.13.33-34.27.3-51.39-.17-5.26-.14-9.9-2.02-13.48-5.07,3.21,7.62,10.38,12.95,19.4,13.19,17.12.47,34.26.5,51.39.17,11.78-.23,19.27-7.59,21.17-19.78.36-2.31.13-4.68.74-6.97.08-.25.23-.4.33-.63-1.34-3-2.67-6.01-4.01-9.01-1.26-1.37-2.58-2.65-4-3.8.7,1.56,1.39,3.12,2.09,4.69-.1.22-.25.37-.33.63Z"/>
      <path class="cls-28" d="M252.95,565.25c.03.85.06,1.71.09,2.56-.26,1.84-.21,3.61,1.09,5.12,0,0,0,.02-.01.02h0c-.02,3.54,1.35,6.49,3.76,9,0,0,0,0,0,0,.54.34.97.77,1.12,1.42.71.19,1.1.7,1.35,1.36.1.1.2.18.3.27-.4-1.22-.62-2.52-.61-3.92h0s0-.02.01-.02c-1.3-1.5-1.34-3.28-1.09-5.12,0-.26-.02-.51-.03-.77-.7-1.86-1.16-3.82-1.31-5.91-.04-.6-.46-1.17-.7-1.75-.04-.87-.08-1.75-.12-2.62-.14-.16-.29-.31-.42-.48l-.04-.07c-1.17-.32-2.34-.39-3.51-.35.04.42.08.84.12,1.26Z"/>
      <path class="cls-28" d="M257.57,538.87s0,0,0,0c-.01,0-.02,0-.03,0,.01,0,.02,0,.03,0Z"/>
      <path class="cls-28" d="M251.66,444.16s.05,0,.08,0c-.02-.04-.06-.07-.07-.12,0,.04,0,.08,0,.12Z"/>
      <path class="cls-28" d="M256.82,538.87c-.14,0-.29,0-.43,0,0,.02.01.04.02.06.14-.01.27-.04.41-.06Z"/>
      <path class="cls-28" d="M271.8,588.92c.1-.54-.08-1.46-.45-1.69-2.07-1.25-4.22-2.38-6.35-3.53.76,1.93,1.78,3.74,2.99,5.48.76.23,1.54.42,2.34.58.65.12,1.35-.21,1.46-.84Z"/>
      <path class="cls-28" d="M250.53,456.87c-.19-.06-.4-.1-.55-.26,0,.11-.02.22-.03.33l.52.05s.02-.08.06-.12Z"/>
      <path class="cls-28" d="M251.75,442.96h0c-.01.1,0,.2-.02.29.29-.14.58-.19.87-.29-.28,0-.57,0-.85,0,0,0,0,0,0,0Z"/>
      <path class="cls-28" d="M250.53,449.54s0,0,0,0c.01-.01.02-.03.03-.05-.02,0-.02.02-.04.02,0,0,0,.02,0,.03h0Z"/>
      <path class="cls-28" d="M245.39,455.72s0-.06,0-.09c-.04.03-.06.08-.1.11.05,0,.11-.02.11-.02h0Z"/>
      <path class="cls-28" d="M251.65,441.2c.02.17.03.34.05.51.13,0,.25,0,.38,0-.18-.14-.35-.29-.43-.51Z"/>
      <path class="cls-28" d="M252.07,440.38c-.16,0-.32,0-.48,0h-.02c0,.09.02.17.02.25.12-.15.32-.15.47-.25Z"/>
      <path class="cls-28" d="M122.46,652.15s-.08.03-.13.03c.03.03.05.06.07.09.03-.03.05-.06.08-.1-.01,0-.02,0-.04,0h0s0-.02.01-.03Z"/>
      <path class="cls-28" d="M343.23,466.02c.03.11.09.17.11.29.11,0,.21.02.32.02-.18-.06-.3-.18-.43-.31Z"/>
      <polygon class="cls-28" points="606.3 486.32 606.3 486.33 606.32 486.31 606.3 486.32"/>
      <path class="cls-28" d="M901.26,526.07c.02-.18-.03-.21,0-.43,0,0,0,0,0,0h0c-.16,0-.31,0-.47,0,.15.15.3.33.46.43Z"/>
      <path class="cls-28" d="M352,480.36s.1.05.15.08c-.02-.05-.04-.11-.05-.17-.03.04-.07.04-.1.09Z"/>
      <path class="cls-28" d="M906.56,493.38c-.04.1-.12.17-.15.28.2,0,.4,0,.61,0-.15-.09-.3-.2-.46-.28Z"/>
      <path class="cls-28" d="M801.1,426.57c-2.59,0-4.45-.73-5.95-2.71h0c-.58-.49-1.04-1.04-1.01-1.85-1.82-3.17-2.77-3.65-6.49-3.17-2.21.29-2.29,2.14-2.64,3.77-.46.42-.9.87-1.39,1.25-3.92,3.01-5.32,3.1-9.58.63-.54-.31-1.02-.7-1.53-1.06.04-.39-.11-.7-.43-.93-.38-.57-.89-1.08-.81-1.85-1.25-2.32-2.53-2.53-5.43-.89-.89.7-1.16,1.66-1.12,2.75l-.03.07c-.46.42-.9.88-1.4,1.25-3.92,2.98-5.36,3.06-9.58.57-.53-.31-1.02-.71-1.52-1.07.04-.38-.1-.68-.42-.9-.64-.76-.37-1.89-1.07-2.63-2.14-1.54-2.93-1.55-5.19-.07-.84.69-1.17,1.6-1.1,2.68-.32.2-.46.49-.42.86-.5.35-1.02.69-1.51,1.07-3.05,2.3-6.08,2.28-9.11-.03-.49-.37-1-.72-1.5-1.08.04-.37-.1-.66-.41-.86.07-1.07-.26-1.97-1.08-2.67-2.22-1.5-3.01-1.5-5.19.01-.68.74-.43,1.87-1.08,2.63-.32.21-.47.5-.44.89-.5.35-1.01.7-1.51,1.07-3.06,2.26-6.09,2.27-9.11-.07-.49-.38-1-.72-1.5-1.09.04-.37-.09-.64-.41-.83.06-1.08-.23-2.01-1.09-2.7-2.29-1.48-3.09-1.46-5.19.08-.71.72-.45,1.84-1.07,2.59-.32.22-.47.53-.45.92-.51.35-1,.74-1.54,1.05-4.26,2.46-5.67,2.36-9.57-.67-.49-.38-.92-.84-1.39-1.27l-.02-.05c.04-1.09-.2-2.07-1.11-2.78-1.38-1.78-3.16-.98-4.8-.63-.31.07-.43,1-.65,1.54.05.75-.45,1.25-.81,1.81-.33.23-.48.54-.45.94-3.39,2.88-6.99,3.55-10.92,1.11-.53-.67-1.06-1.35-1.59-2.02l-.02-.05c.03-1.09-.18-2.08-1.11-2.78-1.39-1.77-3.17-.99-4.8-.6-.3.07-.39,1.02-.57,1.57-.86.76-1.2,1.76-1.36,2.86-.67.1-1.05.49-1.19,1.14-4.42,2.54-8.1,1.43-11.25-2.31-.1-1.23-.28-2.56-1.32-3.25-1.41-.92-3.09-.72-4.6-.12-.37.15-.45,1.04-.66,1.58,0,.71-.49,1.2-.81,1.76-.34.21-.48.51-.43.91-.2.72-.55,1.31-1.34,1.51-.02,0-.03,0-.05,0-4.39,2.21-8.07,1.26-11.14-2.49-.09-1.23-.24-2.58-1.33-3.24-1.44-.86-3.12-.72-4.62-.06-.37.16-.42,1.06-.61,1.62,0,.68-.53,1.12-.79,1.69-.34.23-.49.55-.45.96-.23.68-.58,1.26-1.33,1.47-.01,0-.03,0-.04,0-4.4,2.19-8.1,1.25-11.16-2.54-.1-1.23-.2-2.6-1.34-3.23-1.46-.81-3.14-.72-4.63,0-.37.18-.4,1.07-.59,1.63-.06.64-.56,1.07-.78,1.63-.35.24-.5.57-.47.99-.25.66-.59,1.23-1.32,1.45-.01,0-.02,0-.04,0-2.88,1.28-5.79,1.65-8.75.22l-.1-.06c-.29-.47-.67-.84-1.16-1.1-.4-.51-.81-1.02-1.21-1.52.04-1.11,0-2.2-1.12-2.86-1.31-1.37-2.9-.9-4.41-.59-1.01.21-.82,1.21-.94,1.96-.86,1.26-1.72,2.53-2.57,3.79-3.55,1.83-6.93,1.67-10.11-.87l-.13-.16c-.3-.53-.72-.99-1.01-1.53-.12-1.22-.1-2.65-1.34-3.22-1.5-.69-3.19-.7-4.67.15-.37.21-.37,1.1-.55,1.67-.76.75-1.22,1.64-1.34,2.71-.25.58-.61,1.06-1.23,1.28,0,0-.01,0-.02,0-2.9,1.3-5.82,1.63-8.77.16-.81-.89-1.62-1.79-2.43-2.68-.06-1.39.05-3.1-1.59-3.47-1.53-.34-3.5-1.29-4.61.99-.3.32-.4.69-.29,1.11-.86,1.25-1.73,2.51-2.59,3.77-3.59,1.82-6.97,1.6-10.12-1h0s-.07-.09-.07-.09c-.38-.5-.82-.98-1.05-1.58-.13-1.21-.02-2.66-1.35-3.19-1.53-.6-3.23-.69-4.69.25-.38.24-.35,1.12-.51,1.7-.72.75-1.22,1.6-1.33,2.65-.3.54-.65,1.03-1.24,1.27,0,0,0,0-.01,0-3.59,1.72-6.97,1.48-10.09-1.11l-.05-.07c-.42-.5-.83-.99-1.05-1.62-.13-1.21-.04-2.67-1.39-3.16-1.53-.56-3.24-.69-4.69.3-.37.25-.33,1.13-.47,1.72-.7.74-1.23,1.57-1.33,2.62-.31.53-.67,1.01-1.25,1.28,0,0,0,0,0,0-3.61,1.73-6.98,1.42-10.1-1.16l-.04-.05c-.45-.48-.87-.98-1.07-1.63q-.87-3.4-3.27-3.46c-2.55-.06-2.6-.01-3.47,3.14.05.87-.46,1.41-1.12,1.84-.33.51-.68,1-1.26,1.26h0c-3.62,1.71-7,1.42-10.11-1.2l-.02-.03c-.48-.48-.91-.98-1.07-1.67q-.88-3.37-3.31-3.42c-2.54-.05-2.58-.01-3.43,3.2,0,.82-.47,1.35-1.1,1.78-3.11,2.49-6.46,3.1-10.11,1.28-.8-.92-1.6-1.84-2.4-2.76.08-.4-.02-.75-.3-1.05-.09-.58.03-1.47-.3-1.71-1.51-1.08-3.13-1.24-4.69-.5.12,1.73.04,3.46-.33,5.19.34.83.43,1.66.06,2.5.03,1.28.07,2.55.11,3.83.66.93.57,2.54,2.27,2.54.79-.93,1.58-1.86,2.37-2.78-.09-.38,0-.7.3-.97.09-.59-.02-1.47.31-1.71,1.79-1.26,3.73-1.25,5.52.02.33.24.21,1.12.3,1.71.28.3.38.65.3,1.05.8.92,1.6,1.84,2.4,2.76,3.65,1.81,7,1.21,10.11-1.28.63-.43,1.1-.96,1.1-1.78.85-3.21.88-3.24,3.43-3.2q2.43.05,3.31,3.42c.16.69.59,1.19,1.07,1.67l.02.03c3.11,2.62,6.49,2.91,10.11,1.2h0c.58-.26.92-.76,1.26-1.26,0,0,0,0-.01,0l.04-.06s-.02.03-.03.05c.66-.43,1.17-.97,1.12-1.84.86-3.15.92-3.2,3.47-3.14q2.4.06,3.27,3.46c.19.65.62,1.15,1.07,1.63l.04.05c3.12,2.58,6.49,2.89,10.1,1.16,0,0,0,0,0,0,.57-.27.93-.75,1.25-1.28.1-1.05.63-1.88,1.33-2.62.15-.59.1-1.46.47-1.72,1.45-.99,3.15-.86,4.69-.3,1.35.5,1.26,1.95,1.39,3.16.21.63.63,1.12,1.05,1.62l.05.07c3.12,2.58,6.5,2.83,10.09,1.11,0,0,0,0,.02,0,.59-.25.95-.73,1.24-1.27.11-1.05.62-1.9,1.33-2.65.16-.58.13-1.46.51-1.7,1.46-.94,3.16-.86,4.69-.25,1.33.52,1.22,1.98,1.35,3.19.23.61.66,1.08,1.05,1.58,0,0,.07.09.07.09h0c3.15,2.6,6.54,2.81,10.12,1,.86-1.26,1.72-2.51,2.59-3.77-.11-.42-.01-.79.29-1.11,1.11-2.27,3.08-1.33,4.61-.99,1.64.36,1.53,2.07,1.59,3.47.81.89,1.62,1.79,2.43,2.68,2.95,1.47,5.87,1.14,8.77-.16,0,0,.01,0,.02,0,.62-.22.98-.7,1.23-1.28.12-1.07.58-1.96,1.34-2.71.17-.58.17-1.46.55-1.67,1.48-.84,3.17-.83,4.67-.15,1.24.57,1.22,2,1.34,3.22.29.54.7,1,1.01,1.53l.13.16c3.18,2.54,6.56,2.7,10.11.87.86-1.26,1.72-2.53,2.57-3.79.12-.75-.07-1.76.94-1.96,1.51-.31,3.1-.78,4.41.59,1.11.66,1.15,1.74,1.12,2.86.4.51.81,1.02,1.21,1.52.49.26.87.63,1.16,1.1l.1.06c2.96,1.43,5.86,1.06,8.75-.22.01,0,.03,0,.04,0,.73-.22,1.07-.79,1.32-1.45-.03-.42.12-.75.47-.99.22-.56.72-.99.78-1.63.19-.56.22-1.46.59-1.63,1.49-.72,3.17-.82,4.63,0,1.13.63,1.23,2,1.34,3.23,3.06,3.79,6.76,4.72,11.16,2.54.01,0,.03,0,.04,0,.75-.2,1.1-.78,1.33-1.47-.04-.41.11-.73.45-.96.26-.57.78-1.01.79-1.69.2-.56.25-1.45.61-1.62,1.51-.66,3.18-.8,4.62.06,1.09.66,1.24,2.01,1.33,3.24,3.07,3.75,6.76,4.7,11.14,2.49.02,0,.03,0,.05,0,.79-.19,1.14-.78,1.34-1.51-.05-.4.09-.7.43-.91.32-.56.81-1.05.81-1.76.21-.55.29-1.44.66-1.58,1.51-.6,3.19-.8,4.6.12,1.04.68,1.22,2.02,1.32,3.25,3.14,3.74,6.83,4.85,11.25,2.31.14-.65.52-1.05,1.19-1.14.15-1.09.5-2.1,1.36-2.86.19-.55.28-1.5.57-1.57,1.64-.4,3.41-1.18,4.8.6.93.7,1.14,1.69,1.11,2.78l.02.05c.53.67,1.06,1.35,1.59,2.02,3.92,2.44,7.53,1.77,10.92-1.11-.03-.4.12-.72.45-.94.37-.56.87-1.06.82-1.81.21-.54.33-1.47.65-1.54,1.64-.35,3.41-1.15,4.8.63.91.71,1.15,1.69,1.11,2.78l.02.05c.46.42.89.88,1.39,1.27,3.9,3.02,5.31,3.12,9.57.67.54-.31,1.03-.7,1.54-1.05-.03-.39.12-.7.45-.92.61-.76.35-1.88,1.07-2.59,2.11-1.54,2.9-1.55,5.19-.08.86.7,1.16,1.63,1.09,2.7.32.19.45.47.41.83.5.36,1.01.71,1.5,1.09,3.02,2.34,6.06,2.33,9.11.07.5-.36,1-.71,1.51-1.07-.03-.38.12-.68.44-.89.65-.76.4-1.89,1.08-2.63,2.19-1.51,2.97-1.51,5.19-.01.83.7,1.16,1.6,1.08,2.67.32.2.46.49.41.86.5.36,1.01.71,1.5,1.08,3.03,2.3,6.07,2.33,9.11.03.49-.37,1.01-.71,1.51-1.07-.04-.37.11-.66.42-.86-.07-1.07.26-1.98,1.1-2.68,2.26-1.48,3.05-1.47,5.19.07.69.74.43,1.87,1.07,2.63.32.21.46.51.42.9.51.36.99.75,1.52,1.07,4.22,2.49,5.66,2.41,9.58-.57.5-.38.93-.83,1.4-1.25l.03-.07c-.04-1.09.23-2.05,1.12-2.75,2.89-1.65,4.18-1.43,5.43.89-.08.77.43,1.29.81,1.85.32.22.47.53.43.93.51.36,1,.75,1.53,1.06,4.26,2.48,5.66,2.38,9.58-.63.49-.38.93-.83,1.39-1.25.35-1.63.43-3.48,2.64-3.77,3.71-.48,4.67,0,6.49,3.17-.02.82.44,1.37,1.01,1.85h0c1.5,1.99,3.36,2.73,5.95,2.72,17.17-.06,34.33.09,51.5.15,45.77.16,91.55.32,137.33.48-.35-2.71-.73-5.41-1.12-8.11-47.38-.17-94.75-.33-142.13-.5-17.17-.06-34.33-.21-51.5-.15Z"/>
      <path class="cls-28" d="M289.09,417.13c-.1,2.02-.21,4.05-.31,6.07-.75,0-1.51.01-2.26.02-.15-.65-.55-1.04-1.21-1.14-.1-1.05-.56-1.93-1.31-2.66-.11-.78-.02-1.79-.99-1.98-3.05-.6-6.07-.89-7.96,2.44-.51.2-.85.57-1.02,1.09l-.19.2c-.45.43-.89.86-1.34,1.28-.51.19-.84.54-1,1.06l-.26.27c-2.04,1.22-3.63,2.91-4.98,4.84-1.38.83-3.35.62-4.18,2.42-5.38.07-10.76.13-16.15.2-2.67.04-5.45-1.01-7.94.81-.81.53-1.62,1.06-2.43,1.59-1.3.43-2.6.87-3.91,1.3-1.16-.04-2.31-.09-3.47-.11-.84-.01-1.47.31-1.69,1.2-.13.13-.39.28-.38.39.04.35.19.68.29,1.02-.73,2.98-.72,6.03-.76,9.07-.01.85.18,1.59.97,2.05,1.69.33,3.43.47,5.13.78.1-1.27.28-2.53.58-3.78-.1-.34-.25-.67-.29-1.02-.01-.11.24-.26.38-.39.22-.89.86-1.21,1.69-1.2,1.16.02,2.31.07,3.47.11,1.3-.43,2.61-.87,3.91-1.3.81-.53,1.62-1.06,2.43-1.59,2.49-1.82,5.27-.77,7.94-.81,5.38-.07,10.77-.13,16.15-.2.83-1.79,2.8-1.58,4.18-2.42,1.35-1.93,2.94-3.62,4.98-4.84l.26-.27c.16-.52.5-.87,1-1.06.45-.43.89-.86,1.34-1.28l.19-.2c.18-.52.51-.88,1.02-1.09,1.89-3.32,4.9-3.04,7.96-2.44.97.19.88,1.2.99,1.98.74.73,1.21,1.61,1.31,2.66.67.1,1.06.48,1.21,1.14.75,0,1.5-.01,2.26-.02.1-2.02.21-4.05.31-6.07,0-.87.01-1.74.02-2.61-.04-9.76-.08-19.53-.12-29.29-.26-.48-.53-.96-.79-1.44-.4-.24-.57-.59-.51-1.06l-.03.1c-1.51-.29-3.03-.41-4.56-.46.03,8.01.07,16.02.1,24.02-.01.87-.02,1.74-.03,2.61ZM245.66,432.27h.02c.16-.01.32-.01.48,0-.15.1-.35.1-.47.25,0-.08-.02-.16-.02-.24ZM246.16,433.59c-.13,0-.25,0-.38,0l-.05-.51c.08.22.25.37.43.51ZM245.74,436.03s0-.08,0-.12c.02.04.05.08.07.12-.03,0-.05,0-.08,0ZM245.81,435.13c0-.1,0-.19.02-.29h0s0,0,0,0c.28,0,.57,0,.85,0-.29.1-.58.15-.87.29ZM257.82,433.63c.16-.05.33-.05.5-.12.01,0,.06.05.1.12-.2,0-.4,0-.6,0ZM291.67,424.66s.01-.02.02-.05c.04-.03.08-.06.12-.09,0,.03,0,.01,0,.05-.13.3-.14.21-.16.17-.01-.02-.03-.02-.04-.04.02-.02.05-.01.08-.04ZM291.58,424.7h0s0,0-.01,0c0,0,0,0,.01,0Z"/>
      <path class="cls-28" d="M608.87,492.73l-.05.12s.03.02.04.03c.01-.05-.01-.11,0-.15Z"/>
      <path class="cls-28" d="M648.62,490.01c-.12.1-.25.13-.36.25h0c.09,0,.18,0,.27,0,.02-.11.07-.15.1-.25Z"/>
      <path class="cls-28" d="M606.32,485.03v.73c-.02-.23.08-.48.18-.73-.06,0-.12,0-.18,0Z"/>
      <path class="cls-28" d="M664.7,519.75v.02s-.01-.01-.01-.02c-.13.08-.19.11-.31.19.09.03.16.02.25.06,0-.1.07-.16.07-.26Z"/>
      <path class="cls-28" d="M348.22,448.38s.1.08.15.12h0c-.06-.06-.13-.12-.13-.12,0,0,0,0-.01,0Z"/>
      <path class="cls-28" d="M346.2,581.34c.02.1,0,.18.01.27.12-.1.26-.14.37-.27h0c-.13,0-.25,0-.38,0Z"/>
      <path class="cls-28" d="M907.97,508.31c.08-.2.24-.43.37-.64-.23.05-.46.03-.69.09,0,0,0,0,0,0,0,0,0,0,0,0,.11.18.22.36.32.54Z"/>
      <path class="cls-28" d="M472.51,577.77c0,.05,0,.11,0,.16,0,0,.01,0,.02,0-.02-.06-.01-.11-.02-.17Z"/>
      <path class="cls-28" d="M162.75,364.63c-.13.14-.08.31-.18.45.07.06.12.12.19.18,0-.21,0-.42,0-.63Z"/>
      <path class="cls-28" d="M173.37,359.96c-.12-.1-.18-.24-.34-.32,0,.11,0,.23,0,.34.13-.03.22-.01.34-.03Z"/>
      <path class="cls-28" d="M247.32,359.84c-.38-.02-.72,0-1.11-.04.24.2.49.22.73.36.13-.11.25-.22.38-.32Z"/>
      <path class="cls-28" d="M253.57,349.67c.05,0,.1,0,.15,0,.05-.35-.21-.64-.05-.15.03.08-.08.09-.1.15Z"/>
      <path class="cls-28" d="M258.18,367.53v-.05s-.05.02-.07.03c.03,0,.04.01.07.02h0Z"/>
      <path class="cls-28" d="M380.75,313.28c-1.23-.25-2.49-.4-3.74-.41-10.77-.06-21.55-.07-32.32-.09-.84,0-1.69.03-2.52.17-1.37.23-2.47,1.1-2.58,2.44-.43,5-1.38,10.04.56,14.95.28.82.9,1.28,1.73,1.3,1.01.02,2.02,0,3.02-.03,0-2.69.38-5.4.61-8.09.11-1.34,1.21-2.21,2.58-2.44.83-.14,1.68-.17,2.52-.17,10.78.02,21.55.03,32.32.09.04,0,.08,0,.12,0-.07-1.87-.33-3.74-.83-5.88-.14-.9-.59-1.67-1.47-1.85Z"/>
      <path class="cls-28" d="M943.38,472.07h-.02s0,.02.02.03v-.03Z"/>
      <path class="cls-28" d="M338.12,340.96c-5.22-.06-10.5.89-15.64-.81-.49-.36-.97-1.03-1.47-1.03-10.37-.12-20.74-.17-31.11-.2-.89,0-1.58.51-2,1.32-4.77,1.25-9.62.47-14.43.54-1.38.02-2.23-1.07-3.32-1.66-3.18-5.14-7.49-8.24-13.81-7.76-.4.03-.81-.15-1.22-.24-.39-1.62-1.37-2.47-3.06-2.56-5.18-.29-10.37-.44-15.54.09-.88.09-1.54.53-1.94,1.33-1.78,1.52-3.93,1.24-6.01,1.24-8.83-.02-17.65-.05-26.48-.08-9.45-.03-18.91-.08-28.36-.07-1.83,0-3.84-.55-5.31,1.17-.33-.06-.67-.09-1.01-.07-3.67-1.94-7.41-1.66-11.16-.27-.15.06-.22.34-.32.52h0l-.1.11c-1.66.88-1.32,2.47-1.33,3.9-.1,15.21-.19,30.42-.27,45.62,0,1.9.04,3.8.1,5.7.03.89.44,1.6,1.22,2.06,1.53.96,3.07,1.47,4.61,1.63,0-.42-.01-.84-.01-1.27.08-15.21.17-30.42.27-45.62,0-1.43-.33-3.02,1.33-3.9l.1-.11h0c.11-.18.17-.47.32-.52,3.75-1.39,7.48-1.67,11.16.27.34-.02.68,0,1.01.07,1.47-1.72,3.48-1.17,5.31-1.17,9.45-.02,18.91.04,28.36.07,8.83.03,17.65.06,26.48.08,2.08,0,4.23.28,6.01-1.24.4-.8,1.05-1.24,1.94-1.33,5.18-.52,10.36-.37,15.54-.09,1.68.09,2.67.94,3.06,2.56.41.08.82.27,1.22.24,6.32-.48,10.63,2.62,13.81,7.76,1.09.59,1.94,1.68,3.32,1.66,4.81-.07,9.66.71,14.44-.54.42-.81,1.1-1.33,2-1.32,10.37.04,20.74.08,31.11.2.49,0,.98.67,1.47,1.03,5.14,1.7,10.42.74,15.64.81,3.13.04,6.27-.51,9.41-.8-.04-2.77-.08-5.55-.12-8.33-.35.09-.65,0-.9-.27-1.55.03-3.1.1-4.65.07-.09,0-.18-.03-.26-.04,0,.15,0,.29,0,.44-3.14.28-6.28.83-9.41.8ZM156.65,356.96c.1-.14.06-.32.18-.45,0,.21,0,.42,0,.63-.07-.06-.12-.12-.19-.18ZM322.34,343.12s-.01-.02-.02-.03c0-.01,0-.02.01-.03.03.02.07.04.11.06-.03,0-.06,0-.1,0ZM323.8,343.22c-.04-.05-.11-.04-.15-.1.02-.02.05-.03.08-.05.19,0,.37,0,.56,0-.16.06-.32.08-.49.15ZM353.01,345.88s-.06.05-.1.08c-.02-.06-.01-.14-.04-.2.04.04.09.08.13.12Z"/>
      <path class="cls-28" d="M911.47,514.13s0,.06,0,.08c.02-.02.05-.04.08-.06-.02-.01-.05-.01-.07-.03Z"/>
      <path class="cls-28" d="M433.61,398.83s-.02.01-.03.02c.02.02.03.04.05.06,0-.03-.01-.05-.01-.08Z"/>
      <path class="cls-28" d="M479.64,422.78s0,0,.01,0c.01-.02.02-.03.03-.05l-.04.06Z"/>
      <path class="cls-28" d="M589.36,331.15c.36-1.45.7-2.89-.67-4.05-1.61-1.85-3.61-1.16-5.56-.88-.88.03-1.76.06-2.64.09-1.04-.14-2.08-.39-3.11-.4-16.44-.08-32.89-.14-49.33-.17-1.89,0-3.81.04-5.67.36-13.51,2.3-26.79,5.57-39.8,9.93-1.12-.22-2.11-.03-2.83.96-.37-.06-.7.02-.99.25-1.14-.2-2.16-.06-2.9.96h0c-.35-.07-.66.02-.93.26-1.48-.24-2.79.07-3.81,1.24h-.02c-6.27,1.9-12.72,1.69-19.16,1.6-3.13-.04-6.26-.03-9.38-.03-1.88,0-3.76.04-5.56-.62-.08.2-.17.39-.25.59-.05-.05-.1-.09-.15-.14h0s.4-.45.4-.45c-.25-.71-.66-1.18-1.5-1.01-10.38-.77-20.78-.28-31.18-.38-.88,0-1.59.35-2.05,1.15-.36.25-.73.49-1.09.73-6.79.29-13.59.32-20.37-.31-.03,0-.06,0-.09-.01-.1.11-.21.21-.31.32.08.41.22.82.24,1.24q.27,5.87,6.08,6.58c6.78.63,13.57.6,20.37.31.36-.24.73-.49,1.09-.74.45-.79,1.17-1.16,2.05-1.15,10.39.1,20.79-.39,31.18.38.83-.17,1.24.31,1.5,1.01,1.8.66,3.68.62,5.56.62,3.13,0,6.26,0,9.38.03,6.44.09,12.89.31,19.16-1.59h.02c1.03-1.18,2.33-1.48,3.81-1.25.27-.24.57-.33.93-.26h0c.73-1.03,1.76-1.17,2.9-.96.29-.23.63-.31.99-.25.72-.99,1.71-1.18,2.83-.96,13.01-4.36,26.29-7.63,39.8-9.93,1.86-.32,3.78-.36,5.67-.36,16.44.03,32.89.09,49.33.17,1.04,0,2.08.26,3.11.4.88-.03,1.76-.06,2.64-.09.13-.02.25-.04.38-.06-.02-.62-.05-1.25-.07-1.87,0-.42,0-.85,0-1.27Z"/>
      <path class="cls-28" d="M605.05,485s0,.02,0,.03h.04s-.02-.02-.03-.03Z"/>
      <path class="cls-28" d="M499.59,469.42c0,.08,0,.16-.02.25.09-.1.18-.21.31-.29-.1.02-.2.03-.3.05Z"/>
      <path class="cls-28" d="M498.44,465.61s0-.02-.02-.03c0,0,0,0,0,0,0,0,0,0,0,0,0,.02,0,.04,0,.06.01,0,.02-.02.03-.02Z"/>
      <path class="cls-28" d="M260.93,352.24s-.04-.02-.06-.04c0,.03,0,.06,0,.09.02-.02.03-.04.05-.06Z"/>
      <path class="cls-28" d="M261.14,348.38c-.08-.08-.14-.17-.21-.25-.03.11,0,.23-.02.34h0s0,0,0,0c.07-.04.15-.04.23-.09Z"/>
      <path class="cls-28" d="M214.02,482.69c1.06,0,2.13-.11,3.17.03,5.35.7,9.5-1.19,12.5-5.68.11-1.36.36-2.68,1.37-3.71.1-1.16.2-2.32.3-3.49,0-2.07-.14-4.15.02-6.2.18-2.25.92-2.88,3.14-2.98,1.86-.08,3.72-.02,5.58-.04,1.04-.01,2.07-.1,2.7-1.13-3.06-2.27-6.76-2.14-10.25-2.81-.79-.46-.98-1.21-.97-2.05,0-.71.02-1.43.03-2.14-1,0-2,0-3,.04-2.22.1-2.96.73-3.14,2.98-.16,2.06-.02,4.13-.02,6.2-.1,1.16-.2,2.32-.3,3.49-1.01,1.03-1.26,2.34-1.37,3.71-3,4.49-7.15,6.38-12.5,5.68-1.04-.14-2.11-.02-3.17-.03-69.13-.49-138.27-.56-207.4-1.14h0c-.14,2.68-.26,5.37-.36,8.07,71.22.63,142.45.69,213.68,1.2ZM226.44,461.47c0,.09.02.18.03.28-.22-.02-.43-.11-.65-.12.21-.05.41-.1.62-.15Z"/>
      <path class="cls-28" d="M487.83,544.09c-.1.08-.17.17-.27.25.1.12.18.26.27.38,0-.21,0-.42,0-.63Z"/>
      <path class="cls-28" d="M586.32,359.6s-.07.02-.1.03c.04.04.05.09.1.13h0c0-.05,0-.11,0-.16Z"/>
      <path class="cls-28" d="M586.32,350.46c-.19.04-.38.07-.57.11.2.11.42.09.61.21-.02-.14-.03-.19-.05-.31Z"/>
      <path class="cls-28" d="M441.17,433.35c0,.09,0,.17,0,.26.04-.02.09-.05.13-.07-.04-.07-.08-.12-.12-.19Z"/>
      <path class="cls-28" d="M586.41,350.74l-.04.03s.03.03.04.04v-.08Z"/>
      <path class="cls-28" d="M486.8,482.19h0s-.03,0-.05,0c0,.01.01.02.02.04,0-.02.02-.02.03-.04Z"/>
      <path class="cls-28" d="M499.44,471.73c-.06.08-.12.16-.17.25.1-.01.18-.03.28-.04-.02-.09-.09-.1-.1-.2Z"/>
      <path class="cls-28" d="M606.32,485.89v.42c.09,0,.18,0,.26,0-.08-.14-.24-.27-.26-.42Z"/>
      <path class="cls-28" d="M350.88,622.76c-.03-4.39-.02-8.78.03-13.17.02-5.62.03-11.24.04-16.86,0-1.69.04-3.38-.02-5.07-.08-2.25-.46-2.62-2.54-2.64-1.12,0-2.24,0-3.36,0-.02,5.48-.02,10.97-.04,16.45-.06,4.39-.07,8.78-.03,13.17,0,3.09-.02,6.18-.02,9.27,0,2.08-.44,4.23.53,6.24v-.03s0,.02,0,.04l-.23.29.21.3c-.2,1.2-.04,2.23,1.24,2.76,0,0,0,0,0,0,.42.38.82,1.01,1.26,1.04.94.07,1.89.12,2.83.12.02-.87.09-1.75.09-2.61,0-3.09.02-6.18.02-9.27Z"/>
      <path class="cls-28" d="M606.62,487.6c-.11,0-.21,0-.32,0,.1.2.27.31.38.49,0-.19-.08-.28-.06-.49Z"/>
      <path class="cls-28" d="M440.69,429.44c.03.23.06.45.08.68.19-.23.32-.51.62-.64l-.34-.12-.35.07Z"/>
      <path class="cls-28" d="M295.15,393.2l-.24.15c.09-.04.18-.07.27-.11-.02-.01-.01-.03-.03-.04Z"/>
      <path class="cls-28" d="M442.51,349.22s.1.09.15.14c.08-.2.17-.4.25-.59,0,0-.4.45-.4.45h0Z"/>
      <path class="cls-28" d="M433.68,398.81s0-.03,0-.04c-.02.02-.05.04-.07.06l.07-.02h0Z"/>
      <path class="cls-28" d="M606.28,487.58v.05l.02-.03s-.02-.02-.02-.02Z"/>
      <path class="cls-28" d="M225.48,595.37c-.44-1.18-1.21-1.59-2.32-1.68-.25.29-.51.57-.77.85.44,1.06.88,2.11,1.35,3.15,1.18,2.64,2.42,5.32,4.86,7.12.45.76.95,1.44,1.53,2.04-.16-.34-.31-.69-.47-1.03-1.54-3.42-2.87-6.93-4.18-10.45Z"/>
      <path class="cls-28" d="M444.15,364.3s-.16.02-.29.03c-.03.02-.07.04-.1.06.13.11.26.22.39.33,0-.14,0-.29,0-.43Z"/>
      <path class="cls-28" d="M441.29,379.74h0c0-.07,0-.13,0-.19-.05.06-.09.13-.15.19.05,0,.09,0,.14,0,0,0,0,0,0,0Z"/>
      <path class="cls-16" d="M22.5,623.83c.65.48,1.43.79,2.16,1.18l.02.02c.85,1.42,2.09,2.32,3.63,2.83,0,0,0,0,0-.01.62.18,1.01.65,1.38,1.15,3.25,3.01,6.51,6,9.74,9.03,7.11,6.68,13.85,13.72,19.96,21.34,2.46,3.07,5.27,5.51,9.49,5.53,6.29,1.79,12.78,2,19.24,2.51,1.64.41,3.26.92,4.91,1.22,14.45,2.66,28.4,6.78,41.2,14.25,1.5.87,3.02,1.43,4.75,1.59,5.06.46,10.11,1,15.16,1.58,10.34,1.17,20.7,1.45,31.09.94,2.12-.1,4.18-.45,6.25-1,4.23-1.13,7.13-3.7,8.66-7.73.97-2.57,1.89-5.23,2.31-7.93,1.08-6.93,1.88-13.91,2.76-20.88,1.36-10.76,2.55-21.53,4.8-32.18,1.54-7.3,4.85-13.56,9.39-19.28.95-1.19,1.98-2.31,3-3.44.26-.28.51-.56.77-.85,1.11.08,1.88.5,2.32,1.68,1.32,3.51,2.65,7.03,4.18,10.45.15.34.31.69.47,1.03,1.06,2.29,2.27,4.52,4.39,6.09,1.14,1.95,2.65,3.44,4.9,4.03h0c.53.24,1.01.55,1.46.91l.39.36h.53c.69,1.08,1.72,1.25,2.88,1.05,0,0,0,0,0,0,0,0,0,0,0,0,2.15,1.08,4.47,1.13,6.8,1.14,18.99.06,37.98.12,56.97.18,2.11,0,4.23.11,6.17-1,7.12-1.01,11.85-5.32,15.42-11.24.42-.45.95-.85,1.26-1.37,3.9-6.59,5.47-13.76,5.17-21.38,1.66-.2,3.33-.39,4.99-.59,1.18,0,2.37,0,3.55,0,1.12,0,2.24,0,3.36,0,2.08.02,2.46.39,2.54,2.64.06,1.69.02,3.38.02,5.07-.02,5.62-.02,11.24-.04,16.86-.06,4.39-.07,8.78-.03,13.17,0,3.09-.02,6.18-.02,9.27,0,.87-.07,1.74-.09,2.61-.03,1.23.05,2.45.62,3.62v-.03s0,.02,0,.03l-.23.29.21.3c-.2,1.2-.04,2.23,1.24,2.76,0,0,0,0,0,0,.42.38.82,1.01,1.26,1.04,3.21.23,6.42.29,9.46-1.05.75.3,1.46.2,2.14-.19,2.81.12,5.64.34,8.26-1.06h0s0,0,0,0c.7.38,1.33.27,1.91-.26.82.15,1.2-.33,1.48-.99,1-.08,1.92-.34,2.61-1.13,1.61.34,3.21.69,4.82,1.03h0c.87.48,1.71.32,2.55-.08,2.11-.07,4.23,0,6.31-.24,9.88-1.11,19.75-2.29,29.61-3.49,10.07-1.23,20.14-2.51,30.22-3.77,4.92.3,9.67-1.1,14.52-1.51.29-.02.54-.56.81-.85.69-.13,1.23-.45,1.49-1.15l.55.02.46-.29c1.18.17,2.47.11,3.52.57,2.42,1.05,4.66.83,6.93-.3.63.03,1.26.14,1.88.07,4.59-.58,6.34-2.35,6.65-6.79.09-1.26.03-2.53.03-3.8.04-11.61.07-23.21.12-34.82,0-2.31-.22-4.65.47-6.92,2.42.2,4.55-.88,6.73-1.6,19.64-6.47,39.23-13.06,58.88-19.47,11.83-3.86,23.48-8.3,35.58-11.28,2.66-.65,5.29-1.4,7.93-2.1,1.99.14,3.97.17,5.72-1.04h0s0,0,0,0c.63-.06,1.27-.12,1.9-.19,5.49-.22,10.98-.64,16.48-.62,19.05.06,38.1.33,57.15.43,48.06.25,96.11.47,144.17.66,34.09.14,68.17.23,102.26.33,3.17,0,6.37.24,9.36-1.19.55-.36,1.04-.85,1.76-.87h.47s.28-.37.28-.37c1.34-.26,2.17-1.11,2.69-2.33,1.01-.33,1.31-1.12,1.35-2.08,1-.93,1.19-2.18,1.25-3.43.25-4.99.56-9.99.02-14.98.55-2.98.52-5.96.02-8.95.38-.85.37-1.7.01-2.55,0-.43,0-.85.01-1.28.31-.33.32-.67.04-1.02.84-1.79.67-3.58.03-5.37.34-.86.3-1.71-.06-2.55.5-2.13.55-4.25.03-6.38.34-.86.35-1.71-.03-2.56.35-.86.33-1.71-.04-2.56.55-1.03,1.42-1.55,2.56-1.57,2.12-.04,4.24-.04,6.35-.03,15.36.05,30.71.1,46.07.15-.58-15.36-1.85-30.54-3.79-45.52-45.78-.16-91.55-.32-137.33-.48-17.17-.06-34.33-.21-51.5-.15-2.59,0-4.45-.73-5.95-2.71h0c-.58-.49-1.04-1.04-1.01-1.85-1.82-3.17-2.77-3.65-6.49-3.17-2.21.29-2.29,2.14-2.64,3.77-.46.42-.9.87-1.39,1.25-3.92,3.01-5.32,3.1-9.58.63-.54-.31-1.02-.7-1.53-1.06.03-.39-.11-.7-.43-.93-.38-.57-.89-1.08-.81-1.85-1.25-2.32-2.53-2.53-5.43-.89-.89.7-1.16,1.66-1.12,2.75l-.03.07c-.46.42-.9.88-1.4,1.25-3.92,2.98-5.36,3.06-9.58.57-.53-.31-1.02-.71-1.52-1.07.04-.38-.1-.68-.42-.9-.64-.76-.37-1.89-1.07-2.63-2.14-1.54-2.93-1.55-5.19-.07-.84.69-1.17,1.6-1.1,2.68-.32.2-.46.49-.42.86-.5.35-1.02.69-1.51,1.07-3.05,2.3-6.08,2.28-9.11-.03-.49-.37-1-.72-1.5-1.08.04-.37-.1-.66-.41-.86.07-1.07-.26-1.97-1.08-2.67-2.22-1.5-3.01-1.5-5.19.01-.68.74-.43,1.87-1.08,2.63-.32.21-.47.5-.44.89-.5.35-1.01.7-1.51,1.07-3.06,2.26-6.09,2.27-9.11-.07-.49-.38-1-.72-1.5-1.09.04-.37-.09-.64-.41-.83.06-1.08-.23-2.01-1.09-2.7-2.29-1.48-3.09-1.46-5.19.08-.71.72-.45,1.84-1.07,2.59-.32.22-.47.53-.45.92-.51.35-1,.74-1.54,1.05-4.26,2.46-5.67,2.36-9.57-.67-.49-.38-.92-.84-1.39-1.27l-.02-.05c.04-1.09-.2-2.07-1.11-2.78-1.39-1.78-3.16-.98-4.8-.63-.31.07-.43,1-.65,1.54.05.75-.45,1.25-.82,1.81-.33.23-.48.54-.45.94-3.39,2.88-6.99,3.55-10.92,1.11-.53-.67-1.06-1.35-1.59-2.02l-.02-.05c.03-1.09-.18-2.08-1.11-2.78-1.39-1.77-3.17-.99-4.8-.6-.3.07-.39,1.02-.57,1.57-.85.76-1.2,1.76-1.36,2.86-.67.1-1.05.49-1.19,1.14-4.42,2.54-8.1,1.43-11.25-2.31-.1-1.23-.27-2.56-1.32-3.25-1.41-.92-3.09-.72-4.6-.12-.37.15-.45,1.04-.66,1.58,0,.71-.49,1.2-.81,1.76-.34.21-.48.51-.43.91-.2.72-.55,1.31-1.34,1.51-.02,0-.03,0-.05,0-4.39,2.21-8.07,1.26-11.14-2.49-.09-1.23-.24-2.58-1.33-3.24-1.44-.86-3.12-.72-4.62-.06-.37.16-.42,1.06-.61,1.62,0,.68-.53,1.12-.79,1.69-.34.23-.49.55-.45.96-.23.68-.57,1.26-1.33,1.47-.01,0-.03,0-.04,0-4.4,2.19-8.1,1.25-11.16-2.54-.1-1.23-.2-2.6-1.34-3.23-1.46-.81-3.14-.72-4.63,0-.37.18-.4,1.07-.59,1.63-.06.64-.56,1.07-.78,1.63-.35.24-.5.57-.47.99-.25.66-.59,1.23-1.32,1.45-.01,0-.02,0-.04,0-2.88,1.28-5.79,1.65-8.75.22l-.1-.06c-.29-.47-.67-.84-1.16-1.1-.4-.51-.81-1.02-1.21-1.52.04-1.11,0-2.2-1.12-2.86-1.31-1.37-2.9-.9-4.41-.59-1.01.21-.82,1.21-.94,1.96-.86,1.26-1.72,2.53-2.57,3.79-3.55,1.83-6.93,1.67-10.11-.87l-.13-.16c-.3-.53-.72-.99-1.01-1.53-.12-1.22-.1-2.65-1.34-3.22-1.5-.69-3.19-.7-4.67.15-.37.21-.37,1.1-.55,1.67-.76.75-1.22,1.64-1.34,2.71-.25.58-.61,1.06-1.23,1.28,0,0-.01,0-.02,0-2.9,1.3-5.82,1.63-8.77.16-.81-.89-1.62-1.79-2.43-2.68-.06-1.39.06-3.1-1.59-3.47-1.53-.34-3.5-1.29-4.61.99-.3.32-.4.69-.29,1.11-.86,1.25-1.73,2.51-2.59,3.77-3.59,1.82-6.97,1.6-10.12-1h0s-.07-.09-.07-.09c-.38-.5-.81-.98-1.05-1.58-.13-1.21-.02-2.66-1.35-3.19-1.53-.6-3.23-.69-4.69.25-.38.24-.35,1.12-.51,1.7-.72.75-1.22,1.6-1.33,2.65-.29.54-.65,1.03-1.24,1.27,0,0,0,0-.02,0-3.59,1.72-6.97,1.48-10.09-1.11l-.05-.07c-.42-.5-.84-.99-1.05-1.62-.13-1.21-.04-2.67-1.39-3.16-1.53-.56-3.24-.69-4.69.3-.37.25-.33,1.13-.47,1.72-.7.74-1.23,1.57-1.33,2.62-.31.53-.67,1.01-1.25,1.28,0,0,0,0,0,0-3.61,1.73-6.98,1.42-10.1-1.16l-.04-.05c-.45-.48-.87-.98-1.07-1.63q-.87-3.4-3.27-3.46c-2.55-.06-2.6-.01-3.47,3.14.05.87-.46,1.41-1.12,1.84-.33.51-.68,1-1.26,1.26h0c-3.62,1.71-7,1.42-10.11-1.2l-.02-.03c-.48-.48-.91-.98-1.07-1.67q-.88-3.36-3.31-3.42c-2.54-.05-2.58-.01-3.43,3.2,0,.82-.47,1.35-1.1,1.78-3.11,2.49-6.46,3.1-10.11,1.28-.8-.92-1.6-1.84-2.4-2.76.08-.4-.02-.75-.3-1.05-.09-.58.03-1.47-.3-1.71-1.78-1.27-3.72-1.28-5.52-.02-.34.24-.22,1.12-.31,1.71-.29.26-.39.59-.3.97-.79.93-1.58,1.86-2.37,2.78-1.7,0-1.61-1.61-2.27-2.54-.29.13-.43.41-.62.64-.03-.23-.06-.45-.08-.68l.35-.07.34.12c-.04-1.28-.07-2.55-.11-3.83.37-.84.28-1.67-.06-2.5.36-1.73.45-3.46.33-5.19-.06-.83-.15-1.66-.3-2.49.5-2.98.52-5.96.03-8.94.48-2.13.52-4.26.03-6.39.54-2.01.44-4.03.14-6.06,1.27-2.1,2.82-3.32,5.57-3.15,4.37.28,8.77.11,13.15.11,5.2,0,10.42-.24,15.45,1.48l.35.32.47-.09c.77.99,1.82,1.15,2.97,1.02,0,0,0,0,0,0,0,0,0,0,0,0l.41.32.52-.08c.74.96,1.75,1.15,2.87,1.01,9.25,3.69,18.95,5.89,28.53,8.48,9.65,2.6,19.42,3.96,29.46,3.78,12.48-.23,24.96.03,37.45.04,2.1,0,4.2-.23,6.3-.35,2.5.12,4.99.35,7.49.31,1.64-.03,2.76-.91,2.59-2.81.58-14.9.44-29.81.18-44.71.7-6.4.32-12.8.08-19.2,0-.42,0-.84,0-1.27.36-1.45.7-2.89-.67-4.05-1.51-1.73-3.35-1.24-5.18-.94-.13.02-.25.04-.38.06-.88.03-1.76.06-2.64.09-1.04-.14-2.08-.39-3.11-.4-16.44-.08-32.89-.14-49.33-.17-1.89,0-3.81.04-5.67.36-13.51,2.3-26.79,5.57-39.8,9.93-1.12-.22-2.11-.03-2.83.96-.37-.06-.7.02-.99.25-1.14-.2-2.16-.06-2.9.96h0c-.35-.07-.66.02-.93.26-1.48-.24-2.79.07-3.81,1.24h-.02c-6.27,1.9-12.72,1.69-19.16,1.6-3.13-.04-6.26-.03-9.38-.03-1.88,0-3.76.04-5.56-.62-.08.2-.17.39-.25.59-.05-.05-.1-.09-.15-.14h0s.4-.45.4-.45c-.25-.71-.66-1.18-1.5-1.01-10.38-.77-20.79-.28-31.18-.38-.88,0-1.59.35-2.05,1.15-.36.25-.73.49-1.09.74-6.79.29-13.58.32-20.37-.31q-5.82-.71-6.08-6.58c-.02-.41-.15-.82-.24-1.24.1-.11.21-.21.31-.32.32-.33.63-.65.95-.98,1.47.04,2.95.12,4.42.12.9,0,1.6-.4,1.8-1.38.08-.42.15-.84.23-1.27.36-.24.41-.53.14-.88,0,0,0,0,0-.01,1.02-4.94.99-8.42-.12-13.17-.14-.9-.59-1.67-1.47-1.85-1.19-.24-2.41-.38-3.62-.4-.04,0-.08,0-.12,0-10.77-.06-21.55-.07-32.32-.09-.84,0-1.69.03-2.52.17-1.38.23-2.47,1.1-2.58,2.44-.23,2.69-.61,5.4-.61,8.09,0,2.3.28,4.6,1.17,6.86.25.73.77,1.15,1.46,1.25.09.01.17.04.26.04,1.55.03,3.1-.04,4.65-.07.25.27.55.36.9.27.04,2.77.08,5.55.12,8.33-3.14.28-6.28.83-9.41.8-5.22-.06-10.5.89-15.64-.81-.49-.36-.97-1.03-1.47-1.03-10.37-.12-20.74-.17-31.11-.2-.89,0-1.58.51-2,1.32-4.77,1.25-9.62.47-14.44.54-1.38.02-2.23-1.07-3.32-1.66-3.18-5.14-7.49-8.24-13.81-7.76-.4.03-.81-.15-1.22-.24-.39-1.62-1.37-2.47-3.06-2.56-5.18-.29-10.37-.44-15.54.09-.88.09-1.54.53-1.94,1.33-1.78,1.52-3.93,1.24-6.01,1.24-8.83-.02-17.65-.05-26.48-.08-9.45-.03-18.91-.08-28.36-.07-1.83,0-3.84-.55-5.31,1.17-.33-.06-.67-.09-1.01-.07-3.67-1.94-7.41-1.66-11.16-.27-.15.06-.22.34-.32.52h0l-.1.11c-1.66.88-1.32,2.47-1.33,3.9-.1,15.21-.19,30.42-.27,45.62,0,.42,0,.84.01,1.27.01,1.48.05,2.96.09,4.43.03.89.44,1.6,1.22,2.06,3.83,2.41,7.72,2.01,11.65.29,2.31,1.33,4.85,1.18,7.37,1.19,17.27.04,34.53.11,51.8.16,1.47,0,2.95.03,4.42.02,1.09-.01,2.16.09,2.81,1.07,1.51,2.27,3.94,2.33,6.18,2.4,3.78.13,7.57-.07,11.36-.14.84-.02,1.67-.09,2.2-.9,1.09-.28,1.41-1.15,1.62-2.12q8.78-.54,15.12-7.33c.14-.15.28-.32.4-.49.83-1.06,1.86-1.67,3.26-1.62,3.12.11,6.25-.1,9.37,0,1.52.05,3.04.18,4.56.46l.03-.1c-.06.47.11.82.51,1.06.26.48.53.96.79,1.44l.24-.15s.01.03.03.04c-.09.04-.18.07-.27.11.04,9.76.08,19.53.12,29.29,0,.87-.02,1.74-.02,2.61-.1,2.02-.21,4.05-.31,6.07-.75,0-1.51.01-2.26.02-.15-.65-.55-1.04-1.21-1.14-.1-1.05-.56-1.93-1.31-2.66-.11-.78-.02-1.79-.99-1.98-3.05-.6-6.07-.89-7.96,2.44-.51.2-.84.57-1.02,1.09l-.19.2c-.45.43-.89.86-1.34,1.28-.51.19-.84.54-1,1.06l-.26.27c-2.04,1.22-3.63,2.91-4.98,4.84-1.38.83-3.35.62-4.18,2.42-5.38.07-10.76.13-16.15.2-2.67.04-5.45-1.01-7.94.81-.81.53-1.62,1.06-2.43,1.59-1.3.43-2.6.87-3.91,1.3-1.16-.04-2.31-.09-3.47-.11-.83-.01-1.47.31-1.69,1.2-.13.13-.39.28-.38.39.04.35.19.68.29,1.02-.31,1.25-.48,2.51-.58,3.78-.09,1.05-.13,2.1-.15,3.16-.01.71-.02,1.43-.03,2.14-.01.84.18,1.59.97,2.05,3.49.67,7.2.54,10.25,2.81-.63,1.03-1.65,1.12-2.7,1.13-1.86.02-3.72-.05-5.58.04-2.22.1-2.96.73-3.14,2.98-.16,2.06-.02,4.13-.02,6.2-.1,1.16-.2,2.32-.3,3.49-1.01,1.03-1.26,2.34-1.37,3.71-3,4.49-7.15,6.38-12.5,5.68-1.04-.14-2.11-.02-3.17-.03-71.23-.51-142.45-.57-213.68-1.2-.22,6.14-.34,12.32-.34,18.51,0,40.61,4.85,80.08,13.98,117.88h0c2.89,1.9,5.73,3.89,8.52,5.95ZM260.91,348.47c.03-.11,0-.23.02-.34.07.08.13.17.21.25-.08.04-.15.04-.23.09,0,0,0,0,0,0h0ZM260.93,352.24s-.03.04-.05.06c0-.03,0-.06,0-.09.02.01.04.02.06.04ZM258.18,367.48v.05h0s-.04-.01-.07-.02c.03,0,.05-.02.07-.03ZM253.72,349.67c-.05,0-.1,0-.15,0,.02-.06.13-.06.1-.15-.16-.49.1-.2.05.15ZM247.32,359.84c-.13.1-.26.21-.38.32-.24-.14-.48-.17-.73-.36.39.05.74.02,1.11.04ZM173.37,359.96c-.12.02-.21,0-.34.03,0-.11,0-.23,0-.34.16.07.22.21.34.32ZM162.75,364.63c0,.21,0,.42,0,.63-.07-.06-.12-.12-.19-.18.1-.14.06-.32.18-.45ZM343.23,466.02c.13.12.26.25.43.31-.11,0-.21-.02-.32-.02-.03-.11-.08-.18-.11-.29ZM344.43,458.61h0s0,0,0-.01c0,0,0,0,0,.01h-.02ZM346.22,581.62c0-.09,0-.17-.01-.27.13,0,.25,0,.38,0h0c-.11.13-.25.17-.37.27ZM348.37,448.5s-.1-.08-.15-.12c0,0,0,0,.01,0,0,0,.08.07.13.12h0ZM352,480.36s.07-.04.1-.09c.02.06.03.11.05.17-.05-.03-.1-.05-.15-.08ZM376.54,638.77c.06-.03.11-.06.17-.09.13.14.26.27.39.41-.2-.09-.38-.2-.56-.32ZM472.51,577.77c0,.06,0,.11.02.17,0,0-.01,0-.02,0,0-.05,0-.11,0-.16ZM603.47,538.61c.11-.11.25-.13.37-.22.03.08.03.19.07.26-.15,0-.29-.02-.44-.04ZM943.38,472.07v.03s0-.02-.02-.03h.02ZM911.47,514.13s.05.01.07.03c-.02.02-.05.04-.08.06,0-.03,0-.06,0-.08ZM907.65,507.76c.23-.06.46-.04.69-.09-.12.21-.29.44-.37.64-.11-.18-.22-.36-.32-.54,0,0,0,0,0,0,0,0,0,0,0,0ZM906.56,493.38c.16.07.3.19.46.28-.2,0-.41,0-.61,0,.03-.1.11-.18.15-.28ZM901.27,525.64s0,0,0,0c-.04.22.01.24,0,.43-.16-.1-.31-.28-.46-.43.16,0,.31,0,.47,0h0ZM664.69,519.75v.02-.02c.01.1-.05.16-.06.26-.09-.04-.16-.03-.25-.06.12-.08.18-.11.31-.19ZM648.26,490.26c.11-.12.25-.15.36-.25-.02.1-.08.14-.1.25-.09,0-.18,0-.27,0h0ZM608.87,492.73s0,.11,0,.15c-.01-.01-.03-.02-.04-.03l.05-.12ZM606.32,485.03c.06,0,.12,0,.18,0-.1.25-.2.5-.18.73v-.73ZM606.3,486.32h.02v-.43c.03.15.18.28.26.42-.09,0-.18,0-.26,0,0,0-.02.02-.02.02h0ZM606.28,487.58s.02.02.02.02c.11,0,.22,0,.32,0-.02.21.06.3.06.49-.11-.18-.28-.29-.38-.49l-.02.03v-.05ZM605.05,485s.02.02.03.03h-.04s0-.02,0-.03ZM499.59,469.42c.1-.02.2-.03.3-.05-.13.09-.23.19-.31.29,0-.08,0-.16.02-.25ZM499.44,471.73c.01.1.09.11.1.2-.1,0-.18.03-.28.04.06-.08.11-.16.17-.25ZM498.41,465.58s0,0,0,0c.01,0,0,.02.02.03-.01,0-.02.02-.03.02,0-.02,0-.04,0-.06,0,0,0,0,0,0ZM487.83,544.09c0,.21,0,.42,0,.63-.09-.13-.17-.26-.27-.38.11-.08.18-.17.27-.25ZM486.8,482.19h0s-.02.02-.03.04c0-.01,0-.02-.02-.04h.05ZM441.17,433.35c.04.07.08.12.12.19-.04.02-.09.05-.13.07,0-.09,0-.17,0-.26ZM586.22,359.63s.07-.01.1-.03c0,.05,0,.1,0,.16h0s-.05-.09-.1-.13ZM586.32,350.46c.01.12.03.18.05.31l.04-.03v.08s-.03-.03-.04-.04c-.2-.12-.42-.1-.61-.21.19-.04.38-.07.57-.11ZM443.86,364.34c.13-.01.29-.03.29-.03,0,.14,0,.29,0,.43-.13-.11-.26-.22-.39-.33.03-.02.07-.04.1-.06ZM441.29,379.55c0,.06,0,.13,0,.19h0s0,0,0,0c-.05,0-.09,0-.14,0,.06-.06.1-.13.15-.19ZM433.61,398.83s.05-.04.07-.06c0,.01,0,.03,0,.04h0l-.07.02s.01.05.01.08c-.02-.02-.03-.04-.05-.06.01,0,.02-.01.03-.02ZM412.76,577.72s-.07.06-.09.1c0-.04-.03-.06-.04-.09.04,0,.09,0,.13,0ZM409.53,375.65v.12c-.19,0-.37-.02-.55-.02.19-.02.38,0,.55-.09ZM408.3,392.34h.03c.26-.08.53-.09.8-.03.18,0,.37.02.37.02v.04c-.13-.04-.24-.03-.37-.06-.11,0-.23,0-.23,0l-.57.04c-.2.06-.4.1-.59.28-2.57,9.94-.59,19.9-.2,29.86.43.53.99.74,1.65.74,0,0,0,0,0,.01-1.72.56-3.5,1.04-3.93,3.2.12.27.4.34.6.52-.07.4-.13.81-.2,1.21-.22.24-.26.53-.25.84-.1-.02-.16-.1-.27-.1-3.94,1.93-7.96,2.92-12.25,1.22-.1.01-.19.04-.29.06-.39-.38-.8-.74-.83-1.34-.82-3.22-.86-3.26-3.39-3.24-2.45.02-2.46.03-3.35,3.36-.11.64-.52,1.08-.96,1.51-.08-.04-.15-.03-.23-.08-3.9.7-7.77.69-11.6-.39,0,0-.02,0-.03,0-.36-.37-.78-.7-.78-1.29-.18-.8-.11-1.85-.6-2.36-1.31-1.36-3.11-.97-4.66-.55-1.43.39-1.34,1.92-1.48,3.15-.12.44-.43.74-.7,1.07-.17-.01-.33.02-.49,0-3.33,1.05-6.73,1.27-10.18.96-.19.04-.37.02-.56.05-.18-.22-.43-.36-.58-.6l.04.05c-.67-.45-1.18-.99-1.13-1.88-.19-.8-.12-1.86-.61-2.36-1.32-1.32-3.13-.96-4.67-.51-1.41.41-1.31,1.94-1.45,3.17-.17.56-.55.98-.92,1.41-.04-.02-.08,0-.12-.03-4.66,1.54-8.72.32-12.37-2.73-.2.04-.25.23-.41.31,0-.01,0-.02.01-.03.15-1.89-1.05-2.37-2.59-2.49l-.59.09s-.09-.07-.13-.1c.56-.03,1.14-.03,1.5-.58.17-.92.3-1.85.44-2.77,1.45-9.73,1.33-19.46-.32-29.2-.2-.33-.45-.5-.71-.63h.05c8.07,1.3,16.19.29,24.3.54,1.35-.08,2.67-.24,3.92-.8.03-.02.02-.04.05-.06,8.44.47,16.88.49,25.32-.12.39-.03.76-.34,1.14-.52.8-.1,1.6-.2,2.4-.3,5.14,0,10.28,0,15.42.01,2.08,0,4.16,0,6.24,0,.44.48.88.95,1.32,1.43ZM328.85,544.22c-.1-.11-.22-.14-.31-.24.12-.1.2-.21.3-.32,0,.19,0,.37.01.56ZM326.47,398.37s0,0-.01-.01c0,0,0,0,.01,0,0,0,0,.02,0,.02ZM359.86,387.33s0,0,0,0h0s0,0,0,0ZM358.78,386.97s0,0-.01.01c0,0,0,0,0-.02,0,0,0,0,0,0ZM354.78,383.91c.13.15.18.33.32.47-.11.01-.22.03-.33.04.07-.17-.01-.34.01-.52ZM375.15,387.18c-.1-.09-.21-.18-.31-.27.03-.02.05-.05.08-.07.03.14.19.2.24.33ZM386.9,375.59s-.04.1-.08.14c0-.04,0-.07,0-.11.03,0,.05-.02.09-.03ZM384.17,364.22c-.06.07-.12.13-.19.2h0s0,0,0,0c-.01-.03-.04-.04-.05-.07.09-.03.15-.09.24-.13ZM365.2,337.15s.08.06.1.09h-.14s.03-.06.05-.09ZM358.93,354s-.06.05-.1.07c-.02-.06-.01-.14-.04-.2.04.04.09.08.13.12ZM330.86,358.79s.07.05.11.09c-.07,0-.15,0-.22,0,.03-.05.08-.04.12-.08ZM329.64,351.2c.19,0,.37,0,.56,0-.16.06-.32.08-.49.15-.04-.05-.11-.04-.15-.1.02-.02.05-.03.08-.05ZM328.25,351.19s.07.04.11.06c-.03,0-.06,0-.1,0,0,0-.01-.02-.02-.03,0-.01,0-.02.01-.03ZM320.46,395.93h0c.02.09.04.19.05.29-.1,0-.2-.03-.3-.04.1-.08.16-.17.24-.26ZM316.32,493.04h.02s-.02.02-.02.04v-.04ZM316.31,495.6c.07,0,.13,0,.2,0-.12.21-.17.41-.2.6v-.6ZM316.31,496.66c.02.07.1.14.14.21-.05,0-.09,0-.14,0v-.21ZM315.04,495.59h.02s0,.01-.02.02v-.02ZM308.73,482.5c0,.09,0,.19,0,.28-.11,0-.22,0-.33,0,.11-.1.24-.17.33-.29ZM302.56,501.61c-.1.11-.12.23-.24.34,0-.15,0-.3-.01-.45.08.05.17.06.25.11ZM298.84,395.86h0c.11.44.21.46.3.73-.23,0-.47-.18-.71-.38.13-.12.21-.26.4-.35ZM297.59,432.78s.01-.02.02-.05c.04-.03.08-.06.12-.09,0,.03,0,.01,0,.05-.13.3-.14.21-.16.17-.02-.02-.03-.02-.04-.04.02-.02.05-.01.08-.04ZM297.5,432.82h0s0,0-.01,0c0,0,0,0,.01,0ZM297.48,499.13c-.07.09-.15.17-.22.25,0-.08,0-.16,0-.24.09-.03.14,0,.23-.01ZM292.17,472.57s.01.02.02.03c-.02,0-.04,0-.05,0l.03-.04ZM286.95,519.85h0v.09c-.1-.06-.22-.02-.33-.04,0,0,0,0,0,0-.01-.03-.04-.04-.05-.06.13,0,.25.01.38.02ZM285.62,518.5c.11-.11.22-.21.33-.32l.07.26s-.4.06-.4.06c.01.07,0,.15.01.22-.04-.03-.05-.08-.09-.11.03-.04.04-.08.07-.12ZM268.13,447.84c0,.1,0,.21,0,.31h0s0,0,0,0c-.04-.02-.1-.01-.14-.04.08-.09.07-.19.15-.28ZM264.24,441.64s.06.05.1.12c-.2,0-.4,0-.6,0,.16-.05.33-.06.5-.12ZM257.57,538.87s-.02,0-.03,0c.01,0,.02,0,.03,0,0,0,0,0,0,0ZM256.82,538.87c-.14.02-.27.05-.41.06,0-.02-.01-.04-.02-.06.14,0,.29,0,.43,0ZM256.34,564.34l.04.07c.13.17.28.32.42.48.26.28.5.56.63.94-.13.43-.05.82.27,1.14h0s0,0,0,0c-.1,1.49.06,2.93.96,4.19h0c.07.74.14,1.48.21,2.21.02.6.04,1.2.07,1.79,0,.26.02.51.03.77-.26,1.84-.21,3.61,1.09,5.12,0,0,0,.02-.01.02h0c0,1.4.21,2.7.61,3.92.62,1.87,1.69,3.56,3.14,5.08,0,0,0,0,0,0,.54.34.97.77,1.12,1.42.71.19,1.1.7,1.35,1.36,2.78,2.78,6.19,4.32,9.99,5.04.65.12,1.35-.21,1.46-.84.1-.54-.08-1.46-.45-1.69-2.35-1.41-4.79-2.68-7.2-4-.28-.48-.68-.84-1.2-1.04l-.18-.17c-.24-.32-.46-.64-.69-.97-1.21-1.74-2.23-3.56-2.99-5.48-.78-1.98-1.3-4.07-1.47-6.31-.04-.6-.46-1.17-.7-1.75-.07-1.6-.15-3.2-.22-4.8.43-1.29.85-2.58,1.28-3.87-.1-.07-.2-.14-.3-.22.02,0,.04,0,.06-.01l.24.23c.79-.54,1.38-1.21,1.59-2.17,1.41-.27,2.83-.75,4.24-.74,14.6.06,29.19.21,43.79.33,2.84.87,5.28,2.33,7.5,4.12,1.41,1.15,2.73,2.43,4,3.8,1.34,3,2.67,6.01,4.01,9.01-.1.22-.25.37-.33.63-.6,2.29-.38,4.66-.74,6.97-1.9,12.19-9.39,19.55-21.17,19.78-17.13.33-34.27.3-51.39-.17-9.02-.25-16.2-5.58-19.4-13.19-1.42-3.38-2.07-7.2-1.74-11.23.17-2.1.83-4.2-.11-6.28-.26-.18-.43-.14-.66-.25.1-.08.14-.2.25-.28,3.08-1.03,4.51-3.06,3.83-6.38-.04-.04-.09,0-.13-.04.05-.02.1-.03.14-.05,2.42-2.14,4.84-4.27,7.26-6.41,0,0,0,0,0-.01,0,0,0,0,0,.01,2.66.32,5.32-.34,7.98-.42,1.17-.04,2.34.04,3.51.35ZM247.34,561.78s0,.03,0,.03c0,0-.02,0-.02.01,0-.02,0-.03.02-.05,0,0,0,0,0,0ZM244.94,563.14s0,.02,0,.03c0,0-.02-.02-.02-.03h.02ZM251.66,444.16s0-.08,0-.12c.02.04.05.08.07.12-.03,0-.05,0-.08,0ZM251.73,443.26c0-.1,0-.19.02-.29h0s0,0,0,0c.28,0,.57,0,.85,0-.29.1-.58.15-.87.29ZM251.7,441.72c-.02-.17-.03-.34-.05-.51.08.22.25.37.43.51-.13,0-.25,0-.38,0ZM251.59,440.38c.16,0,.32,0,.48,0-.15.1-.35.1-.47.25,0-.08-.02-.16-.02-.24h.02ZM250.57,449.49s-.02.03-.03.05c0,0,0,0,0,0h0s0-.02,0-.03c.02,0,.02-.02.04-.02ZM249.97,456.61c.15.16.36.19.55.26-.04.04-.02.09-.06.12l-.52-.05c0-.11.02-.22.03-.33ZM245.39,455.63s0,.06,0,.09h0s-.06.01-.11.02c.04-.03.07-.07.1-.11ZM232.36,469.59c0,.09.02.18.03.28-.22-.02-.43-.11-.65-.12.21-.05.41-.1.62-.15ZM122.48,652.18s-.05.06-.08.1c-.02-.03-.04-.06-.07-.09.05,0,.08-.03.13-.03,0,.01,0,.02-.01.03h0s.02,0,.04,0ZM209.26,506.52c.06.07.14.16.19.23h0s0,0,0,0h0c-.1,0-.2,0-.3.01.05-.08.07-.16.11-.24ZM204.33,510.6c.07,0,.07.06.14.07-.01.04-.03.08-.05.12-.03-.06-.07-.12-.09-.19h0s0,0,0,0ZM194.26,492.69s-.07.07-.1.11c-.02-.04-.08-.08-.1-.12.06,0,.13,0,.2,0ZM174.81,653.76s.04.02.06.04c-.02-.01-.04-.03-.07-.04,0,0,0,0,0,0ZM162.36,553.73c-.03.08,0,.16-.02.25-.04-.05-.1-.05-.14-.1.05-.05.1-.1.15-.15ZM154.58,547.33s0,.03,0,.05c-.01-.01-.01-.03-.03-.04,0,0,.02,0,.03,0ZM155.85,558.99l-.03.04c2.56,4.56,4.42,9.42,6.25,14.3-.21.36-.19.7.07,1.02-.03.84-.16,1.7-.07,2.53.87,7.96-1.29,15.04-5.71,21.63-4.13,6.15-8.08,12.42-11.89,18.78-3.65,6.09-7.7,11.81-13.08,16.48-.26-.14-.3-.3-.63-.44-1.74-.13-3.28.55-4.81,1.24-8.84,4-17.82,3.86-27,1.25-4.88-1.39-9.28-3.82-13.9-5.76-1.19-.25-2.33-.66-3.46-1.1-.92-.79-1.83-1.59-2.76-2.37-4.44-3.68-7.4-8.59-10.8-13.13-.02-.06-.04-.11-.06-.17-1.24-3.36-2.48-6.71-3.73-10.07-.04-4.62-.07-9.24-.11-13.87.05-.41.11-.83.16-1.24.99-1.09,1.28-2.41,1.25-3.84,1.31-1.47,2.22-3.15,2.68-5.07,1.28-.99,2.08-2.28,2.42-3.86,1.81-1.81,3.16-3.9,4.02-6.32,1.29-.98,2.11-2.27,2.43-3.87,1.8-1.8,3.14-3.9,3.98-6.31,1.31-.98,2.14-2.28,2.45-3.89,1.9-1.74,3.08-3.97,4.13-6.28,1.63-1.71,3.26-3.42,4.89-5.14,4.67-2.97,9.64-5.23,15.01-6.58.84.01,1.68.1,2.51.02,16.28-1.49,29.59,4.58,40.74,16.15.19.19.37.38.56.57.98,1.01,1.96,2.01,2.94,3.01.17.99.6,1.8,1.55,2.26ZM44.99,627.67h0c.26,0,.51,0,.77,0-.12.17-.3.35-.38.51-.12-.18-.26-.34-.38-.51,0,0,0,0,0,0,0,0,0,0,0,0ZM13.69,540.55c-.04.1-.09.2-.13.3,0-.09-.07-.12-.08-.21.07-.04.14-.05.21-.09ZM4.56,545.72s0,.01,0,.02c0,0,0-.01,0-.02h.01Z"/>
      <path class="cls-16" d="M485.56,430.91s0,0,.01,0c.01-.02.02-.03.03-.05l-.04.06Z"/>
    </g>
  </g>
</svg>