<?xml version="1.0" encoding="UTF-8"?>
<svg id="Layer_2" data-name="Layer 2" xmlns="http://www.w3.org/2000/svg" viewBox="0 0 126 126">
  <defs>
    <style>
      .cls-1 {
        fill: #fff;
        stroke-width: 0px;
      }
    </style>
  </defs>
  <g id="Layer_2-2" data-name="Layer 2">
    <path class="cls-1" d="M15,0C6.75,0,0,6.75,0,15v96c0,8.25,6.75,15,15,15h96c8.25,0,15-6.75,15-15V15c0-8.25-6.75-15-15-15H15ZM15,6h96c5.01,0,9,3.99,9,9v96c0,5.01-3.99,9-9,9H15c-5.01,0-9-3.99-9-9V15c0-5.01,3.99-9,9-9ZM66.13,18c-1.65,0-3,1.34-3,2.99,0,0-.03,14.63-.06,29.29-.02,7.33-.04,14.67-.05,20.19-.01,5.52-.02,9.02-.02,9.31,0,5.45-4.95,9.9-10.58,9.9s-10.05-4.47-10.05-10.06,4.46-10.05,10.05-10.05c.19,0,.57.06,1.22.14,1.65.2,3.14-.98,3.34-2.62.01-.12.02-.24.02-.36v-12.6c0-1.58-1.23-2.89-2.81-2.99-.47-.03-1.06-.09-1.77-.09-15.75,0-28.58,12.83-28.58,28.58,0,15.75,12.83,28.58,28.58,28.58,15.75,0,28.58-12.83,28.58-28.58v-27.15c4.36,3.49,9.8,5.7,15.81,5.7.82,0,1.6-.05,2.34-.12,1.54-.14,2.72-1.44,2.72-2.99v-14.01c0-1.57-1.21-2.88-2.78-2.99-9.43-.68-16.95-8.03-17.94-17.37-.16-1.53-1.45-2.69-2.98-2.69h-12.05ZM69.12,24h6.84c2.18,9.9,9.91,17.44,19.91,19.34v8.6c-6.42-.33-12.05-3.53-15.37-8.57-.91-1.38-2.77-1.77-4.15-.86-.85.56-1.35,1.5-1.35,2.51v34.61c0,12.51-10.08,22.58-22.58,22.58s-22.58-10.08-22.58-22.58,9.36-21.53,21.16-22.29v6.53c-8.14.76-14.64,7.44-14.64,15.77,0,8.83,7.22,16.06,16.05,16.06s16.58-6.92,16.58-15.9c0,.15,0-3.77.02-9.3.01-5.52.03-12.86.05-20.19.03-13.16.05-23.74.06-26.29Z"/>
  </g>
</svg>